<svg width="198" height="146" viewBox="0 0 198 146" fill="none" xmlns="http://www.w3.org/2000/svg">
<path d="M49.62 86.62H44.94V92H42.4V78.52H50.3V80.58H44.94V84.56H49.62V86.62ZM55.7605 90.3C56.2938 90.3 56.7071 90.1467 57.0005 89.84C57.3071 89.52 57.4605 89.1067 57.4605 88.6V87.64H56.2205C55.5938 87.64 55.1138 87.7733 54.7805 88.04C54.4471 88.2933 54.2805 88.62 54.2805 89.02C54.2805 89.8733 54.7738 90.3 55.7605 90.3ZM57.5605 90.78C57.0938 91.6467 56.2138 92.08 54.9205 92.08C53.9605 92.08 53.1938 91.8 52.6205 91.24C52.0605 90.68 51.7805 89.9733 51.7805 89.12C51.7805 88.16 52.1405 87.4067 52.8605 86.86C53.5805 86.3133 54.6205 86.04 55.9805 86.04H57.4605V85.42C57.4605 84.86 57.3138 84.4333 57.0205 84.14C56.7271 83.8467 56.2271 83.7 55.5205 83.7C54.4405 83.7 53.4471 84 52.5405 84.6V82.38C53.3005 81.9133 54.3938 81.68 55.8205 81.68C58.5671 81.68 59.9405 82.96 59.9405 85.52V92H57.5605V90.78ZM69.0372 89.08C69.0372 90.0267 68.6972 90.7667 68.0172 91.3C67.3372 91.8333 66.4305 92.1 65.2972 92.1C64.0439 92.1 63.0305 91.8933 62.2572 91.48V89.28C63.1505 89.88 64.1172 90.18 65.1572 90.18C65.5972 90.18 65.9372 90.1 66.1772 89.94C66.4305 89.7667 66.5572 89.5333 66.5572 89.24C66.5572 89.0667 66.5172 88.9133 66.4372 88.78C66.3572 88.6333 66.2039 88.4933 65.9772 88.36C65.7505 88.2267 65.5705 88.1333 65.4372 88.08C65.3172 88.0133 65.0705 87.9 64.6972 87.74C64.6572 87.7267 64.6239 87.7133 64.5972 87.7C64.5839 87.6867 64.5572 87.6733 64.5172 87.66C64.4772 87.6467 64.4439 87.6333 64.4172 87.62C62.9372 86.9533 62.1972 85.9933 62.1972 84.74C62.1972 83.8067 62.5505 83.0733 63.2572 82.54C63.9639 82.0067 64.8505 81.74 65.9172 81.74C66.9439 81.74 67.7972 81.8867 68.4772 82.18V84.3C67.8105 83.9 66.9772 83.7 65.9772 83.7C65.5639 83.7 65.2372 83.7933 64.9972 83.98C64.7705 84.1533 64.6572 84.38 64.6572 84.66C64.6572 84.7667 64.6705 84.8667 64.6972 84.96C64.7372 85.0533 64.7972 85.1467 64.8772 85.24C64.9705 85.32 65.0572 85.3933 65.1372 85.46C65.2172 85.5267 65.3305 85.6 65.4772 85.68C65.6239 85.7467 65.7505 85.8067 65.8572 85.86C65.9639 85.9133 66.1105 85.98 66.2972 86.06C66.4839 86.14 66.6305 86.2067 66.7372 86.26C67.4439 86.6067 68.0039 86.9933 68.4172 87.42C68.8305 87.8467 69.0372 88.4 69.0372 89.08ZM76.5523 91.76C76.0857 91.9867 75.4857 92.1 74.7523 92.1C72.5657 92.1 71.4723 90.9933 71.4723 88.78V83.66H69.9523V81.86H71.4723V79.42H73.8723V81.86H76.3923V83.66H73.8723V88.82C73.8723 89.2467 73.9857 89.5733 74.2123 89.8C74.439 90.0133 74.7523 90.12 75.1523 90.12C75.659 90.12 76.1257 89.98 76.5523 89.7V91.76ZM87.9914 92H83.5914V78.52H87.9914C90.0047 78.52 91.6514 79.14 92.9314 80.38C94.2114 81.62 94.8514 83.1867 94.8514 85.08C94.8514 87.1467 94.2314 88.82 92.9914 90.1C91.7514 91.3667 90.0847 92 87.9914 92ZM87.9114 80.64H86.1714V89.9H87.9514C89.3647 89.9 90.4381 89.4667 91.1714 88.6C91.9047 87.72 92.2714 86.5467 92.2714 85.08C92.2714 83.7867 91.8781 82.7267 91.0914 81.9C90.3181 81.06 89.2581 80.64 87.9114 80.64ZM104.728 91.44C104.021 91.88 103.001 92.1 101.668 92.1C100.054 92.1 98.7808 91.62 97.8475 90.66C96.9142 89.7 96.4475 88.46 96.4475 86.94C96.4475 85.3267 96.8875 84.06 97.7675 83.14C98.6475 82.22 99.7475 81.76 101.068 81.76C102.388 81.76 103.434 82.16 104.208 82.96C104.981 83.76 105.368 84.9267 105.368 86.46C105.368 86.8333 105.321 87.3133 105.228 87.9H98.8675C99.0408 88.6333 99.4008 89.1933 99.9475 89.58C100.508 89.9667 101.201 90.16 102.028 90.16C103.094 90.16 103.994 89.8933 104.728 89.36V91.44ZM101.128 83.64C100.554 83.64 100.054 83.8533 99.6275 84.28C99.2142 84.6933 98.9475 85.3 98.8275 86.1H103.088V85.8C103.061 85.1467 102.881 84.6267 102.548 84.24C102.228 83.84 101.754 83.64 101.128 83.64ZM110.073 92H107.673V77.86H110.073V92ZM115.269 92H112.869V81.86H115.269V92ZM115.509 78.82C115.509 79.2333 115.369 79.58 115.089 79.86C114.809 80.14 114.469 80.28 114.069 80.28C113.669 80.28 113.329 80.14 113.049 79.86C112.769 79.58 112.629 79.2333 112.629 78.82C112.629 78.42 112.769 78.08 113.049 77.8C113.329 77.52 113.669 77.38 114.069 77.38C114.469 77.38 114.809 77.52 115.089 77.8C115.369 78.08 115.509 78.42 115.509 78.82ZM123.184 92H120.584L116.924 81.86H119.444L120.784 86.16C121.051 87 121.277 87.7533 121.464 88.42C121.651 89.0733 121.771 89.52 121.824 89.76L121.884 90.12C122.017 89.3733 122.397 88.0533 123.024 86.16L124.424 81.86H126.904L123.184 92ZM136.192 91.44C135.486 91.88 134.466 92.1 133.132 92.1C131.519 92.1 130.246 91.62 129.312 90.66C128.379 89.7 127.912 88.46 127.912 86.94C127.912 85.3267 128.352 84.06 129.232 83.14C130.112 82.22 131.212 81.76 132.532 81.76C133.852 81.76 134.899 82.16 135.672 82.96C136.446 83.76 136.832 84.9267 136.832 86.46C136.832 86.8333 136.786 87.3133 136.692 87.9H130.332C130.506 88.6333 130.866 89.1933 131.412 89.58C131.972 89.9667 132.666 90.16 133.492 90.16C134.559 90.16 135.459 89.8933 136.192 89.36V91.44ZM132.592 83.64C132.019 83.64 131.519 83.8533 131.092 84.28C130.679 84.6933 130.412 85.3 130.292 86.1H134.552V85.8C134.526 85.1467 134.346 84.6267 134.012 84.24C133.692 83.84 133.219 83.64 132.592 83.64ZM141.438 92H139.018L139.038 81.86H141.438V83.66C141.905 82.4067 142.758 81.78 143.998 81.78C144.278 81.78 144.505 81.8 144.678 81.84V84.16C144.372 84.0267 144.032 83.96 143.658 83.96C143.005 83.96 142.472 84.2267 142.058 84.76C141.645 85.2933 141.438 85.96 141.438 86.76V92ZM151.289 91.72C150.276 94.4267 148.729 95.78 146.649 95.78C146.262 95.78 145.929 95.7467 145.649 95.68V93.7C145.862 93.7533 146.089 93.78 146.329 93.78C147.542 93.78 148.402 93.12 148.909 91.8L144.909 81.86H147.569L148.749 85.1C149.109 86.06 149.396 86.8667 149.609 87.52C149.836 88.1733 149.976 88.5867 150.029 88.76L150.089 89.04C150.222 88.5733 150.649 87.26 151.369 85.1L152.429 81.86H154.949L151.289 91.72Z" fill="black"/>
<path opacity="0.6" d="M7.56496 124H2.41296V114.564H3.54696V122.978H7.56496V124ZM11.1988 123.146C11.7028 123.146 12.1042 123.006 12.4028 122.726C12.7015 122.437 12.8508 122.073 12.8508 121.634V120.724H11.6188C11.0215 120.724 10.5735 120.841 10.2748 121.074C9.97617 121.307 9.82684 121.601 9.82684 121.956C9.82684 122.311 9.9435 122.6 10.1768 122.824C10.4102 123.039 10.7508 123.146 11.1988 123.146ZM12.8648 123.16C12.5008 123.767 11.8382 124.07 10.8768 124.07C10.2142 124.07 9.6775 123.874 9.26684 123.482C8.8655 123.09 8.66484 122.595 8.66484 121.998C8.66484 121.317 8.9215 120.789 9.43484 120.416C9.9575 120.033 10.6668 119.842 11.5628 119.842H12.8508V119.478C12.8508 118.918 12.7248 118.498 12.4728 118.218C12.2208 117.929 11.7962 117.784 11.1988 117.784C10.4428 117.784 9.77084 117.985 9.18284 118.386V117.28C9.71484 116.953 10.4148 116.79 11.2828 116.79C13.0655 116.79 13.9568 117.695 13.9568 119.506V124H12.8648V123.16ZM20.1895 122.11C20.1895 122.717 19.9748 123.197 19.5455 123.552C19.1255 123.907 18.5468 124.084 17.8095 124.084C16.9508 124.084 16.2555 123.939 15.7235 123.65V122.572C16.3488 122.945 17.0208 123.132 17.7395 123.132C18.1688 123.132 18.4955 123.048 18.7195 122.88C18.9435 122.712 19.0555 122.483 19.0555 122.194C19.0555 121.858 18.9295 121.597 18.6775 121.41C18.4348 121.223 18.0241 121.013 17.4455 120.78C16.9135 120.575 16.4841 120.318 16.1575 120.01C15.8401 119.702 15.6815 119.287 15.6815 118.764C15.6815 118.176 15.9008 117.709 16.3395 117.364C16.7875 117.009 17.3428 116.832 18.0055 116.832C18.7428 116.832 19.3355 116.935 19.7835 117.14V118.19C19.3541 117.929 18.7661 117.798 18.0195 117.798C17.6461 117.798 17.3475 117.887 17.1235 118.064C16.9088 118.232 16.8015 118.451 16.8015 118.722C16.8015 118.89 16.8341 119.039 16.8995 119.17C16.9648 119.291 17.0908 119.413 17.2775 119.534C17.4735 119.655 17.6135 119.739 17.6975 119.786C17.7908 119.823 17.9868 119.907 18.2855 120.038C18.8828 120.281 19.3495 120.556 19.6855 120.864C20.0215 121.172 20.1895 121.587 20.1895 122.11ZM25.245 123.818C24.937 123.986 24.5917 124.07 24.209 124.07C22.809 124.07 22.109 123.356 22.109 121.928V117.798H20.975V116.902H22.109V115.138H23.215V116.902H25.175V117.798H23.215V121.956C23.215 122.712 23.5697 123.09 24.279 123.09C24.643 123.09 24.965 122.983 25.245 122.768V123.818ZM37.0929 123.524C36.5143 123.916 35.7209 124.112 34.7129 124.112C33.2943 124.112 32.1416 123.678 31.2549 122.81C30.3683 121.933 29.9249 120.743 29.9249 119.24C29.9249 117.821 30.3729 116.669 31.2689 115.782C32.1743 114.886 33.3083 114.438 34.6709 114.438C35.6509 114.438 36.4489 114.606 37.0649 114.942V116.104C36.6543 115.889 36.2856 115.735 35.9589 115.642C35.6323 115.549 35.2029 115.502 34.6709 115.502C33.6536 115.502 32.8043 115.847 32.1229 116.538C31.4509 117.229 31.1149 118.129 31.1149 119.24C31.1149 120.397 31.4509 121.321 32.1229 122.012C32.7949 122.703 33.6863 123.048 34.7969 123.048C35.6929 123.048 36.4583 122.81 37.0929 122.334V123.524ZM44.2968 124H43.1908V119.408C43.1908 118.895 43.0555 118.498 42.7848 118.218C42.5235 117.938 42.1781 117.798 41.7488 117.798C41.2261 117.798 40.7688 117.999 40.3768 118.4C39.9848 118.801 39.7888 119.375 39.7888 120.122V124H38.6968V114.102H39.7888V118.134C40.2088 117.247 40.9555 116.804 42.0288 116.804C42.7101 116.804 43.2561 117.014 43.6668 117.434C44.0868 117.854 44.2968 118.423 44.2968 119.142V124ZM48.4274 123.146C48.9314 123.146 49.3327 123.006 49.6314 122.726C49.93 122.437 50.0794 122.073 50.0794 121.634V120.724H48.8474C48.25 120.724 47.802 120.841 47.5034 121.074C47.2047 121.307 47.0554 121.601 47.0554 121.956C47.0554 122.311 47.172 122.6 47.4054 122.824C47.6387 123.039 47.9794 123.146 48.4274 123.146ZM50.0934 123.16C49.7294 123.767 49.0667 124.07 48.1054 124.07C47.4427 124.07 46.906 123.874 46.4954 123.482C46.094 123.09 45.8934 122.595 45.8934 121.998C45.8934 121.317 46.15 120.789 46.6634 120.416C47.186 120.033 47.8954 119.842 48.7914 119.842H50.0794V119.478C50.0794 118.918 49.9534 118.498 49.7014 118.218C49.4494 117.929 49.0247 117.784 48.4274 117.784C47.6714 117.784 46.9994 117.985 46.4114 118.386V117.28C46.9434 116.953 47.6434 116.79 48.5114 116.79C50.294 116.79 51.1854 117.695 51.1854 119.506V124H50.0934V123.16ZM58.748 124H57.642V119.408C57.642 118.885 57.5066 118.489 57.236 118.218C56.9746 117.938 56.6293 117.798 56.2 117.798C55.668 117.798 55.206 118.003 54.814 118.414C54.4313 118.825 54.24 119.394 54.24 120.122V124H53.148V116.902H54.24V118.134C54.66 117.247 55.4066 116.804 56.48 116.804C57.1706 116.804 57.7213 117.014 58.132 117.434C58.5426 117.854 58.748 118.414 58.748 119.114V124ZM65.5945 123.748C65.1465 124.019 64.5959 124.154 63.9425 124.154C62.8225 124.154 61.9312 123.799 61.2685 123.09C60.6152 122.371 60.2885 121.499 60.2885 120.472C60.2885 119.464 60.6152 118.596 61.2685 117.868C61.9312 117.14 62.8319 116.776 63.9705 116.776C64.5772 116.776 65.1185 116.907 65.5945 117.168V118.218C65.1652 117.929 64.6612 117.784 64.0825 117.784C63.2799 117.784 62.6359 118.045 62.1505 118.568C61.6745 119.081 61.4365 119.721 61.4365 120.486C61.4459 121.251 61.6792 121.891 62.1365 122.404C62.5939 122.908 63.2425 123.16 64.0825 123.16C64.6239 123.16 65.1279 123.006 65.5945 122.698V123.748ZM72.4784 123.636C71.9277 123.925 71.2557 124.07 70.4624 124.07C69.389 124.07 68.521 123.743 67.8584 123.09C67.205 122.427 66.8784 121.555 66.8784 120.472C66.8784 119.343 67.1724 118.451 67.7604 117.798C68.3484 117.145 69.1044 116.818 70.0284 116.818C70.915 116.818 71.6197 117.103 72.1424 117.672C72.665 118.241 72.9264 119.049 72.9264 120.094C72.9264 120.393 72.903 120.668 72.8564 120.92H68.0124C68.0964 121.62 68.3624 122.157 68.8104 122.53C69.2584 122.903 69.8464 123.09 70.5744 123.09C71.3677 123.09 72.0024 122.927 72.4784 122.6V123.636ZM70.0284 117.784C69.4964 117.784 69.0437 117.975 68.6704 118.358C68.297 118.741 68.0777 119.287 68.0124 119.996H71.8204V119.716C71.8204 119.128 71.6617 118.661 71.3444 118.316C71.027 117.961 70.5884 117.784 70.0284 117.784ZM75.8868 121.144H74.8088V114.564H75.8868V121.144ZM76.1668 123.286C76.1668 123.519 76.0875 123.715 75.9288 123.874C75.7702 124.033 75.5695 124.112 75.3268 124.112C75.0842 124.112 74.8835 124.033 74.7248 123.874C74.5755 123.715 74.5008 123.519 74.5008 123.286C74.5008 123.062 74.5802 122.871 74.7388 122.712C74.8975 122.544 75.0935 122.46 75.3268 122.46C75.5602 122.46 75.7562 122.544 75.9148 122.712C76.0828 122.871 76.1668 123.062 76.1668 123.286ZM86.2905 119.898H82.7345V124H81.6005V114.564H86.7805V115.558H82.7345V118.904H86.2905V119.898ZM89.4861 124H88.3801L88.3941 116.902H89.4861V118.148C89.8594 117.271 90.5034 116.832 91.4181 116.832C91.5861 116.832 91.7167 116.841 91.8101 116.86V117.952C91.6141 117.887 91.4134 117.854 91.2081 117.854C90.7134 117.854 90.3027 118.083 89.9761 118.54C89.6494 118.997 89.4861 119.525 89.4861 120.122V124ZM98.1405 123.636C97.5898 123.925 96.9178 124.07 96.1245 124.07C95.0511 124.07 94.1831 123.743 93.5205 123.09C92.8671 122.427 92.5405 121.555 92.5405 120.472C92.5405 119.343 92.8345 118.451 93.4225 117.798C94.0105 117.145 94.7665 116.818 95.6905 116.818C96.5771 116.818 97.2818 117.103 97.8045 117.672C98.3271 118.241 98.5885 119.049 98.5885 120.094C98.5885 120.393 98.5651 120.668 98.5185 120.92H93.6745C93.7585 121.62 94.0245 122.157 94.4725 122.53C94.9205 122.903 95.5085 123.09 96.2365 123.09C97.0298 123.09 97.6645 122.927 98.1405 122.6V123.636ZM95.6905 117.784C95.1585 117.784 94.7058 117.975 94.3325 118.358C93.9591 118.741 93.7398 119.287 93.6745 119.996H97.4825V119.716C97.4825 119.128 97.3238 118.661 97.0065 118.316C96.6891 117.961 96.2505 117.784 95.6905 117.784ZM105.455 123.636C104.904 123.925 104.232 124.07 103.439 124.07C102.366 124.07 101.498 123.743 100.835 123.09C100.182 122.427 99.8549 121.555 99.8549 120.472C99.8549 119.343 100.149 118.451 100.737 117.798C101.325 117.145 102.081 116.818 103.005 116.818C103.892 116.818 104.596 117.103 105.119 117.672C105.642 118.241 105.903 119.049 105.903 120.094C105.903 120.393 105.88 120.668 105.833 120.92H100.989C101.073 121.62 101.339 122.157 101.787 122.53C102.235 122.903 102.823 123.09 103.551 123.09C104.344 123.09 104.979 122.927 105.455 122.6V123.636ZM103.005 117.784C102.473 117.784 102.02 117.975 101.647 118.358C101.274 118.741 101.054 119.287 100.989 119.996H104.797V119.716C104.797 119.128 104.638 118.661 104.321 118.316C104.004 117.961 103.565 117.784 103.005 117.784ZM115.277 122.11C115.277 122.717 115.063 123.197 114.633 123.552C114.213 123.907 113.635 124.084 112.897 124.084C112.039 124.084 111.343 123.939 110.811 123.65V122.572C111.437 122.945 112.109 123.132 112.827 123.132C113.257 123.132 113.583 123.048 113.807 122.88C114.031 122.712 114.143 122.483 114.143 122.194C114.143 121.858 114.017 121.597 113.765 121.41C113.523 121.223 113.112 121.013 112.533 120.78C112.001 120.575 111.572 120.318 111.245 120.01C110.928 119.702 110.769 119.287 110.769 118.764C110.769 118.176 110.989 117.709 111.427 117.364C111.875 117.009 112.431 116.832 113.093 116.832C113.831 116.832 114.423 116.935 114.871 117.14V118.19C114.442 117.929 113.854 117.798 113.107 117.798C112.734 117.798 112.435 117.887 112.211 118.064C111.997 118.232 111.889 118.451 111.889 118.722C111.889 118.89 111.922 119.039 111.987 119.17C112.053 119.291 112.179 119.413 112.365 119.534C112.561 119.655 112.701 119.739 112.785 119.786C112.879 119.823 113.075 119.907 113.373 120.038C113.971 120.281 114.437 120.556 114.773 120.864C115.109 121.172 115.277 121.587 115.277 122.11ZM122.377 124H121.271V119.408C121.271 118.895 121.136 118.498 120.865 118.218C120.604 117.938 120.258 117.798 119.829 117.798C119.306 117.798 118.849 117.999 118.457 118.4C118.065 118.801 117.869 119.375 117.869 120.122V124H116.777V114.102H117.869V118.134C118.289 117.247 119.036 116.804 120.109 116.804C120.79 116.804 121.336 117.014 121.747 117.434C122.167 117.854 122.377 118.423 122.377 119.142V124ZM125.499 124H124.393V116.902H125.499V124ZM125.457 114.158C125.597 114.298 125.667 114.471 125.667 114.676C125.667 114.881 125.597 115.054 125.457 115.194C125.317 115.325 125.145 115.39 124.939 115.39C124.734 115.39 124.561 115.325 124.421 115.194C124.291 115.054 124.225 114.881 124.225 114.676C124.225 114.471 124.291 114.298 124.421 114.158C124.561 114.018 124.734 113.948 124.939 113.948C125.145 113.948 125.317 114.018 125.457 114.158ZM128.697 126.758H127.605V116.902H128.697V117.98C129.192 117.187 129.924 116.79 130.895 116.79C131.838 116.79 132.575 117.135 133.107 117.826C133.648 118.507 133.919 119.361 133.919 120.388C133.919 121.48 133.634 122.376 133.065 123.076C132.505 123.767 131.772 124.112 130.867 124.112C129.934 124.112 129.21 123.715 128.697 122.922V126.758ZM128.697 120.458C128.697 121.363 128.907 122.031 129.327 122.46C129.747 122.889 130.214 123.104 130.727 123.104C131.324 123.104 131.814 122.871 132.197 122.404C132.58 121.928 132.771 121.256 132.771 120.388C132.771 119.613 132.584 118.988 132.211 118.512C131.838 118.036 131.366 117.798 130.797 117.798C130.228 117.798 129.733 118.008 129.313 118.428C128.902 118.839 128.697 119.515 128.697 120.458ZM136.64 126.758H135.548V116.902H136.64V117.98C137.135 117.187 137.868 116.79 138.838 116.79C139.781 116.79 140.518 117.135 141.05 117.826C141.592 118.507 141.862 119.361 141.862 120.388C141.862 121.48 141.578 122.376 141.008 123.076C140.448 123.767 139.716 124.112 138.81 124.112C137.877 124.112 137.154 123.715 136.64 122.922V126.758ZM136.64 120.458C136.64 121.363 136.85 122.031 137.27 122.46C137.69 122.889 138.157 123.104 138.67 123.104C139.268 123.104 139.758 122.871 140.14 122.404C140.523 121.928 140.714 121.256 140.714 120.388C140.714 119.613 140.528 118.988 140.154 118.512C139.781 118.036 139.31 117.798 138.74 117.798C138.171 117.798 137.676 118.008 137.256 118.428C136.846 118.839 136.64 119.515 136.64 120.458ZM144.654 124H143.548V116.902H144.654V124ZM144.612 114.158C144.752 114.298 144.822 114.471 144.822 114.676C144.822 114.881 144.752 115.054 144.612 115.194C144.472 115.325 144.299 115.39 144.094 115.39C143.888 115.39 143.716 115.325 143.576 115.194C143.445 115.054 143.38 114.881 143.38 114.676C143.38 114.471 143.445 114.298 143.576 114.158C143.716 114.018 143.888 113.948 144.094 113.948C144.299 113.948 144.472 114.018 144.612 114.158ZM152.359 124H151.253V119.408C151.253 118.885 151.118 118.489 150.847 118.218C150.586 117.938 150.241 117.798 149.811 117.798C149.279 117.798 148.817 118.003 148.425 118.414C148.043 118.825 147.851 119.394 147.851 120.122V124H146.759V116.902H147.851V118.134C148.271 117.247 149.018 116.804 150.091 116.804C150.782 116.804 151.333 117.014 151.743 117.434C152.154 117.854 152.359 118.414 152.359 119.114V124ZM160.046 123.426C160.046 124.509 159.747 125.321 159.15 125.862C158.553 126.413 157.783 126.688 156.84 126.688C155.981 126.688 155.249 126.543 154.642 126.254V125.148C155.239 125.493 155.939 125.666 156.742 125.666C157.423 125.666 157.96 125.484 158.352 125.12C158.744 124.756 158.94 124.187 158.94 123.412V122.614C158.473 123.417 157.778 123.818 156.854 123.818C156.042 123.818 155.347 123.519 154.768 122.922C154.199 122.325 153.914 121.494 153.914 120.43C153.914 119.375 154.18 118.507 154.712 117.826C155.244 117.145 155.939 116.804 156.798 116.804C157.769 116.804 158.483 117.229 158.94 118.078V116.902H160.046V123.426ZM155.062 120.402C155.062 121.195 155.258 121.802 155.65 122.222C156.042 122.633 156.485 122.838 156.98 122.838C157.493 122.838 157.946 122.642 158.338 122.25C158.739 121.849 158.94 121.256 158.94 120.472C158.94 119.567 158.749 118.895 158.366 118.456C157.983 118.017 157.54 117.798 157.036 117.798C156.429 117.798 155.949 118.041 155.594 118.526C155.239 119.002 155.062 119.627 155.062 120.402ZM171.665 120.472C171.665 121.527 171.367 122.399 170.769 123.09C170.172 123.781 169.351 124.126 168.305 124.126C167.288 124.126 166.481 123.785 165.883 123.104C165.295 122.413 165.001 121.545 165.001 120.5C165.001 119.445 165.305 118.568 165.911 117.868C166.527 117.159 167.325 116.804 168.305 116.804C169.379 116.804 170.205 117.149 170.783 117.84C171.371 118.531 171.665 119.408 171.665 120.472ZM166.149 120.486C166.149 121.223 166.345 121.853 166.737 122.376C167.129 122.889 167.652 123.146 168.305 123.146C169.015 123.146 169.561 122.894 169.943 122.39C170.326 121.877 170.517 121.242 170.517 120.486C170.517 119.702 170.335 119.058 169.971 118.554C169.607 118.041 169.052 117.784 168.305 117.784C167.633 117.784 167.106 118.045 166.723 118.568C166.341 119.091 166.149 119.73 166.149 120.486ZM178.883 124H177.777V119.408C177.777 118.885 177.641 118.489 177.371 118.218C177.109 117.938 176.764 117.798 176.335 117.798C175.803 117.798 175.341 118.003 174.949 118.414C174.566 118.825 174.375 119.394 174.375 120.122V124H173.283V116.902H174.375V118.134C174.795 117.247 175.541 116.804 176.615 116.804C177.305 116.804 177.856 117.014 178.267 117.434C178.677 117.854 178.883 118.414 178.883 119.114V124ZM186.431 123.146C186.935 123.146 187.337 123.006 187.635 122.726C187.934 122.437 188.083 122.073 188.083 121.634V120.724H186.851C186.254 120.724 185.806 120.841 185.507 121.074C185.209 121.307 185.059 121.601 185.059 121.956C185.059 122.311 185.176 122.6 185.409 122.824C185.643 123.039 185.983 123.146 186.431 123.146ZM188.097 123.16C187.733 123.767 187.071 124.07 186.109 124.07C185.447 124.07 184.91 123.874 184.499 123.482C184.098 123.09 183.897 122.595 183.897 121.998C183.897 121.317 184.154 120.789 184.667 120.416C185.19 120.033 185.899 119.842 186.795 119.842H188.083V119.478C188.083 118.918 187.957 118.498 187.705 118.218C187.453 117.929 187.029 117.784 186.431 117.784C185.675 117.784 185.003 117.985 184.415 118.386V117.28C184.947 116.953 185.647 116.79 186.515 116.79C188.298 116.79 189.189 117.695 189.189 119.506V124H188.097V123.16ZM192.314 124H191.208V114.102H192.314V124ZM195.581 124H194.475V114.102H195.581V124ZM50.9974 139.472C50.9974 140.527 50.6988 141.399 50.1014 142.09C49.5041 142.781 48.6828 143.126 47.6374 143.126C46.6201 143.126 45.8128 142.785 45.2154 142.104C44.6274 141.413 44.3334 140.545 44.3334 139.5C44.3334 138.445 44.6368 137.568 45.2434 136.868C45.8594 136.159 46.6574 135.804 47.6374 135.804C48.7108 135.804 49.5368 136.149 50.1154 136.84C50.7034 137.531 50.9974 138.408 50.9974 139.472ZM45.4814 139.486C45.4814 140.223 45.6774 140.853 46.0694 141.376C46.4614 141.889 46.9841 142.146 47.6374 142.146C48.3468 142.146 48.8928 141.894 49.2754 141.39C49.6581 140.877 49.8494 140.242 49.8494 139.486C49.8494 138.702 49.6674 138.058 49.3034 137.554C48.9394 137.041 48.3841 136.784 47.6374 136.784C46.9654 136.784 46.4381 137.045 46.0554 137.568C45.6728 138.091 45.4814 138.73 45.4814 139.486ZM53.7068 143H52.6008L52.6148 135.902H53.7068V137.148C54.0801 136.271 54.7241 135.832 55.6388 135.832C55.8068 135.832 55.9374 135.841 56.0308 135.86V136.952C55.8348 136.887 55.6341 136.854 55.4288 136.854C54.9341 136.854 54.5234 137.083 54.1968 137.54C53.8701 137.997 53.7068 138.525 53.7068 139.122V143ZM57.9092 139.528C57.9092 140.293 58.0958 140.914 58.4692 141.39C58.8425 141.866 59.3138 142.104 59.8832 142.104C60.4618 142.104 60.9518 141.889 61.3532 141.46C61.7638 141.031 61.9692 140.345 61.9692 139.402C61.9692 138.506 61.7592 137.848 61.3392 137.428C60.9192 137.008 60.4572 136.798 59.9532 136.798C59.3652 136.798 58.8752 137.036 58.4832 137.512C58.1005 137.979 57.9092 138.651 57.9092 139.528ZM63.0752 143H61.9692V141.95C61.4652 142.725 60.7372 143.112 59.7852 143.112C58.8425 143.112 58.1005 142.762 57.5592 142.062C57.0272 141.362 56.7612 140.513 56.7612 139.514C56.7612 138.403 57.0458 137.507 57.6152 136.826C58.1845 136.135 58.9172 135.79 59.8132 135.79C60.7372 135.79 61.4558 136.187 61.9692 136.98V133.102H63.0752V143ZM70.3045 142.636C69.7539 142.925 69.0819 143.07 68.2885 143.07C67.2152 143.07 66.3472 142.743 65.6845 142.09C65.0312 141.427 64.7045 140.555 64.7045 139.472C64.7045 138.343 64.9985 137.451 65.5865 136.798C66.1745 136.145 66.9305 135.818 67.8545 135.818C68.7412 135.818 69.4459 136.103 69.9685 136.672C70.4912 137.241 70.7525 138.049 70.7525 139.094C70.7525 139.393 70.7292 139.668 70.6825 139.92H65.8385C65.9225 140.62 66.1885 141.157 66.6365 141.53C67.0845 141.903 67.6725 142.09 68.4005 142.09C69.1939 142.09 69.8285 141.927 70.3045 141.6V142.636ZM67.8545 136.784C67.3225 136.784 66.8699 136.975 66.4965 137.358C66.1232 137.741 65.9039 138.287 65.8385 138.996H69.6465V138.716C69.6465 138.128 69.4879 137.661 69.1705 137.316C68.8532 136.961 68.4145 136.784 67.8545 136.784ZM73.531 143H72.425L72.439 135.902H73.531V137.148C73.9043 136.271 74.5483 135.832 75.463 135.832C75.631 135.832 75.7617 135.841 75.855 135.86V136.952C75.659 136.887 75.4583 136.854 75.253 136.854C74.7583 136.854 74.3477 137.083 74.021 137.54C73.6943 137.997 73.531 138.525 73.531 139.122V143ZM81.2754 141.11C81.2754 141.717 81.0607 142.197 80.6314 142.552C80.2114 142.907 79.6327 143.084 78.8954 143.084C78.0367 143.084 77.3414 142.939 76.8094 142.65V141.572C77.4347 141.945 78.1067 142.132 78.8254 142.132C79.2547 142.132 79.5814 142.048 79.8054 141.88C80.0294 141.712 80.1414 141.483 80.1414 141.194C80.1414 140.858 80.0154 140.597 79.7634 140.41C79.5207 140.223 79.1101 140.013 78.5314 139.78C77.9994 139.575 77.5701 139.318 77.2434 139.01C76.9261 138.702 76.7674 138.287 76.7674 137.764C76.7674 137.176 76.9867 136.709 77.4254 136.364C77.8734 136.009 78.4287 135.832 79.0914 135.832C79.8287 135.832 80.4214 135.935 80.8694 136.14V137.19C80.4401 136.929 79.8521 136.798 79.1054 136.798C78.7321 136.798 78.4334 136.887 78.2094 137.064C77.9947 137.232 77.8874 137.451 77.8874 137.722C77.8874 137.89 77.9201 138.039 77.9854 138.17C78.0507 138.291 78.1767 138.413 78.3634 138.534C78.5594 138.655 78.6994 138.739 78.7834 138.786C78.8767 138.823 79.0727 138.907 79.3714 139.038C79.9687 139.281 80.4354 139.556 80.7714 139.864C81.1074 140.172 81.2754 140.587 81.2754 141.11ZM91.3729 142.636C90.8222 142.925 90.1502 143.07 89.3569 143.07C88.2836 143.07 87.4156 142.743 86.7529 142.09C86.0996 141.427 85.7729 140.555 85.7729 139.472C85.7729 138.343 86.0669 137.451 86.6549 136.798C87.2429 136.145 87.9989 135.818 88.9229 135.818C89.8096 135.818 90.5142 136.103 91.0369 136.672C91.5596 137.241 91.8209 138.049 91.8209 139.094C91.8209 139.393 91.7976 139.668 91.7509 139.92H86.9069C86.9909 140.62 87.2569 141.157 87.7049 141.53C88.1529 141.903 88.7409 142.09 89.4689 142.09C90.2622 142.09 90.8969 141.927 91.3729 141.6V142.636ZM88.9229 136.784C88.3909 136.784 87.9382 136.975 87.5649 137.358C87.1916 137.741 86.9722 138.287 86.9069 138.996H90.7149V138.716C90.7149 138.128 90.5562 137.661 90.2389 137.316C89.9216 136.961 89.4829 136.784 88.9229 136.784ZM99.1074 143H98.0014V138.408C98.0014 137.885 97.866 137.489 97.5954 137.218C97.334 136.938 96.9887 136.798 96.5594 136.798C96.0274 136.798 95.5654 137.003 95.1734 137.414C94.7907 137.825 94.5994 138.394 94.5994 139.122V143H93.5074V135.902H94.5994V137.134C95.0194 136.247 95.766 135.804 96.8394 135.804C97.53 135.804 98.0807 136.014 98.4914 136.434C98.902 136.854 99.1074 137.414 99.1074 138.114V143ZM101.796 139.528C101.796 140.293 101.983 140.914 102.356 141.39C102.729 141.866 103.201 142.104 103.77 142.104C104.349 142.104 104.839 141.889 105.24 141.46C105.651 141.031 105.856 140.345 105.856 139.402C105.856 138.506 105.646 137.848 105.226 137.428C104.806 137.008 104.344 136.798 103.84 136.798C103.252 136.798 102.762 137.036 102.37 137.512C101.987 137.979 101.796 138.651 101.796 139.528ZM106.962 143H105.856V141.95C105.352 142.725 104.624 143.112 103.672 143.112C102.729 143.112 101.987 142.762 101.446 142.062C100.914 141.362 100.648 140.513 100.648 139.514C100.648 138.403 100.933 137.507 101.502 136.826C102.071 136.135 102.804 135.79 103.7 135.79C104.624 135.79 105.343 136.187 105.856 136.98V133.102H106.962V143ZM113.281 141.11C113.281 141.717 113.067 142.197 112.637 142.552C112.217 142.907 111.639 143.084 110.901 143.084C110.043 143.084 109.347 142.939 108.815 142.65V141.572C109.441 141.945 110.113 142.132 110.831 142.132C111.261 142.132 111.587 142.048 111.811 141.88C112.035 141.712 112.147 141.483 112.147 141.194C112.147 140.858 112.021 140.597 111.769 140.41C111.527 140.223 111.116 140.013 110.537 139.78C110.005 139.575 109.576 139.318 109.249 139.01C108.932 138.702 108.773 138.287 108.773 137.764C108.773 137.176 108.993 136.709 109.431 136.364C109.879 136.009 110.435 135.832 111.097 135.832C111.835 135.832 112.427 135.935 112.875 136.14V137.19C112.446 136.929 111.858 136.798 111.111 136.798C110.738 136.798 110.439 136.887 110.215 137.064C110.001 137.232 109.893 137.451 109.893 137.722C109.893 137.89 109.926 138.039 109.991 138.17C110.057 138.291 110.183 138.413 110.369 138.534C110.565 138.655 110.705 138.739 110.789 138.786C110.883 138.823 111.079 138.907 111.377 139.038C111.975 139.281 112.441 139.556 112.777 139.864C113.113 140.172 113.281 140.587 113.281 141.11ZM121.755 142.818C121.447 142.986 121.101 143.07 120.719 143.07C119.319 143.07 118.619 142.356 118.619 140.928V136.798H117.485V135.902H118.619V134.138H119.725V135.902H121.685V136.798H119.725V140.956C119.725 141.712 120.079 142.09 120.789 142.09C121.153 142.09 121.475 141.983 121.755 141.768V142.818ZM129.611 139.472C129.611 140.527 129.312 141.399 128.715 142.09C128.117 142.781 127.296 143.126 126.251 143.126C125.233 143.126 124.426 142.785 123.829 142.104C123.241 141.413 122.947 140.545 122.947 139.5C122.947 138.445 123.25 137.568 123.857 136.868C124.473 136.159 125.271 135.804 126.251 135.804C127.324 135.804 128.15 136.149 128.729 136.84C129.317 137.531 129.611 138.408 129.611 139.472ZM124.095 139.486C124.095 140.223 124.291 140.853 124.683 141.376C125.075 141.889 125.597 142.146 126.251 142.146C126.96 142.146 127.506 141.894 127.889 141.39C128.271 140.877 128.463 140.242 128.463 139.486C128.463 138.702 128.281 138.058 127.917 137.554C127.553 137.041 126.997 136.784 126.251 136.784C125.579 136.784 125.051 137.045 124.669 137.568C124.286 138.091 124.095 138.73 124.095 139.486ZM131.956 139.528C131.956 140.293 132.143 140.914 132.516 141.39C132.889 141.866 133.361 142.104 133.93 142.104C134.509 142.104 134.999 141.889 135.4 141.46C135.811 141.031 136.016 140.345 136.016 139.402C136.016 138.506 135.806 137.848 135.386 137.428C134.966 137.008 134.504 136.798 134 136.798C133.412 136.798 132.922 137.036 132.53 137.512C132.147 137.979 131.956 138.651 131.956 139.528ZM137.122 143H136.016V141.95C135.512 142.725 134.784 143.112 133.832 143.112C132.889 143.112 132.147 142.762 131.606 142.062C131.074 141.362 130.808 140.513 130.808 139.514C130.808 138.403 131.093 137.507 131.662 136.826C132.231 136.135 132.964 135.79 133.86 135.79C134.784 135.79 135.503 136.187 136.016 136.98V133.102H137.122V143ZM141.341 142.146C141.845 142.146 142.247 142.006 142.545 141.726C142.844 141.437 142.993 141.073 142.993 140.634V139.724H141.761C141.164 139.724 140.716 139.841 140.417 140.074C140.119 140.307 139.969 140.601 139.969 140.956C139.969 141.311 140.086 141.6 140.319 141.824C140.553 142.039 140.893 142.146 141.341 142.146ZM143.007 142.16C142.643 142.767 141.981 143.07 141.019 143.07C140.357 143.07 139.82 142.874 139.409 142.482C139.008 142.09 138.807 141.595 138.807 140.998C138.807 140.317 139.064 139.789 139.577 139.416C140.1 139.033 140.809 138.842 141.705 138.842H142.993V138.478C142.993 137.918 142.867 137.498 142.615 137.218C142.363 136.929 141.939 136.784 141.341 136.784C140.585 136.784 139.913 136.985 139.325 137.386V136.28C139.857 135.953 140.557 135.79 141.425 135.79C143.208 135.79 144.099 136.695 144.099 138.506V143H143.007V142.16ZM149.142 142.818C148.778 143.779 148.344 144.456 147.84 144.848C147.345 145.24 146.776 145.436 146.132 145.436C145.889 145.436 145.693 145.413 145.544 145.366V144.372C145.684 144.409 145.843 144.428 146.02 144.428C146.963 144.428 147.63 143.891 148.022 142.818L145.152 135.902H146.398L147.322 138.24L148.568 141.46C148.643 141.217 149.016 140.144 149.688 138.24L150.514 135.902H151.704L149.142 142.818ZM153.694 141.698C153.853 141.857 153.932 142.053 153.932 142.286C153.932 142.519 153.853 142.715 153.694 142.874C153.536 143.033 153.34 143.112 153.106 143.112C152.873 143.112 152.677 143.033 152.518 142.874C152.36 142.715 152.28 142.519 152.28 142.286C152.28 142.053 152.36 141.857 152.518 141.698C152.677 141.539 152.873 141.46 153.106 141.46C153.34 141.46 153.536 141.539 153.694 141.698Z" fill="black"/>
<path d="M115.687 30.375H107.437C107.214 30.375 106.999 30.2861 106.841 30.1279C106.683 29.9696 106.594 29.755 106.594 29.5312C106.594 29.3075 106.683 29.0929 106.841 28.9346C106.999 28.7764 107.214 28.6875 107.437 28.6875H115.687C115.911 28.6875 116.126 28.7764 116.284 28.9346C116.442 29.0929 116.531 29.3075 116.531 29.5312C116.531 29.755 116.442 29.9696 116.284 30.1279C116.126 30.2861 115.911 30.375 115.687 30.375Z" fill="#E0E2E5"/>
<path d="M97.3125 19.4062L99 39.6562V41.3438H109.125V39.6562L110.812 19.4062H97.3125Z" fill="#93573D"/>
<path d="M88.875 19.4062V18.5625H85.5V21.0938H82.125V29.5312H85.5H88.875V28.6875H92.25V19.4062H88.875Z" fill="#FDD14B"/>
<path d="M85.5 32.0625C85.2762 32.0625 85.0616 31.9736 84.9034 31.8154C84.7451 31.6571 84.6562 31.4425 84.6562 31.2188V21.9375C84.6562 21.7137 84.7451 21.4991 84.9034 21.3409C85.0616 21.1826 85.2762 21.0938 85.5 21.0938C85.7238 21.0938 85.9384 21.1826 86.0966 21.3409C86.2549 21.4991 86.3438 21.7137 86.3438 21.9375V31.2188C86.3438 31.4425 86.2549 31.6571 86.0966 31.8154C85.9384 31.9736 85.7238 32.0625 85.5 32.0625Z" fill="#E4BC43"/>
<path d="M88.9957 33.75C88.7733 33.75 88.5599 33.6622 88.4019 33.5057C88.2439 33.3492 88.1541 33.1366 88.1519 32.9142L88.0313 20.258C88.0292 20.0342 88.116 19.8188 88.2727 19.659C88.4295 19.4993 88.6432 19.4084 88.867 19.4062C89.0908 19.4041 89.3063 19.491 89.466 19.6477C89.6257 19.8044 89.7167 20.0182 89.7188 20.242L89.8393 32.8982C89.8415 33.122 89.7546 33.3374 89.598 33.4971C89.4413 33.6569 89.2276 33.7478 89.0038 33.75H88.9957Z" fill="#E4BC43"/>
<path d="M81.2812 27.8438L82.9688 39.6562V41.3438H93.0938V39.6562V27.8438H81.2812Z" fill="#E74444"/>
<path d="M120.938 30.375H119.25C119.026 30.375 118.812 30.2861 118.653 30.1279C118.495 29.9696 118.406 29.755 118.406 29.5312C118.406 29.3075 118.495 29.0929 118.653 28.9346C118.812 28.7764 119.026 28.6875 119.25 28.6875H120.938C121.161 28.6875 121.376 28.7764 121.534 28.9346C121.692 29.0929 121.781 29.3075 121.781 29.5312C121.781 29.755 121.692 29.9696 121.534 30.1279C121.376 30.2861 121.161 30.375 120.938 30.375Z" fill="#E0E2E5"/>
<path d="M110.812 19.4062L110.531 22.7812H97.5941L97.3125 19.4062H110.812Z" fill="#A4D4F4"/>
<path d="M95.6737 14.3437C95.521 14.3436 95.3712 14.302 95.2403 14.2235C95.1094 14.145 95.0022 14.0324 94.9302 13.8977C94.8583 13.7631 94.8242 13.6114 94.8316 13.4589C94.839 13.3064 94.8877 13.1588 94.9724 13.0318L95.774 11.8288C95.8936 11.6494 95.94 11.4309 95.9036 11.2184C95.8672 11.0058 95.7507 10.8153 95.5782 10.6859L94.7574 10.07C94.24 9.68164 93.891 9.10997 93.7819 8.47235C93.6728 7.83472 93.8119 7.17953 94.1706 6.64123L94.9722 5.43815C95.0337 5.34596 95.1127 5.26677 95.2048 5.20512C95.2968 5.14346 95.4001 5.10055 95.5088 5.07882C95.6175 5.05709 95.7293 5.05698 95.838 5.07849C95.9467 5.09999 96.0501 5.1427 96.1423 5.20417C96.2345 5.26564 96.3137 5.34466 96.3754 5.43673C96.437 5.5288 96.4799 5.63211 96.5017 5.74077C96.5234 5.84943 96.5235 5.9613 96.502 6.07C96.4805 6.1787 96.4378 6.2821 96.3763 6.37429L95.5744 7.57727C95.4548 7.75672 95.4085 7.97516 95.4449 8.18773C95.4813 8.40029 95.5977 8.59084 95.7703 8.72023L96.5911 9.33606C97.1086 9.72439 97.4577 10.296 97.5669 10.9337C97.6762 11.5713 97.5372 12.2266 97.1785 12.765L96.3769 13.968C96.2998 14.0838 96.1952 14.1787 96.0725 14.2443C95.9498 14.3098 95.8128 14.344 95.6737 14.3437Z" fill="#E0E2E5"/>
<path d="M88.9237 14.3438C88.771 14.3437 88.6212 14.3022 88.4903 14.2236C88.3594 14.1451 88.2522 14.0325 88.1802 13.8978C88.1083 13.7632 88.0742 13.6115 88.0816 13.4591C88.089 13.3066 88.1377 13.1589 88.2224 13.0319L89.024 11.8289C89.1436 11.6495 89.19 11.4311 89.1536 11.2185C89.1172 11.0059 89.0007 10.8154 88.8282 10.686L88.0074 10.0701C87.49 9.68177 87.141 9.11009 87.0319 8.47247C86.9228 7.83485 87.0619 7.17965 87.4206 6.64136L88.2222 5.43828C88.3463 5.25208 88.5394 5.12282 88.7588 5.07894C88.9782 5.03506 89.2061 5.08015 89.3923 5.20429C89.5785 5.32843 89.7078 5.52145 89.7517 5.7409C89.7955 5.96034 89.7504 6.18822 89.6263 6.37442L88.8244 7.57739C88.7048 7.75685 88.6585 7.97529 88.6949 8.18785C88.7313 8.40042 88.8477 8.59096 89.0203 8.72036L89.8411 9.33619C90.3586 9.72451 90.7077 10.2962 90.8169 10.9338C90.9262 11.5714 90.7872 12.2267 90.4285 12.7651L89.6269 13.9682C89.5498 14.0839 89.4452 14.1788 89.3225 14.2444C89.1998 14.3099 89.0628 14.3441 88.9237 14.3438Z" fill="#E0E2E5"/>
<path d="M102.33 14.3437C102.177 14.3436 102.027 14.3021 101.897 14.2235C101.766 14.145 101.658 14.0324 101.586 13.8977C101.514 13.7631 101.48 13.6114 101.488 13.4589C101.495 13.3064 101.544 13.1588 101.629 13.0318L102.431 11.8288C102.55 11.6494 102.597 11.4309 102.56 11.2184C102.524 11.0058 102.407 10.8153 102.235 10.6859L101.414 10.0701C100.897 9.68182 100.547 9.11018 100.438 8.47254C100.329 7.8349 100.468 7.17964 100.827 6.64125L101.628 5.43817C101.752 5.25189 101.945 5.12255 102.165 5.07861C102.274 5.05686 102.385 5.05672 102.494 5.07821C102.603 5.0997 102.706 5.1424 102.799 5.20387C102.891 5.26534 102.97 5.34437 103.032 5.43646C103.093 5.52854 103.136 5.63188 103.158 5.74057C103.18 5.84925 103.18 5.96116 103.159 6.0699C103.137 6.17863 103.094 6.28207 103.033 6.37431L102.231 7.57729C102.112 7.75673 102.065 7.97516 102.102 8.18772C102.138 8.40029 102.255 8.59084 102.427 8.72025L103.248 9.33608C103.765 9.72437 104.115 10.296 104.224 10.9337C104.333 11.5713 104.194 12.2266 103.835 12.765L103.034 13.9681C102.957 14.0839 102.852 14.1789 102.729 14.2444C102.606 14.31 102.469 14.3441 102.33 14.3437Z" fill="#E0E2E5"/>
<path d="M123.469 25.3125H114.188C113.964 25.3125 113.749 25.2236 113.591 25.0654C113.433 24.9071 113.344 24.6925 113.344 24.4688C113.344 24.245 113.433 24.0304 113.591 23.8721C113.749 23.7139 113.964 23.625 114.188 23.625H123.469C123.693 23.625 123.907 23.7139 124.065 23.8721C124.224 24.0304 124.312 24.245 124.312 24.4688C124.312 24.6925 124.224 24.9071 124.065 25.0654C123.907 25.2236 123.693 25.3125 123.469 25.3125Z" fill="#E0E2E5"/>
<path d="M117.562 35.4375H112.5C112.276 35.4375 112.062 35.3486 111.903 35.1904C111.745 35.0321 111.656 34.8175 111.656 34.5938C111.656 34.37 111.745 34.1554 111.903 33.9971C112.062 33.8389 112.276 33.75 112.5 33.75H117.562C117.786 33.75 118.001 33.8389 118.159 33.9971C118.317 34.1554 118.406 34.37 118.406 34.5938C118.406 34.8175 118.317 35.0321 118.159 35.1904C118.001 35.3486 117.786 35.4375 117.562 35.4375Z" fill="#E0E2E5"/>
<path d="M123.469 48.9375H74.5312C74.3075 48.9375 74.0929 48.8486 73.9346 48.6904C73.7764 48.5321 73.6875 48.3175 73.6875 48.0938C73.6875 47.87 73.7764 47.6554 73.9346 47.4971C74.0929 47.3389 74.3075 47.25 74.5312 47.25H123.469C123.693 47.25 123.907 47.3389 124.065 47.4971C124.224 47.6554 124.312 47.87 124.312 48.0938C124.312 48.3175 124.224 48.5321 124.065 48.6904C123.907 48.8486 123.693 48.9375 123.469 48.9375Z" fill="#C2C5C6"/>
<path d="M74.5312 39.6562H116.719V41.3438C116.719 41.7913 116.541 42.2205 116.224 42.537C115.908 42.8535 115.479 43.0312 115.031 43.0312H76.2188C75.7712 43.0312 75.342 42.8535 75.0255 42.537C74.709 42.2205 74.5312 41.7913 74.5312 41.3438V39.6562Z" fill="#FDD14B"/>
<path d="M108.281 48.0938C111.077 48.0938 113.344 45.8272 113.344 43.0312C113.344 40.2353 111.077 37.9688 108.281 37.9688C105.485 37.9688 103.219 40.2353 103.219 43.0312C103.219 45.8272 105.485 48.0938 108.281 48.0938Z" fill="#6A7073"/>
<path d="M108.281 44.7188C109.213 44.7188 109.969 43.9632 109.969 43.0312C109.969 42.0993 109.213 41.3438 108.281 41.3438C107.349 41.3438 106.594 42.0993 106.594 43.0312C106.594 43.9632 107.349 44.7188 108.281 44.7188Z" fill="#99A2A7"/>
<path d="M82.9688 48.0938C85.7647 48.0938 88.0312 45.8272 88.0312 43.0312C88.0312 40.2353 85.7647 37.9688 82.9688 37.9688C80.1728 37.9688 77.9062 40.2353 77.9062 43.0312C77.9062 45.8272 80.1728 48.0938 82.9688 48.0938Z" fill="#6A7073"/>
<path d="M82.9688 44.7188C83.9007 44.7188 84.6562 43.9632 84.6562 43.0312C84.6562 42.0993 83.9007 41.3438 82.9688 41.3438C82.0368 41.3438 81.2812 42.0993 81.2812 43.0312C81.2812 43.9632 82.0368 44.7188 82.9688 44.7188Z" fill="#99A2A7"/>
<path d="M88.0312 36.2812H103.219V37.9688C103.219 38.4163 103.041 38.8455 102.724 39.162C102.408 39.4785 101.979 39.6562 101.531 39.6562H89.7188C89.2712 39.6562 88.842 39.4785 88.5255 39.162C88.209 38.8455 88.0312 38.4163 88.0312 37.9688V36.2812Z" fill="#EA8333"/>
<path d="M102.528 32.9062C103.376 32.9062 104.062 33.6617 104.062 34.5938C104.062 35.5258 103.376 36.2812 102.528 36.2812H88.7215C87.8743 36.2812 87.1875 35.5258 87.1875 34.5938C87.1875 33.6617 87.8743 32.9062 88.7215 32.9062H102.528Z" fill="#794832"/>
<path d="M88.875 29.5312H102.375V32.9062H88.875V29.5312Z" fill="#FDD14B"/>
<path d="M104.906 30.375C104.906 31.773 103.719 32.9063 102.254 32.9063C101.822 32.9096 101.395 32.8083 101.01 32.6112C100.626 32.4141 100.294 32.1269 100.044 31.774C99.7919 32.1243 99.46 32.4097 99.0759 32.6065C98.6917 32.8033 98.2662 32.9059 97.8346 32.9059C97.4029 32.9059 96.9775 32.8033 96.5933 32.6065C96.2091 32.4097 95.8772 32.1243 95.625 31.774C95.3728 32.1243 95.0409 32.4097 94.6567 32.6065C94.2725 32.8033 93.8471 32.9059 93.4154 32.9059C92.9838 32.9059 92.5583 32.8033 92.1741 32.6065C91.79 32.4097 91.4581 32.1243 91.2059 31.774C90.9559 32.1269 90.6244 32.4141 90.2395 32.6112C89.8547 32.8083 89.4279 32.9096 88.9956 32.9063C87.531 32.9063 86.3438 31.773 86.3438 30.375C86.3438 30.1512 86.4326 29.9366 86.5909 29.7784C86.7491 29.6201 86.9637 29.5312 87.1875 29.5312H104.062C104.286 29.5312 104.501 29.6201 104.659 29.7784C104.817 29.9366 104.906 30.1512 104.906 30.375Z" fill="#3BA673"/>
<path d="M103.219 22.7813V16.0313C103.219 15.8626 103.269 15.6979 103.364 15.5582C103.458 15.4186 103.593 15.3105 103.749 15.2478L107.968 13.5603C108.071 13.5192 108.181 13.4987 108.292 13.5001C108.402 13.5014 108.512 13.5246 108.614 13.5682C108.715 13.6119 108.808 13.6752 108.885 13.7545C108.963 13.8338 109.024 13.9275 109.065 14.0304C109.106 14.1333 109.126 14.2433 109.125 14.3541C109.124 14.4649 109.1 14.5743 109.057 14.6762C109.013 14.778 108.95 14.8703 108.871 14.9476C108.791 15.025 108.697 15.086 108.595 15.1272L104.906 16.6025V22.7813H103.219Z" fill="#E74444"/>
<path d="M103.219 19.4062H104.906V22.7812H103.219V19.4062Z" fill="#CE3536"/>
</svg>
