<svg width="198" height="141" viewBox="0 0 198 141" fill="none" xmlns="http://www.w3.org/2000/svg">
<path d="M46.62 82.62H41.94V88H39.4V74.52H47.3V76.58H41.94V80.56H46.62V82.62ZM51.6805 88H49.2605L49.2805 77.86H51.6805V79.66C52.1471 78.4067 53.0005 77.78 54.2405 77.78C54.5205 77.78 54.7471 77.8 54.9205 77.84V80.16C54.6138 80.0267 54.2738 79.96 53.9005 79.96C53.2471 79.96 52.7138 80.2267 52.3005 80.76C51.8871 81.2933 51.6805 81.96 51.6805 82.76V88ZM64.0713 87.44C63.3646 87.88 62.3446 88.1 61.0113 88.1C59.3979 88.1 58.1246 87.62 57.1913 86.66C56.2579 85.7 55.7913 84.46 55.7913 82.94C55.7913 81.3267 56.2313 80.06 57.1113 79.14C57.9913 78.22 59.0913 77.76 60.4113 77.76C61.7313 77.76 62.7779 78.16 63.5513 78.96C64.3246 79.76 64.7113 80.9267 64.7113 82.46C64.7113 82.8333 64.6646 83.3133 64.5713 83.9H58.2113C58.3846 84.6333 58.7446 85.1933 59.2913 85.58C59.8513 85.9667 60.5446 86.16 61.3713 86.16C62.4379 86.16 63.3379 85.8933 64.0713 85.36V87.44ZM60.4713 79.64C59.8979 79.64 59.3979 79.8533 58.9713 80.28C58.5579 80.6933 58.2913 81.3 58.1713 82.1H62.4313V81.8C62.4046 81.1467 62.2246 80.6267 61.8913 80.24C61.5713 79.84 61.0979 79.64 60.4713 79.64ZM74.6572 87.44C73.9505 87.88 72.9305 88.1 71.5972 88.1C69.9839 88.1 68.7105 87.62 67.7772 86.66C66.8439 85.7 66.3772 84.46 66.3772 82.94C66.3772 81.3267 66.8172 80.06 67.6972 79.14C68.5772 78.22 69.6772 77.76 70.9972 77.76C72.3172 77.76 73.3639 78.16 74.1372 78.96C74.9105 79.76 75.2972 80.9267 75.2972 82.46C75.2972 82.8333 75.2505 83.3133 75.1572 83.9H68.7972C68.9705 84.6333 69.3305 85.1933 69.8772 85.58C70.4372 85.9667 71.1305 86.16 71.9572 86.16C73.0239 86.16 73.9239 85.8933 74.6572 85.36V87.44ZM71.0572 79.64C70.4839 79.64 69.9839 79.8533 69.5572 80.28C69.1439 80.6933 68.8772 81.3 68.7572 82.1H73.0172V81.8C72.9905 81.1467 72.8105 80.6267 72.4772 80.24C72.1572 79.84 71.6839 79.64 71.0572 79.64ZM90.7041 84.22C90.7041 85.42 90.2707 86.38 89.4041 87.1C88.5507 87.8067 87.4241 88.16 86.0241 88.16C84.5041 88.16 83.2441 87.8733 82.2441 87.3V84.72C83.3907 85.5467 84.6441 85.96 86.0041 85.96C86.6174 85.96 87.1107 85.8133 87.4841 85.52C87.8574 85.2133 88.0441 84.8067 88.0441 84.3C88.0441 84.06 87.9974 83.8467 87.9041 83.66C87.8107 83.4733 87.6174 83.2867 87.3241 83.1C87.0441 82.9133 86.8241 82.78 86.6641 82.7C86.5174 82.62 86.2041 82.4733 85.7241 82.26C85.5907 82.1933 85.4907 82.1467 85.4241 82.12C84.9307 81.8933 84.5307 81.6933 84.2241 81.52C83.9174 81.3333 83.5841 81.0867 83.2241 80.78C82.8641 80.4733 82.5907 80.1067 82.4041 79.68C82.2307 79.2533 82.1441 78.7667 82.1441 78.22C82.1441 77.0733 82.5641 76.1533 83.4041 75.46C84.2574 74.7667 85.3841 74.42 86.7841 74.42C88.0507 74.42 89.1441 74.64 90.0641 75.08V77.52C89.0641 76.92 87.9974 76.62 86.8641 76.62C86.2374 76.62 85.7441 76.76 85.3841 77.04C85.0374 77.32 84.8641 77.68 84.8641 78.12C84.8641 78.56 85.0507 78.9267 85.4241 79.22C85.8107 79.5 86.3841 79.8133 87.1441 80.16C87.6774 80.4 88.1107 80.6133 88.4441 80.8C88.7774 80.9733 89.1374 81.22 89.5241 81.54C89.9241 81.86 90.2174 82.2467 90.4041 82.7C90.6041 83.14 90.7041 83.6467 90.7041 84.22ZM101.616 88H99.2156V81.78C99.2156 81.14 99.049 80.64 98.7156 80.28C98.3956 79.92 97.9756 79.74 97.4556 79.74C96.8823 79.74 96.3623 79.96 95.8956 80.4C95.4423 80.84 95.2156 81.56 95.2156 82.56V88H92.8156V73.86H95.2156V79.58C95.7623 78.3533 96.7956 77.74 98.3156 77.74C99.3023 77.74 100.096 78.0533 100.696 78.68C101.309 79.2933 101.616 80.1867 101.616 81.36V88ZM106.624 88H104.224V77.86H106.624V88ZM106.864 74.82C106.864 75.2333 106.724 75.58 106.444 75.86C106.164 76.14 105.824 76.28 105.424 76.28C105.024 76.28 104.684 76.14 104.404 75.86C104.124 75.58 103.984 75.2333 103.984 74.82C103.984 74.42 104.124 74.08 104.404 73.8C104.684 73.52 105.024 73.38 105.424 73.38C105.824 73.38 106.164 73.52 106.444 73.8C106.724 74.08 106.864 74.42 106.864 74.82ZM111.72 91.82H109.32V77.86H111.72V79.42C112.44 78.2867 113.473 77.72 114.82 77.72C116.14 77.72 117.186 78.1933 117.96 79.14C118.746 80.0867 119.14 81.3333 119.14 82.88C119.14 84.4 118.746 85.66 117.96 86.66C117.186 87.6467 116.133 88.14 114.8 88.14C113.44 88.14 112.413 87.5867 111.72 86.48V91.82ZM112.48 80.54C111.973 81.06 111.72 81.8333 111.72 82.86C111.72 83.8867 111.966 84.68 112.46 85.24C112.953 85.8 113.546 86.08 114.24 86.08C114.96 86.08 115.546 85.8067 116 85.26C116.453 84.7 116.68 83.92 116.68 82.92C116.68 81.92 116.453 81.1467 116 80.6C115.546 80.04 114.973 79.76 114.28 79.76C113.586 79.76 112.986 80.02 112.48 80.54ZM123.595 91.82H121.195V77.86H123.595V79.42C124.315 78.2867 125.348 77.72 126.695 77.72C128.015 77.72 129.061 78.1933 129.835 79.14C130.621 80.0867 131.015 81.3333 131.015 82.88C131.015 84.4 130.621 85.66 129.835 86.66C129.061 87.6467 128.008 88.14 126.675 88.14C125.315 88.14 124.288 87.5867 123.595 86.48V91.82ZM124.355 80.54C123.848 81.06 123.595 81.8333 123.595 82.86C123.595 83.8867 123.841 84.68 124.335 85.24C124.828 85.8 125.421 86.08 126.115 86.08C126.835 86.08 127.421 85.8067 127.875 85.26C128.328 84.7 128.555 83.92 128.555 82.92C128.555 81.92 128.328 81.1467 127.875 80.6C127.421 80.04 126.848 79.76 126.155 79.76C125.461 79.76 124.861 80.02 124.355 80.54ZM135.57 88H133.17V77.86H135.57V88ZM135.81 74.82C135.81 75.2333 135.67 75.58 135.39 75.86C135.11 76.14 134.77 76.28 134.37 76.28C133.97 76.28 133.63 76.14 133.35 75.86C133.07 75.58 132.93 75.2333 132.93 74.82C132.93 74.42 133.07 74.08 133.35 73.8C133.63 73.52 133.97 73.38 134.37 73.38C134.77 73.38 135.11 73.52 135.39 73.8C135.67 74.08 135.81 74.42 135.81 74.82ZM147.065 88H144.665V81.76C144.665 81.0933 144.505 80.5933 144.185 80.26C143.865 79.9133 143.432 79.74 142.885 79.74C142.258 79.74 141.732 79.9867 141.305 80.48C140.878 80.96 140.665 81.6533 140.665 82.56V88H138.265V77.86H140.665V79.6C141.238 78.36 142.278 77.74 143.785 77.74C144.798 77.74 145.598 78.0467 146.185 78.66C146.772 79.2733 147.065 80.14 147.065 81.26V88ZM158.513 87.08C158.513 88.68 158.047 89.88 157.113 90.68C156.193 91.4933 155.02 91.9 153.593 91.9C152.26 91.9 151.093 91.66 150.093 91.18V88.74C151 89.38 152.087 89.7 153.353 89.7C155.193 89.7 156.113 88.82 156.113 87.06V86.18C155.5 87.18 154.54 87.68 153.233 87.68C152.1 87.68 151.127 87.2667 150.313 86.44C149.513 85.6 149.113 84.3867 149.113 82.8C149.113 81.3333 149.493 80.1267 150.253 79.18C151.027 78.22 152.04 77.74 153.293 77.74C154.56 77.74 155.5 78.2667 156.113 79.32V77.86H158.513V87.08ZM151.613 82.8C151.613 83.7467 151.82 84.4733 152.233 84.98C152.647 85.4733 153.173 85.72 153.813 85.72C154.467 85.72 155.013 85.4667 155.453 84.96C155.893 84.44 156.113 83.7667 156.113 82.94C156.113 81.86 155.9 81.0667 155.473 80.56C155.047 80.0533 154.507 79.8 153.853 79.8C153.16 79.8 152.613 80.0733 152.213 80.62C151.813 81.1533 151.613 81.88 151.613 82.8Z" fill="black"/>
<path opacity="0.6" d="M7.56496 119H2.41296V109.564H3.54696V117.978H7.56496V119ZM11.1988 118.146C11.7028 118.146 12.1042 118.006 12.4028 117.726C12.7015 117.437 12.8508 117.073 12.8508 116.634V115.724H11.6188C11.0215 115.724 10.5735 115.841 10.2748 116.074C9.97617 116.307 9.82684 116.601 9.82684 116.956C9.82684 117.311 9.9435 117.6 10.1768 117.824C10.4102 118.039 10.7508 118.146 11.1988 118.146ZM12.8648 118.16C12.5008 118.767 11.8382 119.07 10.8768 119.07C10.2142 119.07 9.6775 118.874 9.26684 118.482C8.8655 118.09 8.66484 117.595 8.66484 116.998C8.66484 116.317 8.9215 115.789 9.43484 115.416C9.9575 115.033 10.6668 114.842 11.5628 114.842H12.8508V114.478C12.8508 113.918 12.7248 113.498 12.4728 113.218C12.2208 112.929 11.7962 112.784 11.1988 112.784C10.4428 112.784 9.77084 112.985 9.18284 113.386V112.28C9.71484 111.953 10.4148 111.79 11.2828 111.79C13.0655 111.79 13.9568 112.695 13.9568 114.506V119H12.8648V118.16ZM20.1895 117.11C20.1895 117.717 19.9748 118.197 19.5455 118.552C19.1255 118.907 18.5468 119.084 17.8095 119.084C16.9508 119.084 16.2555 118.939 15.7235 118.65V117.572C16.3488 117.945 17.0208 118.132 17.7395 118.132C18.1688 118.132 18.4955 118.048 18.7195 117.88C18.9435 117.712 19.0555 117.483 19.0555 117.194C19.0555 116.858 18.9295 116.597 18.6775 116.41C18.4348 116.223 18.0241 116.013 17.4455 115.78C16.9135 115.575 16.4841 115.318 16.1575 115.01C15.8401 114.702 15.6815 114.287 15.6815 113.764C15.6815 113.176 15.9008 112.709 16.3395 112.364C16.7875 112.009 17.3428 111.832 18.0055 111.832C18.7428 111.832 19.3355 111.935 19.7835 112.14V113.19C19.3541 112.929 18.7661 112.798 18.0195 112.798C17.6461 112.798 17.3475 112.887 17.1235 113.064C16.9088 113.232 16.8015 113.451 16.8015 113.722C16.8015 113.89 16.8341 114.039 16.8995 114.17C16.9648 114.291 17.0908 114.413 17.2775 114.534C17.4735 114.655 17.6135 114.739 17.6975 114.786C17.7908 114.823 17.9868 114.907 18.2855 115.038C18.8828 115.281 19.3495 115.556 19.6855 115.864C20.0215 116.172 20.1895 116.587 20.1895 117.11ZM25.245 118.818C24.937 118.986 24.5917 119.07 24.209 119.07C22.809 119.07 22.109 118.356 22.109 116.928V112.798H20.975V111.902H22.109V110.138H23.215V111.902H25.175V112.798H23.215V116.956C23.215 117.712 23.5697 118.09 24.279 118.09C24.643 118.09 24.965 117.983 25.245 117.768V118.818ZM37.0929 118.524C36.5143 118.916 35.7209 119.112 34.7129 119.112C33.2943 119.112 32.1416 118.678 31.2549 117.81C30.3683 116.933 29.9249 115.743 29.9249 114.24C29.9249 112.821 30.3729 111.669 31.2689 110.782C32.1743 109.886 33.3083 109.438 34.6709 109.438C35.6509 109.438 36.4489 109.606 37.0649 109.942V111.104C36.6543 110.889 36.2856 110.735 35.9589 110.642C35.6323 110.549 35.2029 110.502 34.6709 110.502C33.6536 110.502 32.8043 110.847 32.1229 111.538C31.4509 112.229 31.1149 113.129 31.1149 114.24C31.1149 115.397 31.4509 116.321 32.1229 117.012C32.7949 117.703 33.6863 118.048 34.7969 118.048C35.6929 118.048 36.4583 117.81 37.0929 117.334V118.524ZM44.2968 119H43.1908V114.408C43.1908 113.895 43.0555 113.498 42.7848 113.218C42.5235 112.938 42.1781 112.798 41.7488 112.798C41.2261 112.798 40.7688 112.999 40.3768 113.4C39.9848 113.801 39.7888 114.375 39.7888 115.122V119H38.6968V109.102H39.7888V113.134C40.2088 112.247 40.9555 111.804 42.0288 111.804C42.7101 111.804 43.2561 112.014 43.6668 112.434C44.0868 112.854 44.2968 113.423 44.2968 114.142V119ZM48.4274 118.146C48.9314 118.146 49.3327 118.006 49.6314 117.726C49.93 117.437 50.0794 117.073 50.0794 116.634V115.724H48.8474C48.25 115.724 47.802 115.841 47.5034 116.074C47.2047 116.307 47.0554 116.601 47.0554 116.956C47.0554 117.311 47.172 117.6 47.4054 117.824C47.6387 118.039 47.9794 118.146 48.4274 118.146ZM50.0934 118.16C49.7294 118.767 49.0667 119.07 48.1054 119.07C47.4427 119.07 46.906 118.874 46.4954 118.482C46.094 118.09 45.8934 117.595 45.8934 116.998C45.8934 116.317 46.15 115.789 46.6634 115.416C47.186 115.033 47.8954 114.842 48.7914 114.842H50.0794V114.478C50.0794 113.918 49.9534 113.498 49.7014 113.218C49.4494 112.929 49.0247 112.784 48.4274 112.784C47.6714 112.784 46.9994 112.985 46.4114 113.386V112.28C46.9434 111.953 47.6434 111.79 48.5114 111.79C50.294 111.79 51.1854 112.695 51.1854 114.506V119H50.0934V118.16ZM58.748 119H57.642V114.408C57.642 113.885 57.5066 113.489 57.236 113.218C56.9746 112.938 56.6293 112.798 56.2 112.798C55.668 112.798 55.206 113.003 54.814 113.414C54.4313 113.825 54.24 114.394 54.24 115.122V119H53.148V111.902H54.24V113.134C54.66 112.247 55.4066 111.804 56.48 111.804C57.1706 111.804 57.7213 112.014 58.132 112.434C58.5426 112.854 58.748 113.414 58.748 114.114V119ZM65.5945 118.748C65.1465 119.019 64.5959 119.154 63.9425 119.154C62.8225 119.154 61.9312 118.799 61.2685 118.09C60.6152 117.371 60.2885 116.499 60.2885 115.472C60.2885 114.464 60.6152 113.596 61.2685 112.868C61.9312 112.14 62.8319 111.776 63.9705 111.776C64.5772 111.776 65.1185 111.907 65.5945 112.168V113.218C65.1652 112.929 64.6612 112.784 64.0825 112.784C63.2799 112.784 62.6359 113.045 62.1505 113.568C61.6745 114.081 61.4365 114.721 61.4365 115.486C61.4459 116.251 61.6792 116.891 62.1365 117.404C62.5939 117.908 63.2425 118.16 64.0825 118.16C64.6239 118.16 65.1279 118.006 65.5945 117.698V118.748ZM72.4784 118.636C71.9277 118.925 71.2557 119.07 70.4624 119.07C69.389 119.07 68.521 118.743 67.8584 118.09C67.205 117.427 66.8784 116.555 66.8784 115.472C66.8784 114.343 67.1724 113.451 67.7604 112.798C68.3484 112.145 69.1044 111.818 70.0284 111.818C70.915 111.818 71.6197 112.103 72.1424 112.672C72.665 113.241 72.9264 114.049 72.9264 115.094C72.9264 115.393 72.903 115.668 72.8564 115.92H68.0124C68.0964 116.62 68.3624 117.157 68.8104 117.53C69.2584 117.903 69.8464 118.09 70.5744 118.09C71.3677 118.09 72.0024 117.927 72.4784 117.6V118.636ZM70.0284 112.784C69.4964 112.784 69.0437 112.975 68.6704 113.358C68.297 113.741 68.0777 114.287 68.0124 114.996H71.8204V114.716C71.8204 114.128 71.6617 113.661 71.3444 113.316C71.027 112.961 70.5884 112.784 70.0284 112.784ZM75.8868 116.144H74.8088V109.564H75.8868V116.144ZM76.1668 118.286C76.1668 118.519 76.0875 118.715 75.9288 118.874C75.7702 119.033 75.5695 119.112 75.3268 119.112C75.0842 119.112 74.8835 119.033 74.7248 118.874C74.5755 118.715 74.5008 118.519 74.5008 118.286C74.5008 118.062 74.5802 117.871 74.7388 117.712C74.8975 117.544 75.0935 117.46 75.3268 117.46C75.5602 117.46 75.7562 117.544 75.9148 117.712C76.0828 117.871 76.1668 118.062 76.1668 118.286ZM86.2905 114.898H82.7345V119H81.6005V109.564H86.7805V110.558H82.7345V113.904H86.2905V114.898ZM89.4861 119H88.3801L88.3941 111.902H89.4861V113.148C89.8594 112.271 90.5034 111.832 91.4181 111.832C91.5861 111.832 91.7167 111.841 91.8101 111.86V112.952C91.6141 112.887 91.4134 112.854 91.2081 112.854C90.7134 112.854 90.3027 113.083 89.9761 113.54C89.6494 113.997 89.4861 114.525 89.4861 115.122V119ZM98.1405 118.636C97.5898 118.925 96.9178 119.07 96.1245 119.07C95.0511 119.07 94.1831 118.743 93.5205 118.09C92.8671 117.427 92.5405 116.555 92.5405 115.472C92.5405 114.343 92.8345 113.451 93.4225 112.798C94.0105 112.145 94.7665 111.818 95.6905 111.818C96.5771 111.818 97.2818 112.103 97.8045 112.672C98.3271 113.241 98.5885 114.049 98.5885 115.094C98.5885 115.393 98.5651 115.668 98.5185 115.92H93.6745C93.7585 116.62 94.0245 117.157 94.4725 117.53C94.9205 117.903 95.5085 118.09 96.2365 118.09C97.0298 118.09 97.6645 117.927 98.1405 117.6V118.636ZM95.6905 112.784C95.1585 112.784 94.7058 112.975 94.3325 113.358C93.9591 113.741 93.7398 114.287 93.6745 114.996H97.4825V114.716C97.4825 114.128 97.3238 113.661 97.0065 113.316C96.6891 112.961 96.2505 112.784 95.6905 112.784ZM105.455 118.636C104.904 118.925 104.232 119.07 103.439 119.07C102.366 119.07 101.498 118.743 100.835 118.09C100.182 117.427 99.8549 116.555 99.8549 115.472C99.8549 114.343 100.149 113.451 100.737 112.798C101.325 112.145 102.081 111.818 103.005 111.818C103.892 111.818 104.596 112.103 105.119 112.672C105.642 113.241 105.903 114.049 105.903 115.094C105.903 115.393 105.88 115.668 105.833 115.92H100.989C101.073 116.62 101.339 117.157 101.787 117.53C102.235 117.903 102.823 118.09 103.551 118.09C104.344 118.09 104.979 117.927 105.455 117.6V118.636ZM103.005 112.784C102.473 112.784 102.02 112.975 101.647 113.358C101.274 113.741 101.054 114.287 100.989 114.996H104.797V114.716C104.797 114.128 104.638 113.661 104.321 113.316C104.004 112.961 103.565 112.784 103.005 112.784ZM115.277 117.11C115.277 117.717 115.063 118.197 114.633 118.552C114.213 118.907 113.635 119.084 112.897 119.084C112.039 119.084 111.343 118.939 110.811 118.65V117.572C111.437 117.945 112.109 118.132 112.827 118.132C113.257 118.132 113.583 118.048 113.807 117.88C114.031 117.712 114.143 117.483 114.143 117.194C114.143 116.858 114.017 116.597 113.765 116.41C113.523 116.223 113.112 116.013 112.533 115.78C112.001 115.575 111.572 115.318 111.245 115.01C110.928 114.702 110.769 114.287 110.769 113.764C110.769 113.176 110.989 112.709 111.427 112.364C111.875 112.009 112.431 111.832 113.093 111.832C113.831 111.832 114.423 111.935 114.871 112.14V113.19C114.442 112.929 113.854 112.798 113.107 112.798C112.734 112.798 112.435 112.887 112.211 113.064C111.997 113.232 111.889 113.451 111.889 113.722C111.889 113.89 111.922 114.039 111.987 114.17C112.053 114.291 112.179 114.413 112.365 114.534C112.561 114.655 112.701 114.739 112.785 114.786C112.879 114.823 113.075 114.907 113.373 115.038C113.971 115.281 114.437 115.556 114.773 115.864C115.109 116.172 115.277 116.587 115.277 117.11ZM122.377 119H121.271V114.408C121.271 113.895 121.136 113.498 120.865 113.218C120.604 112.938 120.258 112.798 119.829 112.798C119.306 112.798 118.849 112.999 118.457 113.4C118.065 113.801 117.869 114.375 117.869 115.122V119H116.777V109.102H117.869V113.134C118.289 112.247 119.036 111.804 120.109 111.804C120.79 111.804 121.336 112.014 121.747 112.434C122.167 112.854 122.377 113.423 122.377 114.142V119ZM125.499 119H124.393V111.902H125.499V119ZM125.457 109.158C125.597 109.298 125.667 109.471 125.667 109.676C125.667 109.881 125.597 110.054 125.457 110.194C125.317 110.325 125.145 110.39 124.939 110.39C124.734 110.39 124.561 110.325 124.421 110.194C124.291 110.054 124.225 109.881 124.225 109.676C124.225 109.471 124.291 109.298 124.421 109.158C124.561 109.018 124.734 108.948 124.939 108.948C125.145 108.948 125.317 109.018 125.457 109.158ZM128.697 121.758H127.605V111.902H128.697V112.98C129.192 112.187 129.924 111.79 130.895 111.79C131.838 111.79 132.575 112.135 133.107 112.826C133.648 113.507 133.919 114.361 133.919 115.388C133.919 116.48 133.634 117.376 133.065 118.076C132.505 118.767 131.772 119.112 130.867 119.112C129.934 119.112 129.21 118.715 128.697 117.922V121.758ZM128.697 115.458C128.697 116.363 128.907 117.031 129.327 117.46C129.747 117.889 130.214 118.104 130.727 118.104C131.324 118.104 131.814 117.871 132.197 117.404C132.58 116.928 132.771 116.256 132.771 115.388C132.771 114.613 132.584 113.988 132.211 113.512C131.838 113.036 131.366 112.798 130.797 112.798C130.228 112.798 129.733 113.008 129.313 113.428C128.902 113.839 128.697 114.515 128.697 115.458ZM136.64 121.758H135.548V111.902H136.64V112.98C137.135 112.187 137.868 111.79 138.838 111.79C139.781 111.79 140.518 112.135 141.05 112.826C141.592 113.507 141.862 114.361 141.862 115.388C141.862 116.48 141.578 117.376 141.008 118.076C140.448 118.767 139.716 119.112 138.81 119.112C137.877 119.112 137.154 118.715 136.64 117.922V121.758ZM136.64 115.458C136.64 116.363 136.85 117.031 137.27 117.46C137.69 117.889 138.157 118.104 138.67 118.104C139.268 118.104 139.758 117.871 140.14 117.404C140.523 116.928 140.714 116.256 140.714 115.388C140.714 114.613 140.528 113.988 140.154 113.512C139.781 113.036 139.31 112.798 138.74 112.798C138.171 112.798 137.676 113.008 137.256 113.428C136.846 113.839 136.64 114.515 136.64 115.458ZM144.654 119H143.548V111.902H144.654V119ZM144.612 109.158C144.752 109.298 144.822 109.471 144.822 109.676C144.822 109.881 144.752 110.054 144.612 110.194C144.472 110.325 144.299 110.39 144.094 110.39C143.888 110.39 143.716 110.325 143.576 110.194C143.445 110.054 143.38 109.881 143.38 109.676C143.38 109.471 143.445 109.298 143.576 109.158C143.716 109.018 143.888 108.948 144.094 108.948C144.299 108.948 144.472 109.018 144.612 109.158ZM152.359 119H151.253V114.408C151.253 113.885 151.118 113.489 150.847 113.218C150.586 112.938 150.241 112.798 149.811 112.798C149.279 112.798 148.817 113.003 148.425 113.414C148.043 113.825 147.851 114.394 147.851 115.122V119H146.759V111.902H147.851V113.134C148.271 112.247 149.018 111.804 150.091 111.804C150.782 111.804 151.333 112.014 151.743 112.434C152.154 112.854 152.359 113.414 152.359 114.114V119ZM160.046 118.426C160.046 119.509 159.747 120.321 159.15 120.862C158.553 121.413 157.783 121.688 156.84 121.688C155.981 121.688 155.249 121.543 154.642 121.254V120.148C155.239 120.493 155.939 120.666 156.742 120.666C157.423 120.666 157.96 120.484 158.352 120.12C158.744 119.756 158.94 119.187 158.94 118.412V117.614C158.473 118.417 157.778 118.818 156.854 118.818C156.042 118.818 155.347 118.519 154.768 117.922C154.199 117.325 153.914 116.494 153.914 115.43C153.914 114.375 154.18 113.507 154.712 112.826C155.244 112.145 155.939 111.804 156.798 111.804C157.769 111.804 158.483 112.229 158.94 113.078V111.902H160.046V118.426ZM155.062 115.402C155.062 116.195 155.258 116.802 155.65 117.222C156.042 117.633 156.485 117.838 156.98 117.838C157.493 117.838 157.946 117.642 158.338 117.25C158.739 116.849 158.94 116.256 158.94 115.472C158.94 114.567 158.749 113.895 158.366 113.456C157.983 113.017 157.54 112.798 157.036 112.798C156.429 112.798 155.949 113.041 155.594 113.526C155.239 114.002 155.062 114.627 155.062 115.402ZM171.665 115.472C171.665 116.527 171.367 117.399 170.769 118.09C170.172 118.781 169.351 119.126 168.305 119.126C167.288 119.126 166.481 118.785 165.883 118.104C165.295 117.413 165.001 116.545 165.001 115.5C165.001 114.445 165.305 113.568 165.911 112.868C166.527 112.159 167.325 111.804 168.305 111.804C169.379 111.804 170.205 112.149 170.783 112.84C171.371 113.531 171.665 114.408 171.665 115.472ZM166.149 115.486C166.149 116.223 166.345 116.853 166.737 117.376C167.129 117.889 167.652 118.146 168.305 118.146C169.015 118.146 169.561 117.894 169.943 117.39C170.326 116.877 170.517 116.242 170.517 115.486C170.517 114.702 170.335 114.058 169.971 113.554C169.607 113.041 169.052 112.784 168.305 112.784C167.633 112.784 167.106 113.045 166.723 113.568C166.341 114.091 166.149 114.73 166.149 115.486ZM178.883 119H177.777V114.408C177.777 113.885 177.641 113.489 177.371 113.218C177.109 112.938 176.764 112.798 176.335 112.798C175.803 112.798 175.341 113.003 174.949 113.414C174.566 113.825 174.375 114.394 174.375 115.122V119H173.283V111.902H174.375V113.134C174.795 112.247 175.541 111.804 176.615 111.804C177.305 111.804 177.856 112.014 178.267 112.434C178.677 112.854 178.883 113.414 178.883 114.114V119ZM186.431 118.146C186.935 118.146 187.337 118.006 187.635 117.726C187.934 117.437 188.083 117.073 188.083 116.634V115.724H186.851C186.254 115.724 185.806 115.841 185.507 116.074C185.209 116.307 185.059 116.601 185.059 116.956C185.059 117.311 185.176 117.6 185.409 117.824C185.643 118.039 185.983 118.146 186.431 118.146ZM188.097 118.16C187.733 118.767 187.071 119.07 186.109 119.07C185.447 119.07 184.91 118.874 184.499 118.482C184.098 118.09 183.897 117.595 183.897 116.998C183.897 116.317 184.154 115.789 184.667 115.416C185.19 115.033 185.899 114.842 186.795 114.842H188.083V114.478C188.083 113.918 187.957 113.498 187.705 113.218C187.453 112.929 187.029 112.784 186.431 112.784C185.675 112.784 185.003 112.985 184.415 113.386V112.28C184.947 111.953 185.647 111.79 186.515 111.79C188.298 111.79 189.189 112.695 189.189 114.506V119H188.097V118.16ZM192.314 119H191.208V109.102H192.314V119ZM195.581 119H194.475V109.102H195.581V119ZM50.9974 134.472C50.9974 135.527 50.6988 136.399 50.1014 137.09C49.5041 137.781 48.6828 138.126 47.6374 138.126C46.6201 138.126 45.8128 137.785 45.2154 137.104C44.6274 136.413 44.3334 135.545 44.3334 134.5C44.3334 133.445 44.6368 132.568 45.2434 131.868C45.8594 131.159 46.6574 130.804 47.6374 130.804C48.7108 130.804 49.5368 131.149 50.1154 131.84C50.7034 132.531 50.9974 133.408 50.9974 134.472ZM45.4814 134.486C45.4814 135.223 45.6774 135.853 46.0694 136.376C46.4614 136.889 46.9841 137.146 47.6374 137.146C48.3468 137.146 48.8928 136.894 49.2754 136.39C49.6581 135.877 49.8494 135.242 49.8494 134.486C49.8494 133.702 49.6674 133.058 49.3034 132.554C48.9394 132.041 48.3841 131.784 47.6374 131.784C46.9654 131.784 46.4381 132.045 46.0554 132.568C45.6728 133.091 45.4814 133.73 45.4814 134.486ZM53.7068 138H52.6008L52.6148 130.902H53.7068V132.148C54.0801 131.271 54.7241 130.832 55.6388 130.832C55.8068 130.832 55.9374 130.841 56.0308 130.86V131.952C55.8348 131.887 55.6341 131.854 55.4288 131.854C54.9341 131.854 54.5234 132.083 54.1968 132.54C53.8701 132.997 53.7068 133.525 53.7068 134.122V138ZM57.9092 134.528C57.9092 135.293 58.0958 135.914 58.4692 136.39C58.8425 136.866 59.3138 137.104 59.8832 137.104C60.4618 137.104 60.9518 136.889 61.3532 136.46C61.7638 136.031 61.9692 135.345 61.9692 134.402C61.9692 133.506 61.7592 132.848 61.3392 132.428C60.9192 132.008 60.4572 131.798 59.9532 131.798C59.3652 131.798 58.8752 132.036 58.4832 132.512C58.1005 132.979 57.9092 133.651 57.9092 134.528ZM63.0752 138H61.9692V136.95C61.4652 137.725 60.7372 138.112 59.7852 138.112C58.8425 138.112 58.1005 137.762 57.5592 137.062C57.0272 136.362 56.7612 135.513 56.7612 134.514C56.7612 133.403 57.0458 132.507 57.6152 131.826C58.1845 131.135 58.9172 130.79 59.8132 130.79C60.7372 130.79 61.4558 131.187 61.9692 131.98V128.102H63.0752V138ZM70.3045 137.636C69.7539 137.925 69.0819 138.07 68.2885 138.07C67.2152 138.07 66.3472 137.743 65.6845 137.09C65.0312 136.427 64.7045 135.555 64.7045 134.472C64.7045 133.343 64.9985 132.451 65.5865 131.798C66.1745 131.145 66.9305 130.818 67.8545 130.818C68.7412 130.818 69.4459 131.103 69.9685 131.672C70.4912 132.241 70.7525 133.049 70.7525 134.094C70.7525 134.393 70.7292 134.668 70.6825 134.92H65.8385C65.9225 135.62 66.1885 136.157 66.6365 136.53C67.0845 136.903 67.6725 137.09 68.4005 137.09C69.1939 137.09 69.8285 136.927 70.3045 136.6V137.636ZM67.8545 131.784C67.3225 131.784 66.8699 131.975 66.4965 132.358C66.1232 132.741 65.9039 133.287 65.8385 133.996H69.6465V133.716C69.6465 133.128 69.4879 132.661 69.1705 132.316C68.8532 131.961 68.4145 131.784 67.8545 131.784ZM73.531 138H72.425L72.439 130.902H73.531V132.148C73.9043 131.271 74.5483 130.832 75.463 130.832C75.631 130.832 75.7617 130.841 75.855 130.86V131.952C75.659 131.887 75.4583 131.854 75.253 131.854C74.7583 131.854 74.3477 132.083 74.021 132.54C73.6943 132.997 73.531 133.525 73.531 134.122V138ZM81.2754 136.11C81.2754 136.717 81.0607 137.197 80.6314 137.552C80.2114 137.907 79.6327 138.084 78.8954 138.084C78.0367 138.084 77.3414 137.939 76.8094 137.65V136.572C77.4347 136.945 78.1067 137.132 78.8254 137.132C79.2547 137.132 79.5814 137.048 79.8054 136.88C80.0294 136.712 80.1414 136.483 80.1414 136.194C80.1414 135.858 80.0154 135.597 79.7634 135.41C79.5207 135.223 79.1101 135.013 78.5314 134.78C77.9994 134.575 77.5701 134.318 77.2434 134.01C76.9261 133.702 76.7674 133.287 76.7674 132.764C76.7674 132.176 76.9867 131.709 77.4254 131.364C77.8734 131.009 78.4287 130.832 79.0914 130.832C79.8287 130.832 80.4214 130.935 80.8694 131.14V132.19C80.4401 131.929 79.8521 131.798 79.1054 131.798C78.7321 131.798 78.4334 131.887 78.2094 132.064C77.9947 132.232 77.8874 132.451 77.8874 132.722C77.8874 132.89 77.9201 133.039 77.9854 133.17C78.0507 133.291 78.1767 133.413 78.3634 133.534C78.5594 133.655 78.6994 133.739 78.7834 133.786C78.8767 133.823 79.0727 133.907 79.3714 134.038C79.9687 134.281 80.4354 134.556 80.7714 134.864C81.1074 135.172 81.2754 135.587 81.2754 136.11ZM91.3729 137.636C90.8222 137.925 90.1502 138.07 89.3569 138.07C88.2836 138.07 87.4156 137.743 86.7529 137.09C86.0996 136.427 85.7729 135.555 85.7729 134.472C85.7729 133.343 86.0669 132.451 86.6549 131.798C87.2429 131.145 87.9989 130.818 88.9229 130.818C89.8096 130.818 90.5142 131.103 91.0369 131.672C91.5596 132.241 91.8209 133.049 91.8209 134.094C91.8209 134.393 91.7976 134.668 91.7509 134.92H86.9069C86.9909 135.62 87.2569 136.157 87.7049 136.53C88.1529 136.903 88.7409 137.09 89.4689 137.09C90.2622 137.09 90.8969 136.927 91.3729 136.6V137.636ZM88.9229 131.784C88.3909 131.784 87.9382 131.975 87.5649 132.358C87.1916 132.741 86.9722 133.287 86.9069 133.996H90.7149V133.716C90.7149 133.128 90.5562 132.661 90.2389 132.316C89.9216 131.961 89.4829 131.784 88.9229 131.784ZM99.1074 138H98.0014V133.408C98.0014 132.885 97.866 132.489 97.5954 132.218C97.334 131.938 96.9887 131.798 96.5594 131.798C96.0274 131.798 95.5654 132.003 95.1734 132.414C94.7907 132.825 94.5994 133.394 94.5994 134.122V138H93.5074V130.902H94.5994V132.134C95.0194 131.247 95.766 130.804 96.8394 130.804C97.53 130.804 98.0807 131.014 98.4914 131.434C98.902 131.854 99.1074 132.414 99.1074 133.114V138ZM101.796 134.528C101.796 135.293 101.983 135.914 102.356 136.39C102.729 136.866 103.201 137.104 103.77 137.104C104.349 137.104 104.839 136.889 105.24 136.46C105.651 136.031 105.856 135.345 105.856 134.402C105.856 133.506 105.646 132.848 105.226 132.428C104.806 132.008 104.344 131.798 103.84 131.798C103.252 131.798 102.762 132.036 102.37 132.512C101.987 132.979 101.796 133.651 101.796 134.528ZM106.962 138H105.856V136.95C105.352 137.725 104.624 138.112 103.672 138.112C102.729 138.112 101.987 137.762 101.446 137.062C100.914 136.362 100.648 135.513 100.648 134.514C100.648 133.403 100.933 132.507 101.502 131.826C102.071 131.135 102.804 130.79 103.7 130.79C104.624 130.79 105.343 131.187 105.856 131.98V128.102H106.962V138ZM113.281 136.11C113.281 136.717 113.067 137.197 112.637 137.552C112.217 137.907 111.639 138.084 110.901 138.084C110.043 138.084 109.347 137.939 108.815 137.65V136.572C109.441 136.945 110.113 137.132 110.831 137.132C111.261 137.132 111.587 137.048 111.811 136.88C112.035 136.712 112.147 136.483 112.147 136.194C112.147 135.858 112.021 135.597 111.769 135.41C111.527 135.223 111.116 135.013 110.537 134.78C110.005 134.575 109.576 134.318 109.249 134.01C108.932 133.702 108.773 133.287 108.773 132.764C108.773 132.176 108.993 131.709 109.431 131.364C109.879 131.009 110.435 130.832 111.097 130.832C111.835 130.832 112.427 130.935 112.875 131.14V132.19C112.446 131.929 111.858 131.798 111.111 131.798C110.738 131.798 110.439 131.887 110.215 132.064C110.001 132.232 109.893 132.451 109.893 132.722C109.893 132.89 109.926 133.039 109.991 133.17C110.057 133.291 110.183 133.413 110.369 133.534C110.565 133.655 110.705 133.739 110.789 133.786C110.883 133.823 111.079 133.907 111.377 134.038C111.975 134.281 112.441 134.556 112.777 134.864C113.113 135.172 113.281 135.587 113.281 136.11ZM121.755 137.818C121.447 137.986 121.101 138.07 120.719 138.07C119.319 138.07 118.619 137.356 118.619 135.928V131.798H117.485V130.902H118.619V129.138H119.725V130.902H121.685V131.798H119.725V135.956C119.725 136.712 120.079 137.09 120.789 137.09C121.153 137.09 121.475 136.983 121.755 136.768V137.818ZM129.611 134.472C129.611 135.527 129.312 136.399 128.715 137.09C128.117 137.781 127.296 138.126 126.251 138.126C125.233 138.126 124.426 137.785 123.829 137.104C123.241 136.413 122.947 135.545 122.947 134.5C122.947 133.445 123.25 132.568 123.857 131.868C124.473 131.159 125.271 130.804 126.251 130.804C127.324 130.804 128.15 131.149 128.729 131.84C129.317 132.531 129.611 133.408 129.611 134.472ZM124.095 134.486C124.095 135.223 124.291 135.853 124.683 136.376C125.075 136.889 125.597 137.146 126.251 137.146C126.96 137.146 127.506 136.894 127.889 136.39C128.271 135.877 128.463 135.242 128.463 134.486C128.463 133.702 128.281 133.058 127.917 132.554C127.553 132.041 126.997 131.784 126.251 131.784C125.579 131.784 125.051 132.045 124.669 132.568C124.286 133.091 124.095 133.73 124.095 134.486ZM131.956 134.528C131.956 135.293 132.143 135.914 132.516 136.39C132.889 136.866 133.361 137.104 133.93 137.104C134.509 137.104 134.999 136.889 135.4 136.46C135.811 136.031 136.016 135.345 136.016 134.402C136.016 133.506 135.806 132.848 135.386 132.428C134.966 132.008 134.504 131.798 134 131.798C133.412 131.798 132.922 132.036 132.53 132.512C132.147 132.979 131.956 133.651 131.956 134.528ZM137.122 138H136.016V136.95C135.512 137.725 134.784 138.112 133.832 138.112C132.889 138.112 132.147 137.762 131.606 137.062C131.074 136.362 130.808 135.513 130.808 134.514C130.808 133.403 131.093 132.507 131.662 131.826C132.231 131.135 132.964 130.79 133.86 130.79C134.784 130.79 135.503 131.187 136.016 131.98V128.102H137.122V138ZM141.341 137.146C141.845 137.146 142.247 137.006 142.545 136.726C142.844 136.437 142.993 136.073 142.993 135.634V134.724H141.761C141.164 134.724 140.716 134.841 140.417 135.074C140.119 135.307 139.969 135.601 139.969 135.956C139.969 136.311 140.086 136.6 140.319 136.824C140.553 137.039 140.893 137.146 141.341 137.146ZM143.007 137.16C142.643 137.767 141.981 138.07 141.019 138.07C140.357 138.07 139.82 137.874 139.409 137.482C139.008 137.09 138.807 136.595 138.807 135.998C138.807 135.317 139.064 134.789 139.577 134.416C140.1 134.033 140.809 133.842 141.705 133.842H142.993V133.478C142.993 132.918 142.867 132.498 142.615 132.218C142.363 131.929 141.939 131.784 141.341 131.784C140.585 131.784 139.913 131.985 139.325 132.386V131.28C139.857 130.953 140.557 130.79 141.425 130.79C143.208 130.79 144.099 131.695 144.099 133.506V138H143.007V137.16ZM149.142 137.818C148.778 138.779 148.344 139.456 147.84 139.848C147.345 140.24 146.776 140.436 146.132 140.436C145.889 140.436 145.693 140.413 145.544 140.366V139.372C145.684 139.409 145.843 139.428 146.02 139.428C146.963 139.428 147.63 138.891 148.022 137.818L145.152 130.902H146.398L147.322 133.24L148.568 136.46C148.643 136.217 149.016 135.144 149.688 133.24L150.514 130.902H151.704L149.142 137.818ZM153.694 136.698C153.853 136.857 153.932 137.053 153.932 137.286C153.932 137.519 153.853 137.715 153.694 137.874C153.536 138.033 153.34 138.112 153.106 138.112C152.873 138.112 152.677 138.033 152.518 137.874C152.36 137.715 152.28 137.519 152.28 137.286C152.28 137.053 152.36 136.857 152.518 136.698C152.677 136.539 152.873 136.46 153.106 136.46C153.34 136.46 153.536 136.539 153.694 136.698Z" fill="black"/>
<path d="M110.399 36.5498V14.45H76.3989V36.5498C76.3989 37.4888 77.16 38.2498 78.0989 38.2498H108.699C109.638 38.2498 110.399 37.4888 110.399 36.5498Z" fill="#289BC3"/>
<path d="M86.6015 33.1498H83.2015C80.3849 33.1498 78.1016 35.4331 78.1016 38.2498C78.1016 41.0664 80.3849 43.3497 83.2015 43.3497H86.6015C89.4182 43.3497 91.7015 41.0664 91.7015 38.2498C91.7015 35.4331 89.4182 33.1498 86.6015 33.1498Z" fill="#32283C"/>
<path d="M117.199 33.1498H113.799C110.982 33.1498 108.699 35.4331 108.699 38.2498C108.699 41.0665 110.982 43.3498 113.799 43.3498H117.199C120.015 43.3498 122.299 41.0665 122.299 38.2498C122.299 35.4331 120.015 33.1498 117.199 33.1498Z" fill="#32283C"/>
<path d="M113.799 43.3498C116.615 43.3498 118.899 41.0665 118.899 38.2498C118.899 35.4332 116.615 33.1498 113.799 33.1498C110.982 33.1498 108.699 35.4332 108.699 38.2498C108.699 41.0665 110.982 43.3498 113.799 43.3498Z" fill="#555A6E"/>
<path d="M113.798 39.9498C114.737 39.9498 115.498 39.1887 115.498 38.2498C115.498 37.3109 114.737 36.5498 113.798 36.5498C112.859 36.5498 112.098 37.3109 112.098 38.2498C112.098 39.1887 112.859 39.9498 113.798 39.9498Z" fill="#E6E6EB"/>
<path d="M103.601 33.1498H100.201C97.3844 33.1498 95.1011 35.4331 95.1011 38.2498C95.1011 41.0665 97.3844 43.3498 100.201 43.3498H103.601C106.418 43.3498 108.701 41.0665 108.701 38.2498C108.701 35.4331 106.418 33.1498 103.601 33.1498Z" fill="#32283C"/>
<path d="M120.602 16.15H95.1023C94.1634 16.15 93.4023 16.911 93.4023 17.85V19.5499H120.602C121.541 19.5499 122.302 18.7889 122.302 17.85C122.302 16.911 121.541 16.15 120.602 16.15Z" fill="#A5C3DC"/>
<path d="M103.602 16.15H95.1023C94.1634 16.15 93.4023 16.911 93.4023 17.85V19.5499H103.602C104.541 19.5499 105.302 18.7889 105.302 17.85C105.302 16.911 104.541 16.15 103.602 16.15Z" fill="#D7E6F0"/>
<path d="M93.4023 19.5499H120.602V28.0498H93.4023V19.5499Z" fill="#463C4B"/>
<path d="M93.4023 19.5499H103.602V28.0498H93.4023V19.5499Z" fill="#555A6E"/>
<path d="M122.302 38.2498H95.1023C94.1634 38.2498 93.4023 37.4887 93.4023 36.5498V28.0498H120.602C122.48 28.0498 124.002 29.572 124.002 31.4498V36.5498C124.002 37.4887 123.241 38.2498 122.302 38.2498Z" fill="#A5C3DC"/>
<path d="M105.302 38.2498H95.1023C94.1634 38.2498 93.4023 37.4887 93.4023 36.5498V28.0498H103.602C105.48 28.0498 107.002 29.572 107.002 31.4498V36.5498C107.002 37.4887 106.241 38.2498 105.302 38.2498Z" fill="#D7E6F0"/>
<path d="M111.107 31.4498H119.891C121.221 31.4498 122.299 32.528 122.299 33.8582C122.299 35.1882 121.221 36.2665 119.89 36.2665H111.107C109.777 36.2665 108.699 35.1883 108.699 33.8582C108.699 32.528 109.777 31.4498 111.107 31.4498Z" fill="#555A6E"/>
<path d="M111.111 35.1332C111.815 35.1332 112.386 34.5623 112.386 33.8582C112.386 33.154 111.815 32.5832 111.111 32.5832C110.407 32.5832 109.836 33.154 109.836 33.8582C109.836 34.5623 110.407 35.1332 111.111 35.1332Z" fill="#00D2D2"/>
<path d="M119.888 35.1332C120.592 35.1332 121.163 34.5623 121.163 33.8582C121.163 33.154 120.592 32.5832 119.888 32.5832C119.184 32.5832 118.613 33.154 118.613 33.8582C118.613 34.5623 119.184 35.1332 119.888 35.1332Z" fill="#00D2D2"/>
<path d="M89.1497 0H84.0497C83.5803 0 83.1997 0.380586 83.1997 0.849996C83.1997 1.31941 83.5803 1.69999 84.0497 1.69999C87.3305 1.69999 89.9997 4.36919 89.9997 7.64996C89.9997 8.11937 90.3803 8.49996 90.8497 8.49996H95.9496C96.4191 8.49996 96.7996 8.11937 96.7996 7.64996C96.7996 3.43175 93.3679 0 89.1497 0Z" fill="#A5C3DC"/>
<path d="M102.749 0H97.6495C93.4313 0 89.9995 3.43175 89.9995 7.64996C89.9995 8.11937 90.3801 8.49996 90.8495 8.49996H95.9495C96.4189 8.49996 96.7995 8.11937 96.7995 7.64996C96.7995 4.36919 99.4687 1.69999 102.749 1.69999C103.219 1.69999 103.599 1.31941 103.599 0.849996C103.599 0.380586 103.219 0 102.749 0Z" fill="#A5C3DC"/>
<path d="M106.15 0H101.05C100.58 0 100.2 0.380586 100.2 0.849996C100.2 1.31941 100.58 1.69999 101.05 1.69999C102.456 1.69999 103.6 2.84387 103.6 4.24998C103.6 5.65608 102.456 6.79996 101.05 6.79996C100.58 6.79996 100.2 7.18055 100.2 7.64996C100.2 8.11937 100.58 8.49996 101.05 8.49996H106.15C108.493 8.49996 110.4 6.59342 110.4 4.24998C110.4 1.90654 108.493 0 106.15 0Z" fill="#A5C3DC"/>
<path d="M85.7489 6.79996C84.3428 6.79996 83.1989 5.65608 83.1989 4.24998C83.1989 2.84387 84.3428 1.69999 85.7489 1.69999C86.2183 1.69999 86.5989 1.31941 86.5989 0.849996C86.5989 0.380586 86.2183 0 85.7489 0H80.6489C78.3055 0 76.3989 1.90654 76.3989 4.24998C76.3989 6.59342 78.3055 8.49996 80.6489 8.49996H85.7489C86.2183 8.49996 86.5989 8.11937 86.5989 7.64996C86.5989 7.18055 86.2183 6.79996 85.7489 6.79996Z" fill="#A5C3DC"/>
<path d="M112.1 8.49994H74.7C73.7611 8.49994 73 9.261 73 10.1999V12.7499C73 13.6888 73.7611 14.4499 74.7 14.4499H112.1C113.039 14.4499 113.8 13.6888 113.8 12.7499V10.1999C113.8 9.261 113.039 8.49994 112.1 8.49994Z" fill="#289BC3"/>
<path d="M91.6988 38.2498H78.0989C77.16 38.2498 76.3989 37.4887 76.3989 36.5498V19.5499H93.3988V36.5498C93.3988 37.4887 92.6378 38.2498 91.6988 38.2498Z" fill="#00D2D2"/>
<path d="M93.3999 8.49994H74.7C73.7611 8.49994 73 9.261 73 10.1999V12.7499C73 13.6888 73.7611 14.4499 74.7 14.4499H93.3999C94.3388 14.4499 95.0999 13.6888 95.0999 12.7499V10.1999C95.0999 9.261 94.3388 8.49994 93.3999 8.49994Z" fill="#00D2D2"/>
<path d="M84.8978 12.7499C84.8978 13.6888 85.6589 14.4499 86.5978 14.4499H81.4978C80.5589 14.4499 79.7979 13.6888 79.7979 12.7499V10.1999C79.7979 9.261 80.5589 8.49994 81.4978 8.49994H86.5978C85.6589 8.49994 84.8978 9.261 84.8978 10.1999V12.7499Z" fill="#D7E6F0"/>
<path d="M101.903 12.75C101.903 13.6889 101.142 14.45 100.203 14.45H105.303C106.242 14.45 107.003 13.6889 107.003 12.75V10.2C107.003 9.26106 106.242 8.5 105.303 8.5H100.203C101.142 8.5 101.903 9.26106 101.903 10.2V12.75Z" fill="#A5C3DC"/>
<path d="M101.053 8.49996H90.0029V7.64996C90.0029 3.43175 93.4347 0 97.6529 0H101.053C103.396 0 105.303 1.90654 105.303 4.24998C105.303 6.59342 103.396 8.49996 101.053 8.49996ZM91.7635 6.79996H101.053C102.459 6.79996 103.603 5.65608 103.603 4.24998C103.603 2.84387 102.459 1.69999 101.053 1.69999H97.6529C94.6606 1.69999 92.1771 3.92029 91.7635 6.79996Z" fill="#D7E6F0"/>
<path d="M91.6988 8.49996H80.6489C78.3055 8.49996 76.3989 6.59342 76.3989 4.24998C76.3989 1.90654 78.3055 0 80.6489 0H84.0489C88.2671 0 91.6988 3.43175 91.6988 7.64996V8.49996ZM80.6489 1.69999C79.2428 1.69999 78.0989 2.84387 78.0989 4.24998C78.0989 5.65608 79.2428 6.79996 80.6489 6.79996H89.9383C89.5246 3.92029 87.0411 1.69999 84.0489 1.69999H80.6489Z" fill="#D7E6F0"/>
<path d="M100.201 43.3498C103.018 43.3498 105.301 41.0665 105.301 38.2498C105.301 35.4332 103.018 33.1498 100.201 33.1498C97.3844 33.1498 95.1011 35.4332 95.1011 38.2498C95.1011 41.0665 97.3844 43.3498 100.201 43.3498Z" fill="#555A6E"/>
<path d="M100.2 39.9498C101.139 39.9498 101.9 39.1887 101.9 38.2498C101.9 37.3109 101.139 36.5498 100.2 36.5498C99.2611 36.5498 98.5 37.3109 98.5 38.2498C98.5 39.1887 99.2611 39.9498 100.2 39.9498Z" fill="#E6E6EB"/>
<path d="M83.2015 43.3497C86.0182 43.3497 88.3015 41.0664 88.3015 38.2498C88.3015 35.4331 86.0182 33.1498 83.2015 33.1498C80.3849 33.1498 78.1016 35.4331 78.1016 38.2498C78.1016 41.0664 80.3849 43.3497 83.2015 43.3497Z" fill="#555A6E"/>
<path d="M83.1966 39.9498C84.1355 39.9498 84.8966 39.1887 84.8966 38.2498C84.8966 37.3109 84.1355 36.5498 83.1966 36.5498C82.2577 36.5498 81.4966 37.3109 81.4966 38.2498C81.4966 39.1887 82.2577 39.9498 83.1966 39.9498Z" fill="#E6E6EB"/>
</svg>
