<svg width="198" height="140" viewBox="0 0 198 140" fill="none" xmlns="http://www.w3.org/2000/svg">
<path d="M23.84 87H21.46V76.52L18.26 78.46V75.96L21.72 73.92H23.84V87ZM35.328 80.4C35.328 82.4533 34.9213 84.0933 34.108 85.32C33.308 86.5467 32.1413 87.16 30.608 87.16C29.1146 87.16 27.9613 86.5467 27.148 85.32C26.3346 84.0933 25.928 82.4533 25.928 80.4C25.928 78.3333 26.3346 76.7 27.148 75.5C27.9613 74.2867 29.1146 73.68 30.608 73.68C32.1146 73.68 33.2746 74.2867 34.088 75.5C34.9146 76.7 35.328 78.3333 35.328 80.4ZM28.988 77.04C28.588 77.8133 28.388 78.9333 28.388 80.4C28.388 81.8667 28.5813 83 28.968 83.8C29.368 84.5867 29.9146 84.98 30.608 84.98C31.328 84.98 31.8813 84.5867 32.268 83.8C32.668 83.0133 32.868 81.88 32.868 80.4C32.868 78.92 32.6613 77.7933 32.248 77.02C31.848 76.2467 31.3013 75.86 30.608 75.86C29.928 75.86 29.388 76.2533 28.988 77.04ZM46.2459 80.4C46.2459 82.4533 45.8393 84.0933 45.0259 85.32C44.2259 86.5467 43.0593 87.16 41.5259 87.16C40.0326 87.16 38.8793 86.5467 38.0659 85.32C37.2526 84.0933 36.8459 82.4533 36.8459 80.4C36.8459 78.3333 37.2526 76.7 38.0659 75.5C38.8793 74.2867 40.0326 73.68 41.5259 73.68C43.0326 73.68 44.1926 74.2867 45.0059 75.5C45.8326 76.7 46.2459 78.3333 46.2459 80.4ZM39.9059 77.04C39.5059 77.8133 39.3059 78.9333 39.3059 80.4C39.3059 81.8667 39.4993 83 39.8859 83.8C40.2859 84.5867 40.8326 84.98 41.5259 84.98C42.2459 84.98 42.7993 84.5867 43.1859 83.8C43.5859 83.0133 43.7859 81.88 43.7859 80.4C43.7859 78.92 43.5793 77.7933 43.1659 77.02C42.7659 76.2467 42.2193 75.86 41.5259 75.86C40.8459 75.86 40.3059 76.2533 39.9059 77.04ZM53.5839 87.02H51.3839L58.8039 73.18H61.0239L53.5839 87.02ZM55.0639 76.5C55.0639 77.4733 54.7106 78.3133 54.0039 79.02C53.3106 79.7133 52.4772 80.06 51.5039 80.06C50.5172 80.06 49.6772 79.7133 48.9839 79.02C48.2906 78.3267 47.9439 77.4867 47.9439 76.5C47.9439 75.5133 48.2906 74.6733 48.9839 73.98C49.6772 73.2867 50.5172 72.94 51.5039 72.94C52.4906 72.94 53.3306 73.2867 54.0239 73.98C54.7172 74.6733 55.0639 75.5133 55.0639 76.5ZM49.9039 76.5C49.9039 76.9267 50.0572 77.3 50.3639 77.62C50.6839 77.9267 51.0639 78.08 51.5039 78.08C51.9306 78.08 52.2972 77.9267 52.6039 77.62C52.9239 77.3 53.0839 76.9267 53.0839 76.5C53.0839 76.06 52.9239 75.6867 52.6039 75.38C52.2972 75.06 51.9306 74.9 51.5039 74.9C51.0639 74.9 50.6839 75.06 50.3639 75.38C50.0572 75.6867 49.9039 76.06 49.9039 76.5ZM63.5239 81.08C64.2306 81.7733 64.5839 82.6133 64.5839 83.6C64.5839 84.5867 64.2306 85.4267 63.5239 86.12C62.8306 86.8133 61.9972 87.16 61.0239 87.16C60.0372 87.16 59.1972 86.8133 58.5039 86.12C57.8106 85.4267 57.4639 84.5867 57.4639 83.6C57.4639 82.6133 57.8106 81.7733 58.5039 81.08C59.1972 80.3867 60.0372 80.04 61.0239 80.04C61.9972 80.04 62.8306 80.3867 63.5239 81.08ZM59.4439 83.6C59.4439 84.0267 59.5972 84.4 59.9039 84.72C60.2106 85.0267 60.5839 85.18 61.0239 85.18C61.4506 85.18 61.8172 85.0267 62.1239 84.72C62.4439 84.4 62.6039 84.0267 62.6039 83.6C62.6039 83.16 62.4439 82.7867 62.1239 82.48C61.8172 82.16 61.4506 82 61.0239 82C60.5839 82 60.2106 82.16 59.9039 82.48C59.5972 82.7867 59.4439 83.16 59.4439 83.6ZM74.1409 87H71.6209L72.7009 73.52H75.5809L77.4209 78.42C77.7409 79.2467 78.0409 80.0733 78.3209 80.9C78.6009 81.7133 78.8009 82.32 78.9209 82.72L79.1009 83.34C79.5143 81.9533 80.0876 80.3133 80.8209 78.42L82.7009 73.52H85.5809L86.9009 87H84.3809L83.9009 81.74L83.5409 77.02C83.0609 78.3933 82.4876 79.9667 81.8209 81.74L79.9409 86.8H78.2209L76.3809 81.74L74.8009 77.08C74.8009 77.7333 74.7143 79.2867 74.5409 81.74L74.1409 87ZM98.5986 81.9C98.5986 83.4333 98.1653 84.6933 97.2986 85.68C96.4453 86.6667 95.2453 87.16 93.6986 87.16C92.1653 87.16 90.9653 86.68 90.0986 85.72C89.2453 84.76 88.8186 83.5333 88.8186 82.04C88.8186 80.4933 89.2653 79.22 90.1586 78.22C91.0519 77.2067 92.2319 76.7 93.6986 76.7C95.2586 76.7 96.4653 77.1933 97.3186 78.18C98.1719 79.1533 98.5986 80.3933 98.5986 81.9ZM91.3386 81.96C91.3386 82.8933 91.5453 83.6733 91.9586 84.3C92.3719 84.9267 92.9586 85.24 93.7186 85.24C94.5053 85.24 95.0986 84.9333 95.4986 84.32C95.8986 83.7067 96.0986 82.9267 96.0986 81.98C96.0986 81.0067 95.9053 80.2133 95.5186 79.6C95.1319 78.9733 94.5253 78.66 93.6986 78.66C92.9386 78.66 92.3519 78.9733 91.9386 79.6C91.5386 80.2267 91.3386 81.0133 91.3386 81.96ZM109.467 87H107.067V80.76C107.067 80.0933 106.907 79.5933 106.587 79.26C106.267 78.9133 105.834 78.74 105.287 78.74C104.661 78.74 104.134 78.9867 103.707 79.48C103.281 79.96 103.067 80.6533 103.067 81.56V87H100.667V76.86H103.067V78.6C103.641 77.36 104.681 76.74 106.187 76.74C107.201 76.74 108.001 77.0467 108.587 77.66C109.174 78.2733 109.467 79.14 109.467 80.26V87ZM119.716 86.44C119.009 86.88 117.989 87.1 116.656 87.1C115.042 87.1 113.769 86.62 112.836 85.66C111.902 84.7 111.436 83.46 111.436 81.94C111.436 80.3267 111.876 79.06 112.756 78.14C113.636 77.22 114.736 76.76 116.056 76.76C117.376 76.76 118.422 77.16 119.196 77.96C119.969 78.76 120.356 79.9267 120.356 81.46C120.356 81.8333 120.309 82.3133 120.216 82.9H113.856C114.029 83.6333 114.389 84.1933 114.936 84.58C115.496 84.9667 116.189 85.16 117.016 85.16C118.082 85.16 118.982 84.8933 119.716 84.36V86.44ZM116.116 78.64C115.542 78.64 115.042 78.8533 114.616 79.28C114.202 79.6933 113.936 80.3 113.816 81.1H118.076V80.8C118.049 80.1467 117.869 79.6267 117.536 79.24C117.216 78.84 116.742 78.64 116.116 78.64ZM127.762 86.72C126.748 89.4267 125.202 90.78 123.122 90.78C122.735 90.78 122.402 90.7467 122.122 90.68V88.7C122.335 88.7533 122.562 88.78 122.802 88.78C124.015 88.78 124.875 88.12 125.382 86.8L121.382 76.86H124.042L125.222 80.1C125.582 81.06 125.868 81.8667 126.082 82.52C126.308 83.1733 126.448 83.5867 126.502 83.76L126.562 84.04C126.695 83.5733 127.122 82.26 127.842 80.1L128.902 76.86H131.422L127.762 86.72ZM143.415 87H137.955V73.52H142.735C144.175 73.52 145.295 73.86 146.095 74.54C146.895 75.22 147.295 76.1 147.295 77.18C147.295 77.9133 147.095 78.5533 146.695 79.1C146.295 79.6333 145.781 79.9867 145.155 80.16C145.875 80.3333 146.468 80.6867 146.935 81.22C147.401 81.74 147.635 82.4533 147.635 83.36C147.635 84.4267 147.261 85.3 146.515 85.98C145.768 86.66 144.735 87 143.415 87ZM142.415 75.58H140.475V79.2H141.995C142.901 79.2 143.581 79.02 144.035 78.66C144.488 78.3 144.715 77.84 144.715 77.28C144.715 76.76 144.521 76.3467 144.135 76.04C143.761 75.7333 143.188 75.58 142.415 75.58ZM142.535 81.22H140.475V84.94H142.635C144.248 84.94 145.055 84.3267 145.055 83.1C145.055 81.8467 144.215 81.22 142.535 81.22ZM153.171 85.3C153.704 85.3 154.117 85.1467 154.411 84.84C154.717 84.52 154.871 84.1067 154.871 83.6V82.64H153.631C153.004 82.64 152.524 82.7733 152.191 83.04C151.857 83.2933 151.691 83.62 151.691 84.02C151.691 84.8733 152.184 85.3 153.171 85.3ZM154.971 85.78C154.504 86.6467 153.624 87.08 152.331 87.08C151.371 87.08 150.604 86.8 150.031 86.24C149.471 85.68 149.191 84.9733 149.191 84.12C149.191 83.16 149.551 82.4067 150.271 81.86C150.991 81.3133 152.031 81.04 153.391 81.04H154.871V80.42C154.871 79.86 154.724 79.4333 154.431 79.14C154.137 78.8467 153.637 78.7 152.931 78.7C151.851 78.7 150.857 79 149.951 79.6V77.38C150.711 76.9133 151.804 76.68 153.231 76.68C155.977 76.68 157.351 77.96 157.351 80.52V87H154.971V85.78ZM167.167 86.56C166.461 86.9733 165.581 87.18 164.527 87.18C162.967 87.18 161.701 86.6867 160.727 85.7C159.767 84.7133 159.287 83.4667 159.287 81.96C159.301 80.48 159.781 79.2333 160.727 78.22C161.687 77.2067 162.994 76.7 164.647 76.7C165.634 76.7 166.474 76.8867 167.167 77.26V79.38C166.501 78.9533 165.741 78.74 164.887 78.74C163.954 78.74 163.201 79.0333 162.627 79.62C162.054 80.2067 161.761 80.9867 161.747 81.96C161.774 82.92 162.061 83.6933 162.607 84.28C163.167 84.8667 163.921 85.16 164.867 85.16C165.694 85.16 166.461 84.9333 167.167 84.48V86.56ZM171.622 87H169.222V73.1H171.622V81.62L175.202 76.86H178.002L174.282 81.7L178.082 87H175.262L171.622 81.76V87Z" fill="black"/>
<path opacity="0.6" d="M7.56496 118H2.41296V108.564H3.54696V116.978H7.56496V118ZM11.1988 117.146C11.7028 117.146 12.1042 117.006 12.4028 116.726C12.7015 116.437 12.8508 116.073 12.8508 115.634V114.724H11.6188C11.0215 114.724 10.5735 114.841 10.2748 115.074C9.97617 115.307 9.82684 115.601 9.82684 115.956C9.82684 116.311 9.9435 116.6 10.1768 116.824C10.4102 117.039 10.7508 117.146 11.1988 117.146ZM12.8648 117.16C12.5008 117.767 11.8382 118.07 10.8768 118.07C10.2142 118.07 9.6775 117.874 9.26684 117.482C8.8655 117.09 8.66484 116.595 8.66484 115.998C8.66484 115.317 8.9215 114.789 9.43484 114.416C9.9575 114.033 10.6668 113.842 11.5628 113.842H12.8508V113.478C12.8508 112.918 12.7248 112.498 12.4728 112.218C12.2208 111.929 11.7962 111.784 11.1988 111.784C10.4428 111.784 9.77084 111.985 9.18284 112.386V111.28C9.71484 110.953 10.4148 110.79 11.2828 110.79C13.0655 110.79 13.9568 111.695 13.9568 113.506V118H12.8648V117.16ZM20.1895 116.11C20.1895 116.717 19.9748 117.197 19.5455 117.552C19.1255 117.907 18.5468 118.084 17.8095 118.084C16.9508 118.084 16.2555 117.939 15.7235 117.65V116.572C16.3488 116.945 17.0208 117.132 17.7395 117.132C18.1688 117.132 18.4955 117.048 18.7195 116.88C18.9435 116.712 19.0555 116.483 19.0555 116.194C19.0555 115.858 18.9295 115.597 18.6775 115.41C18.4348 115.223 18.0241 115.013 17.4455 114.78C16.9135 114.575 16.4841 114.318 16.1575 114.01C15.8401 113.702 15.6815 113.287 15.6815 112.764C15.6815 112.176 15.9008 111.709 16.3395 111.364C16.7875 111.009 17.3428 110.832 18.0055 110.832C18.7428 110.832 19.3355 110.935 19.7835 111.14V112.19C19.3541 111.929 18.7661 111.798 18.0195 111.798C17.6461 111.798 17.3475 111.887 17.1235 112.064C16.9088 112.232 16.8015 112.451 16.8015 112.722C16.8015 112.89 16.8341 113.039 16.8995 113.17C16.9648 113.291 17.0908 113.413 17.2775 113.534C17.4735 113.655 17.6135 113.739 17.6975 113.786C17.7908 113.823 17.9868 113.907 18.2855 114.038C18.8828 114.281 19.3495 114.556 19.6855 114.864C20.0215 115.172 20.1895 115.587 20.1895 116.11ZM25.245 117.818C24.937 117.986 24.5917 118.07 24.209 118.07C22.809 118.07 22.109 117.356 22.109 115.928V111.798H20.975V110.902H22.109V109.138H23.215V110.902H25.175V111.798H23.215V115.956C23.215 116.712 23.5697 117.09 24.279 117.09C24.643 117.09 24.965 116.983 25.245 116.768V117.818ZM37.0929 117.524C36.5143 117.916 35.7209 118.112 34.7129 118.112C33.2943 118.112 32.1416 117.678 31.2549 116.81C30.3683 115.933 29.9249 114.743 29.9249 113.24C29.9249 111.821 30.3729 110.669 31.2689 109.782C32.1743 108.886 33.3083 108.438 34.6709 108.438C35.6509 108.438 36.4489 108.606 37.0649 108.942V110.104C36.6543 109.889 36.2856 109.735 35.9589 109.642C35.6323 109.549 35.2029 109.502 34.6709 109.502C33.6536 109.502 32.8043 109.847 32.1229 110.538C31.4509 111.229 31.1149 112.129 31.1149 113.24C31.1149 114.397 31.4509 115.321 32.1229 116.012C32.7949 116.703 33.6863 117.048 34.7969 117.048C35.6929 117.048 36.4583 116.81 37.0929 116.334V117.524ZM44.2968 118H43.1908V113.408C43.1908 112.895 43.0555 112.498 42.7848 112.218C42.5235 111.938 42.1781 111.798 41.7488 111.798C41.2261 111.798 40.7688 111.999 40.3768 112.4C39.9848 112.801 39.7888 113.375 39.7888 114.122V118H38.6968V108.102H39.7888V112.134C40.2088 111.247 40.9555 110.804 42.0288 110.804C42.7101 110.804 43.2561 111.014 43.6668 111.434C44.0868 111.854 44.2968 112.423 44.2968 113.142V118ZM48.4274 117.146C48.9314 117.146 49.3327 117.006 49.6314 116.726C49.93 116.437 50.0794 116.073 50.0794 115.634V114.724H48.8474C48.25 114.724 47.802 114.841 47.5034 115.074C47.2047 115.307 47.0554 115.601 47.0554 115.956C47.0554 116.311 47.172 116.6 47.4054 116.824C47.6387 117.039 47.9794 117.146 48.4274 117.146ZM50.0934 117.16C49.7294 117.767 49.0667 118.07 48.1054 118.07C47.4427 118.07 46.906 117.874 46.4954 117.482C46.094 117.09 45.8934 116.595 45.8934 115.998C45.8934 115.317 46.15 114.789 46.6634 114.416C47.186 114.033 47.8954 113.842 48.7914 113.842H50.0794V113.478C50.0794 112.918 49.9534 112.498 49.7014 112.218C49.4494 111.929 49.0247 111.784 48.4274 111.784C47.6714 111.784 46.9994 111.985 46.4114 112.386V111.28C46.9434 110.953 47.6434 110.79 48.5114 110.79C50.294 110.79 51.1854 111.695 51.1854 113.506V118H50.0934V117.16ZM58.748 118H57.642V113.408C57.642 112.885 57.5066 112.489 57.236 112.218C56.9746 111.938 56.6293 111.798 56.2 111.798C55.668 111.798 55.206 112.003 54.814 112.414C54.4313 112.825 54.24 113.394 54.24 114.122V118H53.148V110.902H54.24V112.134C54.66 111.247 55.4066 110.804 56.48 110.804C57.1706 110.804 57.7213 111.014 58.132 111.434C58.5426 111.854 58.748 112.414 58.748 113.114V118ZM65.5945 117.748C65.1465 118.019 64.5959 118.154 63.9425 118.154C62.8225 118.154 61.9312 117.799 61.2685 117.09C60.6152 116.371 60.2885 115.499 60.2885 114.472C60.2885 113.464 60.6152 112.596 61.2685 111.868C61.9312 111.14 62.8319 110.776 63.9705 110.776C64.5772 110.776 65.1185 110.907 65.5945 111.168V112.218C65.1652 111.929 64.6612 111.784 64.0825 111.784C63.2799 111.784 62.6359 112.045 62.1505 112.568C61.6745 113.081 61.4365 113.721 61.4365 114.486C61.4459 115.251 61.6792 115.891 62.1365 116.404C62.5939 116.908 63.2425 117.16 64.0825 117.16C64.6239 117.16 65.1279 117.006 65.5945 116.698V117.748ZM72.4784 117.636C71.9277 117.925 71.2557 118.07 70.4624 118.07C69.389 118.07 68.521 117.743 67.8584 117.09C67.205 116.427 66.8784 115.555 66.8784 114.472C66.8784 113.343 67.1724 112.451 67.7604 111.798C68.3484 111.145 69.1044 110.818 70.0284 110.818C70.915 110.818 71.6197 111.103 72.1424 111.672C72.665 112.241 72.9264 113.049 72.9264 114.094C72.9264 114.393 72.903 114.668 72.8564 114.92H68.0124C68.0964 115.62 68.3624 116.157 68.8104 116.53C69.2584 116.903 69.8464 117.09 70.5744 117.09C71.3677 117.09 72.0024 116.927 72.4784 116.6V117.636ZM70.0284 111.784C69.4964 111.784 69.0437 111.975 68.6704 112.358C68.297 112.741 68.0777 113.287 68.0124 113.996H71.8204V113.716C71.8204 113.128 71.6617 112.661 71.3444 112.316C71.027 111.961 70.5884 111.784 70.0284 111.784ZM75.8868 115.144H74.8088V108.564H75.8868V115.144ZM76.1668 117.286C76.1668 117.519 76.0875 117.715 75.9288 117.874C75.7702 118.033 75.5695 118.112 75.3268 118.112C75.0842 118.112 74.8835 118.033 74.7248 117.874C74.5755 117.715 74.5008 117.519 74.5008 117.286C74.5008 117.062 74.5802 116.871 74.7388 116.712C74.8975 116.544 75.0935 116.46 75.3268 116.46C75.5602 116.46 75.7562 116.544 75.9148 116.712C76.0828 116.871 76.1668 117.062 76.1668 117.286ZM86.2905 113.898H82.7345V118H81.6005V108.564H86.7805V109.558H82.7345V112.904H86.2905V113.898ZM89.4861 118H88.3801L88.3941 110.902H89.4861V112.148C89.8594 111.271 90.5034 110.832 91.4181 110.832C91.5861 110.832 91.7167 110.841 91.8101 110.86V111.952C91.6141 111.887 91.4134 111.854 91.2081 111.854C90.7134 111.854 90.3027 112.083 89.9761 112.54C89.6494 112.997 89.4861 113.525 89.4861 114.122V118ZM98.1405 117.636C97.5898 117.925 96.9178 118.07 96.1245 118.07C95.0511 118.07 94.1831 117.743 93.5205 117.09C92.8671 116.427 92.5405 115.555 92.5405 114.472C92.5405 113.343 92.8345 112.451 93.4225 111.798C94.0105 111.145 94.7665 110.818 95.6905 110.818C96.5771 110.818 97.2818 111.103 97.8045 111.672C98.3271 112.241 98.5885 113.049 98.5885 114.094C98.5885 114.393 98.5651 114.668 98.5185 114.92H93.6745C93.7585 115.62 94.0245 116.157 94.4725 116.53C94.9205 116.903 95.5085 117.09 96.2365 117.09C97.0298 117.09 97.6645 116.927 98.1405 116.6V117.636ZM95.6905 111.784C95.1585 111.784 94.7058 111.975 94.3325 112.358C93.9591 112.741 93.7398 113.287 93.6745 113.996H97.4825V113.716C97.4825 113.128 97.3238 112.661 97.0065 112.316C96.6891 111.961 96.2505 111.784 95.6905 111.784ZM105.455 117.636C104.904 117.925 104.232 118.07 103.439 118.07C102.366 118.07 101.498 117.743 100.835 117.09C100.182 116.427 99.8549 115.555 99.8549 114.472C99.8549 113.343 100.149 112.451 100.737 111.798C101.325 111.145 102.081 110.818 103.005 110.818C103.892 110.818 104.596 111.103 105.119 111.672C105.642 112.241 105.903 113.049 105.903 114.094C105.903 114.393 105.88 114.668 105.833 114.92H100.989C101.073 115.62 101.339 116.157 101.787 116.53C102.235 116.903 102.823 117.09 103.551 117.09C104.344 117.09 104.979 116.927 105.455 116.6V117.636ZM103.005 111.784C102.473 111.784 102.02 111.975 101.647 112.358C101.274 112.741 101.054 113.287 100.989 113.996H104.797V113.716C104.797 113.128 104.638 112.661 104.321 112.316C104.004 111.961 103.565 111.784 103.005 111.784ZM115.277 116.11C115.277 116.717 115.063 117.197 114.633 117.552C114.213 117.907 113.635 118.084 112.897 118.084C112.039 118.084 111.343 117.939 110.811 117.65V116.572C111.437 116.945 112.109 117.132 112.827 117.132C113.257 117.132 113.583 117.048 113.807 116.88C114.031 116.712 114.143 116.483 114.143 116.194C114.143 115.858 114.017 115.597 113.765 115.41C113.523 115.223 113.112 115.013 112.533 114.78C112.001 114.575 111.572 114.318 111.245 114.01C110.928 113.702 110.769 113.287 110.769 112.764C110.769 112.176 110.989 111.709 111.427 111.364C111.875 111.009 112.431 110.832 113.093 110.832C113.831 110.832 114.423 110.935 114.871 111.14V112.19C114.442 111.929 113.854 111.798 113.107 111.798C112.734 111.798 112.435 111.887 112.211 112.064C111.997 112.232 111.889 112.451 111.889 112.722C111.889 112.89 111.922 113.039 111.987 113.17C112.053 113.291 112.179 113.413 112.365 113.534C112.561 113.655 112.701 113.739 112.785 113.786C112.879 113.823 113.075 113.907 113.373 114.038C113.971 114.281 114.437 114.556 114.773 114.864C115.109 115.172 115.277 115.587 115.277 116.11ZM122.377 118H121.271V113.408C121.271 112.895 121.136 112.498 120.865 112.218C120.604 111.938 120.258 111.798 119.829 111.798C119.306 111.798 118.849 111.999 118.457 112.4C118.065 112.801 117.869 113.375 117.869 114.122V118H116.777V108.102H117.869V112.134C118.289 111.247 119.036 110.804 120.109 110.804C120.79 110.804 121.336 111.014 121.747 111.434C122.167 111.854 122.377 112.423 122.377 113.142V118ZM125.499 118H124.393V110.902H125.499V118ZM125.457 108.158C125.597 108.298 125.667 108.471 125.667 108.676C125.667 108.881 125.597 109.054 125.457 109.194C125.317 109.325 125.145 109.39 124.939 109.39C124.734 109.39 124.561 109.325 124.421 109.194C124.291 109.054 124.225 108.881 124.225 108.676C124.225 108.471 124.291 108.298 124.421 108.158C124.561 108.018 124.734 107.948 124.939 107.948C125.145 107.948 125.317 108.018 125.457 108.158ZM128.697 120.758H127.605V110.902H128.697V111.98C129.192 111.187 129.924 110.79 130.895 110.79C131.838 110.79 132.575 111.135 133.107 111.826C133.648 112.507 133.919 113.361 133.919 114.388C133.919 115.48 133.634 116.376 133.065 117.076C132.505 117.767 131.772 118.112 130.867 118.112C129.934 118.112 129.21 117.715 128.697 116.922V120.758ZM128.697 114.458C128.697 115.363 128.907 116.031 129.327 116.46C129.747 116.889 130.214 117.104 130.727 117.104C131.324 117.104 131.814 116.871 132.197 116.404C132.58 115.928 132.771 115.256 132.771 114.388C132.771 113.613 132.584 112.988 132.211 112.512C131.838 112.036 131.366 111.798 130.797 111.798C130.228 111.798 129.733 112.008 129.313 112.428C128.902 112.839 128.697 113.515 128.697 114.458ZM136.64 120.758H135.548V110.902H136.64V111.98C137.135 111.187 137.868 110.79 138.838 110.79C139.781 110.79 140.518 111.135 141.05 111.826C141.592 112.507 141.862 113.361 141.862 114.388C141.862 115.48 141.578 116.376 141.008 117.076C140.448 117.767 139.716 118.112 138.81 118.112C137.877 118.112 137.154 117.715 136.64 116.922V120.758ZM136.64 114.458C136.64 115.363 136.85 116.031 137.27 116.46C137.69 116.889 138.157 117.104 138.67 117.104C139.268 117.104 139.758 116.871 140.14 116.404C140.523 115.928 140.714 115.256 140.714 114.388C140.714 113.613 140.528 112.988 140.154 112.512C139.781 112.036 139.31 111.798 138.74 111.798C138.171 111.798 137.676 112.008 137.256 112.428C136.846 112.839 136.64 113.515 136.64 114.458ZM144.654 118H143.548V110.902H144.654V118ZM144.612 108.158C144.752 108.298 144.822 108.471 144.822 108.676C144.822 108.881 144.752 109.054 144.612 109.194C144.472 109.325 144.299 109.39 144.094 109.39C143.888 109.39 143.716 109.325 143.576 109.194C143.445 109.054 143.38 108.881 143.38 108.676C143.38 108.471 143.445 108.298 143.576 108.158C143.716 108.018 143.888 107.948 144.094 107.948C144.299 107.948 144.472 108.018 144.612 108.158ZM152.359 118H151.253V113.408C151.253 112.885 151.118 112.489 150.847 112.218C150.586 111.938 150.241 111.798 149.811 111.798C149.279 111.798 148.817 112.003 148.425 112.414C148.043 112.825 147.851 113.394 147.851 114.122V118H146.759V110.902H147.851V112.134C148.271 111.247 149.018 110.804 150.091 110.804C150.782 110.804 151.333 111.014 151.743 111.434C152.154 111.854 152.359 112.414 152.359 113.114V118ZM160.046 117.426C160.046 118.509 159.747 119.321 159.15 119.862C158.553 120.413 157.783 120.688 156.84 120.688C155.981 120.688 155.249 120.543 154.642 120.254V119.148C155.239 119.493 155.939 119.666 156.742 119.666C157.423 119.666 157.96 119.484 158.352 119.12C158.744 118.756 158.94 118.187 158.94 117.412V116.614C158.473 117.417 157.778 117.818 156.854 117.818C156.042 117.818 155.347 117.519 154.768 116.922C154.199 116.325 153.914 115.494 153.914 114.43C153.914 113.375 154.18 112.507 154.712 111.826C155.244 111.145 155.939 110.804 156.798 110.804C157.769 110.804 158.483 111.229 158.94 112.078V110.902H160.046V117.426ZM155.062 114.402C155.062 115.195 155.258 115.802 155.65 116.222C156.042 116.633 156.485 116.838 156.98 116.838C157.493 116.838 157.946 116.642 158.338 116.25C158.739 115.849 158.94 115.256 158.94 114.472C158.94 113.567 158.749 112.895 158.366 112.456C157.983 112.017 157.54 111.798 157.036 111.798C156.429 111.798 155.949 112.041 155.594 112.526C155.239 113.002 155.062 113.627 155.062 114.402ZM171.665 114.472C171.665 115.527 171.367 116.399 170.769 117.09C170.172 117.781 169.351 118.126 168.305 118.126C167.288 118.126 166.481 117.785 165.883 117.104C165.295 116.413 165.001 115.545 165.001 114.5C165.001 113.445 165.305 112.568 165.911 111.868C166.527 111.159 167.325 110.804 168.305 110.804C169.379 110.804 170.205 111.149 170.783 111.84C171.371 112.531 171.665 113.408 171.665 114.472ZM166.149 114.486C166.149 115.223 166.345 115.853 166.737 116.376C167.129 116.889 167.652 117.146 168.305 117.146C169.015 117.146 169.561 116.894 169.943 116.39C170.326 115.877 170.517 115.242 170.517 114.486C170.517 113.702 170.335 113.058 169.971 112.554C169.607 112.041 169.052 111.784 168.305 111.784C167.633 111.784 167.106 112.045 166.723 112.568C166.341 113.091 166.149 113.73 166.149 114.486ZM178.883 118H177.777V113.408C177.777 112.885 177.641 112.489 177.371 112.218C177.109 111.938 176.764 111.798 176.335 111.798C175.803 111.798 175.341 112.003 174.949 112.414C174.566 112.825 174.375 113.394 174.375 114.122V118H173.283V110.902H174.375V112.134C174.795 111.247 175.541 110.804 176.615 110.804C177.305 110.804 177.856 111.014 178.267 111.434C178.677 111.854 178.883 112.414 178.883 113.114V118ZM186.431 117.146C186.935 117.146 187.337 117.006 187.635 116.726C187.934 116.437 188.083 116.073 188.083 115.634V114.724H186.851C186.254 114.724 185.806 114.841 185.507 115.074C185.209 115.307 185.059 115.601 185.059 115.956C185.059 116.311 185.176 116.6 185.409 116.824C185.643 117.039 185.983 117.146 186.431 117.146ZM188.097 117.16C187.733 117.767 187.071 118.07 186.109 118.07C185.447 118.07 184.91 117.874 184.499 117.482C184.098 117.09 183.897 116.595 183.897 115.998C183.897 115.317 184.154 114.789 184.667 114.416C185.19 114.033 185.899 113.842 186.795 113.842H188.083V113.478C188.083 112.918 187.957 112.498 187.705 112.218C187.453 111.929 187.029 111.784 186.431 111.784C185.675 111.784 185.003 111.985 184.415 112.386V111.28C184.947 110.953 185.647 110.79 186.515 110.79C188.298 110.79 189.189 111.695 189.189 113.506V118H188.097V117.16ZM192.314 118H191.208V108.102H192.314V118ZM195.581 118H194.475V108.102H195.581V118ZM50.9974 133.472C50.9974 134.527 50.6988 135.399 50.1014 136.09C49.5041 136.781 48.6828 137.126 47.6374 137.126C46.6201 137.126 45.8128 136.785 45.2154 136.104C44.6274 135.413 44.3334 134.545 44.3334 133.5C44.3334 132.445 44.6368 131.568 45.2434 130.868C45.8594 130.159 46.6574 129.804 47.6374 129.804C48.7108 129.804 49.5368 130.149 50.1154 130.84C50.7034 131.531 50.9974 132.408 50.9974 133.472ZM45.4814 133.486C45.4814 134.223 45.6774 134.853 46.0694 135.376C46.4614 135.889 46.9841 136.146 47.6374 136.146C48.3468 136.146 48.8928 135.894 49.2754 135.39C49.6581 134.877 49.8494 134.242 49.8494 133.486C49.8494 132.702 49.6674 132.058 49.3034 131.554C48.9394 131.041 48.3841 130.784 47.6374 130.784C46.9654 130.784 46.4381 131.045 46.0554 131.568C45.6728 132.091 45.4814 132.73 45.4814 133.486ZM53.7068 137H52.6008L52.6148 129.902H53.7068V131.148C54.0801 130.271 54.7241 129.832 55.6388 129.832C55.8068 129.832 55.9374 129.841 56.0308 129.86V130.952C55.8348 130.887 55.6341 130.854 55.4288 130.854C54.9341 130.854 54.5234 131.083 54.1968 131.54C53.8701 131.997 53.7068 132.525 53.7068 133.122V137ZM57.9092 133.528C57.9092 134.293 58.0958 134.914 58.4692 135.39C58.8425 135.866 59.3138 136.104 59.8832 136.104C60.4618 136.104 60.9518 135.889 61.3532 135.46C61.7638 135.031 61.9692 134.345 61.9692 133.402C61.9692 132.506 61.7592 131.848 61.3392 131.428C60.9192 131.008 60.4572 130.798 59.9532 130.798C59.3652 130.798 58.8752 131.036 58.4832 131.512C58.1005 131.979 57.9092 132.651 57.9092 133.528ZM63.0752 137H61.9692V135.95C61.4652 136.725 60.7372 137.112 59.7852 137.112C58.8425 137.112 58.1005 136.762 57.5592 136.062C57.0272 135.362 56.7612 134.513 56.7612 133.514C56.7612 132.403 57.0458 131.507 57.6152 130.826C58.1845 130.135 58.9172 129.79 59.8132 129.79C60.7372 129.79 61.4558 130.187 61.9692 130.98V127.102H63.0752V137ZM70.3045 136.636C69.7539 136.925 69.0819 137.07 68.2885 137.07C67.2152 137.07 66.3472 136.743 65.6845 136.09C65.0312 135.427 64.7045 134.555 64.7045 133.472C64.7045 132.343 64.9985 131.451 65.5865 130.798C66.1745 130.145 66.9305 129.818 67.8545 129.818C68.7412 129.818 69.4459 130.103 69.9685 130.672C70.4912 131.241 70.7525 132.049 70.7525 133.094C70.7525 133.393 70.7292 133.668 70.6825 133.92H65.8385C65.9225 134.62 66.1885 135.157 66.6365 135.53C67.0845 135.903 67.6725 136.09 68.4005 136.09C69.1939 136.09 69.8285 135.927 70.3045 135.6V136.636ZM67.8545 130.784C67.3225 130.784 66.8699 130.975 66.4965 131.358C66.1232 131.741 65.9039 132.287 65.8385 132.996H69.6465V132.716C69.6465 132.128 69.4879 131.661 69.1705 131.316C68.8532 130.961 68.4145 130.784 67.8545 130.784ZM73.531 137H72.425L72.439 129.902H73.531V131.148C73.9043 130.271 74.5483 129.832 75.463 129.832C75.631 129.832 75.7617 129.841 75.855 129.86V130.952C75.659 130.887 75.4583 130.854 75.253 130.854C74.7583 130.854 74.3477 131.083 74.021 131.54C73.6943 131.997 73.531 132.525 73.531 133.122V137ZM81.2754 135.11C81.2754 135.717 81.0607 136.197 80.6314 136.552C80.2114 136.907 79.6327 137.084 78.8954 137.084C78.0367 137.084 77.3414 136.939 76.8094 136.65V135.572C77.4347 135.945 78.1067 136.132 78.8254 136.132C79.2547 136.132 79.5814 136.048 79.8054 135.88C80.0294 135.712 80.1414 135.483 80.1414 135.194C80.1414 134.858 80.0154 134.597 79.7634 134.41C79.5207 134.223 79.1101 134.013 78.5314 133.78C77.9994 133.575 77.5701 133.318 77.2434 133.01C76.9261 132.702 76.7674 132.287 76.7674 131.764C76.7674 131.176 76.9867 130.709 77.4254 130.364C77.8734 130.009 78.4287 129.832 79.0914 129.832C79.8287 129.832 80.4214 129.935 80.8694 130.14V131.19C80.4401 130.929 79.8521 130.798 79.1054 130.798C78.7321 130.798 78.4334 130.887 78.2094 131.064C77.9947 131.232 77.8874 131.451 77.8874 131.722C77.8874 131.89 77.9201 132.039 77.9854 132.17C78.0507 132.291 78.1767 132.413 78.3634 132.534C78.5594 132.655 78.6994 132.739 78.7834 132.786C78.8767 132.823 79.0727 132.907 79.3714 133.038C79.9687 133.281 80.4354 133.556 80.7714 133.864C81.1074 134.172 81.2754 134.587 81.2754 135.11ZM91.3729 136.636C90.8222 136.925 90.1502 137.07 89.3569 137.07C88.2836 137.07 87.4156 136.743 86.7529 136.09C86.0996 135.427 85.7729 134.555 85.7729 133.472C85.7729 132.343 86.0669 131.451 86.6549 130.798C87.2429 130.145 87.9989 129.818 88.9229 129.818C89.8096 129.818 90.5142 130.103 91.0369 130.672C91.5596 131.241 91.8209 132.049 91.8209 133.094C91.8209 133.393 91.7976 133.668 91.7509 133.92H86.9069C86.9909 134.62 87.2569 135.157 87.7049 135.53C88.1529 135.903 88.7409 136.09 89.4689 136.09C90.2622 136.09 90.8969 135.927 91.3729 135.6V136.636ZM88.9229 130.784C88.3909 130.784 87.9382 130.975 87.5649 131.358C87.1916 131.741 86.9722 132.287 86.9069 132.996H90.7149V132.716C90.7149 132.128 90.5562 131.661 90.2389 131.316C89.9216 130.961 89.4829 130.784 88.9229 130.784ZM99.1074 137H98.0014V132.408C98.0014 131.885 97.866 131.489 97.5954 131.218C97.334 130.938 96.9887 130.798 96.5594 130.798C96.0274 130.798 95.5654 131.003 95.1734 131.414C94.7907 131.825 94.5994 132.394 94.5994 133.122V137H93.5074V129.902H94.5994V131.134C95.0194 130.247 95.766 129.804 96.8394 129.804C97.53 129.804 98.0807 130.014 98.4914 130.434C98.902 130.854 99.1074 131.414 99.1074 132.114V137ZM101.796 133.528C101.796 134.293 101.983 134.914 102.356 135.39C102.729 135.866 103.201 136.104 103.77 136.104C104.349 136.104 104.839 135.889 105.24 135.46C105.651 135.031 105.856 134.345 105.856 133.402C105.856 132.506 105.646 131.848 105.226 131.428C104.806 131.008 104.344 130.798 103.84 130.798C103.252 130.798 102.762 131.036 102.37 131.512C101.987 131.979 101.796 132.651 101.796 133.528ZM106.962 137H105.856V135.95C105.352 136.725 104.624 137.112 103.672 137.112C102.729 137.112 101.987 136.762 101.446 136.062C100.914 135.362 100.648 134.513 100.648 133.514C100.648 132.403 100.933 131.507 101.502 130.826C102.071 130.135 102.804 129.79 103.7 129.79C104.624 129.79 105.343 130.187 105.856 130.98V127.102H106.962V137ZM113.281 135.11C113.281 135.717 113.067 136.197 112.637 136.552C112.217 136.907 111.639 137.084 110.901 137.084C110.043 137.084 109.347 136.939 108.815 136.65V135.572C109.441 135.945 110.113 136.132 110.831 136.132C111.261 136.132 111.587 136.048 111.811 135.88C112.035 135.712 112.147 135.483 112.147 135.194C112.147 134.858 112.021 134.597 111.769 134.41C111.527 134.223 111.116 134.013 110.537 133.78C110.005 133.575 109.576 133.318 109.249 133.01C108.932 132.702 108.773 132.287 108.773 131.764C108.773 131.176 108.993 130.709 109.431 130.364C109.879 130.009 110.435 129.832 111.097 129.832C111.835 129.832 112.427 129.935 112.875 130.14V131.19C112.446 130.929 111.858 130.798 111.111 130.798C110.738 130.798 110.439 130.887 110.215 131.064C110.001 131.232 109.893 131.451 109.893 131.722C109.893 131.89 109.926 132.039 109.991 132.17C110.057 132.291 110.183 132.413 110.369 132.534C110.565 132.655 110.705 132.739 110.789 132.786C110.883 132.823 111.079 132.907 111.377 133.038C111.975 133.281 112.441 133.556 112.777 133.864C113.113 134.172 113.281 134.587 113.281 135.11ZM121.755 136.818C121.447 136.986 121.101 137.07 120.719 137.07C119.319 137.07 118.619 136.356 118.619 134.928V130.798H117.485V129.902H118.619V128.138H119.725V129.902H121.685V130.798H119.725V134.956C119.725 135.712 120.079 136.09 120.789 136.09C121.153 136.09 121.475 135.983 121.755 135.768V136.818ZM129.611 133.472C129.611 134.527 129.312 135.399 128.715 136.09C128.117 136.781 127.296 137.126 126.251 137.126C125.233 137.126 124.426 136.785 123.829 136.104C123.241 135.413 122.947 134.545 122.947 133.5C122.947 132.445 123.25 131.568 123.857 130.868C124.473 130.159 125.271 129.804 126.251 129.804C127.324 129.804 128.15 130.149 128.729 130.84C129.317 131.531 129.611 132.408 129.611 133.472ZM124.095 133.486C124.095 134.223 124.291 134.853 124.683 135.376C125.075 135.889 125.597 136.146 126.251 136.146C126.96 136.146 127.506 135.894 127.889 135.39C128.271 134.877 128.463 134.242 128.463 133.486C128.463 132.702 128.281 132.058 127.917 131.554C127.553 131.041 126.997 130.784 126.251 130.784C125.579 130.784 125.051 131.045 124.669 131.568C124.286 132.091 124.095 132.73 124.095 133.486ZM131.956 133.528C131.956 134.293 132.143 134.914 132.516 135.39C132.889 135.866 133.361 136.104 133.93 136.104C134.509 136.104 134.999 135.889 135.4 135.46C135.811 135.031 136.016 134.345 136.016 133.402C136.016 132.506 135.806 131.848 135.386 131.428C134.966 131.008 134.504 130.798 134 130.798C133.412 130.798 132.922 131.036 132.53 131.512C132.147 131.979 131.956 132.651 131.956 133.528ZM137.122 137H136.016V135.95C135.512 136.725 134.784 137.112 133.832 137.112C132.889 137.112 132.147 136.762 131.606 136.062C131.074 135.362 130.808 134.513 130.808 133.514C130.808 132.403 131.093 131.507 131.662 130.826C132.231 130.135 132.964 129.79 133.86 129.79C134.784 129.79 135.503 130.187 136.016 130.98V127.102H137.122V137ZM141.341 136.146C141.845 136.146 142.247 136.006 142.545 135.726C142.844 135.437 142.993 135.073 142.993 134.634V133.724H141.761C141.164 133.724 140.716 133.841 140.417 134.074C140.119 134.307 139.969 134.601 139.969 134.956C139.969 135.311 140.086 135.6 140.319 135.824C140.553 136.039 140.893 136.146 141.341 136.146ZM143.007 136.16C142.643 136.767 141.981 137.07 141.019 137.07C140.357 137.07 139.82 136.874 139.409 136.482C139.008 136.09 138.807 135.595 138.807 134.998C138.807 134.317 139.064 133.789 139.577 133.416C140.1 133.033 140.809 132.842 141.705 132.842H142.993V132.478C142.993 131.918 142.867 131.498 142.615 131.218C142.363 130.929 141.939 130.784 141.341 130.784C140.585 130.784 139.913 130.985 139.325 131.386V130.28C139.857 129.953 140.557 129.79 141.425 129.79C143.208 129.79 144.099 130.695 144.099 132.506V137H143.007V136.16ZM149.142 136.818C148.778 137.779 148.344 138.456 147.84 138.848C147.345 139.24 146.776 139.436 146.132 139.436C145.889 139.436 145.693 139.413 145.544 139.366V138.372C145.684 138.409 145.843 138.428 146.02 138.428C146.963 138.428 147.63 137.891 148.022 136.818L145.152 129.902H146.398L147.322 132.24L148.568 135.46C148.643 135.217 149.016 134.144 149.688 132.24L150.514 129.902H151.704L149.142 136.818ZM153.694 135.698C153.853 135.857 153.932 136.053 153.932 136.286C153.932 136.519 153.853 136.715 153.694 136.874C153.536 137.033 153.34 137.112 153.106 137.112C152.873 137.112 152.677 137.033 152.518 136.874C152.36 136.715 152.28 136.519 152.28 136.286C152.28 136.053 152.36 135.857 152.518 135.698C152.677 135.539 152.873 135.46 153.106 135.46C153.34 135.46 153.536 135.539 153.694 135.698Z" fill="black"/>
<g clip-path="url(#clip0_1_160)">
<path d="M112.575 30.3717H89.5435C89.0279 30.3717 88.6099 29.9537 88.6099 29.4381V18.6801C88.6099 18.1645 89.0279 17.7465 89.5435 17.7465H112.575C113.09 17.7465 113.508 18.1645 113.508 18.6801V29.4381C113.508 29.9536 113.09 30.3717 112.575 30.3717Z" fill="url(#paint0_linear_1_160)"/>
<path d="M88.6352 29.0499L89.957 30.3717H112.575C113.09 30.3717 113.508 29.9537 113.508 29.4381V18.6801C113.508 18.1645 113.09 17.7464 112.575 17.7464H89.5435C89.0279 17.7464 88.6099 18.1644 88.6099 18.6801V28.9956L88.6352 29.0499Z" fill="url(#paint1_linear_1_160)"/>
<path d="M111.172 28.9714H88.1407C87.625 28.9714 87.207 28.5534 87.207 28.0378V17.2797C87.207 16.7641 87.625 16.3461 88.1407 16.3461H111.172C111.687 16.3461 112.105 16.7641 112.105 17.2797V28.0377C112.105 28.5534 111.687 28.9714 111.172 28.9714Z" fill="url(#paint2_linear_1_160)"/>
<path d="M87.2322 27.6496L88.554 28.9714H111.172C111.687 28.9714 112.105 28.5534 112.105 28.0377V17.2797C112.105 16.764 111.687 16.3459 111.172 16.3459H88.1407C87.625 16.3459 87.207 16.7639 87.207 17.2797V27.5952L87.2322 27.6496Z" fill="url(#paint3_linear_1_160)"/>
<path d="M109.774 27.5709H86.7427C86.2271 27.5709 85.8091 27.1529 85.8091 26.6373V15.8793C85.8091 15.3637 86.2271 14.9457 86.7427 14.9457H109.774C110.289 14.9457 110.707 15.3637 110.707 15.8793V26.6373C110.707 27.1529 110.289 27.5709 109.774 27.5709Z" fill="url(#paint4_linear_1_160)"/>
<path d="M85.8344 26.2491L87.1562 27.5709H109.774C110.289 27.5709 110.707 27.1529 110.707 26.6373V15.8793C110.707 15.3637 110.289 14.9457 109.774 14.9457H86.7427C86.2271 14.9457 85.8091 15.3637 85.8091 15.8793V26.1948L85.8344 26.2491Z" fill="url(#paint5_linear_1_160)"/>
<path d="M108.457 26.2535H85.4263C84.9107 26.2535 84.4927 25.8355 84.4927 25.3199V14.5619C84.4927 14.0463 84.9107 13.6283 85.4263 13.6283H108.457C108.973 13.6283 109.391 14.0463 109.391 14.5619V25.3198C109.391 25.8354 108.973 26.2535 108.457 26.2535Z" fill="url(#paint6_linear_1_160)"/>
<path d="M107.983 16.2974C107.307 16.2623 106.755 15.7088 106.72 15.0333C106.712 14.8839 106.73 14.7398 106.768 14.604H87.1125C87.1504 14.7396 87.1679 14.8838 87.1601 15.0333C87.1249 15.7088 86.5728 16.2623 85.8973 16.2973C85.6662 16.3093 85.4474 16.2623 85.2539 16.1704V23.7111C85.4475 23.6191 85.6666 23.5721 85.8977 23.5841C86.5733 23.6194 87.1252 24.1731 87.1601 24.8487C87.1677 24.998 87.1504 25.1419 87.1125 25.2775H106.767C106.73 25.142 106.712 24.998 106.72 24.8487C106.755 24.1731 107.307 23.6194 107.982 23.5841C108.213 23.572 108.432 23.619 108.626 23.7111V16.1704C108.433 16.2624 108.214 16.3093 107.983 16.2974Z" fill="url(#paint7_linear_1_160)"/>
<path d="M96.94 23.1735C98.7255 23.1735 100.173 21.726 100.173 19.9405C100.173 18.155 98.7255 16.7076 96.94 16.7076C95.1545 16.7076 93.707 18.155 93.707 19.9405C93.707 21.726 95.1545 23.1735 96.94 23.1735Z" fill="url(#paint8_linear_1_160)"/>
<path d="M92.4964 15.7917H87.5312V17.2201H92.4964V15.7917Z" fill="url(#paint9_linear_1_160)"/>
<path d="M106.348 22.6617H101.383V24.09H106.348V22.6617Z" fill="url(#paint10_linear_1_160)"/>
<path d="M119.732 9.97251C118.842 9.64689 117.868 10.0186 117.405 10.8083C115.945 8.39882 114.018 6.2907 111.697 4.58733C107.977 1.85813 103.566 0.415588 98.9402 0.415588C94.3142 0.415588 89.903 1.85813 86.1835 4.58733C82.5405 7.26033 79.8665 10.9295 78.4503 15.1978C78.1145 16.2099 78.6628 17.3026 79.6749 17.6384C80.6873 17.9743 81.7798 17.4259 82.1154 16.4138C83.2779 12.91 85.4746 9.89706 88.4679 7.70067C91.5204 5.46088 95.1416 4.27693 98.9402 4.27693C102.739 4.27693 106.36 5.46088 109.412 7.70076C111.195 9.00872 112.695 10.6065 113.862 12.4249C112.974 12.2914 112.085 12.795 111.764 13.6714C111.398 14.6729 111.912 15.7817 112.914 16.1481L116.934 17.6191C116.944 17.6227 116.953 17.625 116.963 17.6283C116.997 17.6401 117.031 17.6508 117.065 17.6606C117.084 17.6659 117.102 17.6713 117.12 17.6761C117.155 17.685 117.19 17.6924 117.225 17.6994C117.243 17.7029 117.261 17.707 117.279 17.71C117.316 17.7163 117.354 17.7207 117.392 17.7249C117.407 17.7265 117.423 17.7291 117.438 17.7303C117.491 17.7347 117.544 17.7372 117.597 17.7372C117.597 17.7372 117.597 17.7372 117.597 17.7372H117.597C117.647 17.7372 117.697 17.7351 117.747 17.7313C117.759 17.7303 117.77 17.7284 117.782 17.7272C117.821 17.7235 117.859 17.7196 117.896 17.7136C117.911 17.7113 117.925 17.7078 117.94 17.7052C117.975 17.6988 118.01 17.6922 118.045 17.6839C118.061 17.6801 118.077 17.6751 118.093 17.6707C118.126 17.662 118.159 17.6531 118.191 17.6427C118.196 17.6411 118.201 17.6401 118.206 17.6385C118.215 17.6354 118.224 17.631 118.234 17.6277C118.276 17.6128 118.318 17.5966 118.36 17.5788C118.377 17.5713 118.395 17.5636 118.412 17.5555C118.453 17.5367 118.492 17.5163 118.531 17.4948C118.544 17.488 118.557 17.4819 118.569 17.4748C118.616 17.4476 118.661 17.4178 118.706 17.3866C118.723 17.3744 118.74 17.3614 118.757 17.3487C118.787 17.3263 118.816 17.3033 118.844 17.2792C118.86 17.266 118.875 17.2528 118.891 17.239C118.923 17.2097 118.955 17.1791 118.985 17.1476C118.993 17.1388 119.003 17.1305 119.011 17.1215C119.051 17.0788 119.089 17.0342 119.125 16.9876C119.127 16.9843 119.129 16.9809 119.132 16.9776C119.164 16.9355 119.194 16.8917 119.223 16.8466C119.231 16.8344 119.238 16.8221 119.246 16.8099C119.268 16.7732 119.289 16.7359 119.309 16.6975C119.317 16.6816 119.325 16.6659 119.333 16.6498C119.35 16.6138 119.367 16.5771 119.382 16.5396C119.389 16.5222 119.397 16.5051 119.403 16.4876C119.406 16.4816 119.408 16.4758 119.411 16.4697L120.882 12.4495C121.248 11.4479 120.733 10.3389 119.732 9.97251Z" fill="url(#paint11_linear_1_160)"/>
<path d="M78.2678 34.0273C79.1578 34.3529 80.1319 33.9813 80.5949 33.1915C82.0546 35.601 83.9818 37.7091 86.303 39.4125C90.0226 42.1417 94.4338 43.5844 99.0598 43.5844C103.686 43.5844 108.097 42.1418 111.816 39.4125C115.459 36.7395 118.133 33.0704 119.55 28.802C119.885 27.7899 119.337 26.6972 118.325 26.3615C117.313 26.0256 116.22 26.574 115.885 27.5861C114.722 31.0898 112.525 34.1028 109.532 36.2992C106.48 38.5389 102.858 39.7229 99.0598 39.7229C95.2612 39.7229 91.6402 38.539 88.5876 36.2992C86.8049 34.9912 85.305 33.3934 84.1377 31.575C85.0259 31.7085 85.9153 31.2049 86.2359 30.3285C86.6024 29.3272 86.0876 28.2182 85.0862 27.8518L81.0659 26.3808C81.0563 26.3773 81.0465 26.375 81.0369 26.3716C81.0031 26.3598 80.9691 26.3492 80.9347 26.3393C80.9163 26.334 80.898 26.3286 80.8796 26.3238C80.8449 26.315 80.8099 26.3075 80.7747 26.3005C80.7567 26.297 80.7388 26.2929 80.7209 26.2899C80.6835 26.2836 80.6459 26.2792 80.608 26.275C80.5926 26.2734 80.5772 26.2708 80.5618 26.2696C80.5091 26.2652 80.4561 26.2627 80.4028 26.2627C80.4028 26.2627 80.4028 26.2627 80.4028 26.2627H80.4027C80.3526 26.2627 80.3026 26.2648 80.2531 26.2686C80.2413 26.2696 80.2295 26.2716 80.2177 26.2727C80.1795 26.2764 80.1414 26.2803 80.1037 26.2863C80.0891 26.2887 80.0746 26.2921 80.0599 26.2948C80.0247 26.3011 79.9897 26.3077 79.9551 26.316C79.9389 26.3199 79.9228 26.3249 79.9066 26.3292C79.8738 26.3379 79.8412 26.3469 79.809 26.3572C79.8042 26.3588 79.7994 26.3598 79.7945 26.3614C79.785 26.3646 79.776 26.3689 79.7665 26.3722C79.7239 26.3872 79.6819 26.4033 79.6405 26.4211C79.6227 26.4287 79.605 26.4363 79.5876 26.4444C79.5473 26.4632 79.5076 26.4836 79.4686 26.5051C79.4562 26.5119 79.4434 26.518 79.4312 26.5251C79.3842 26.5523 79.3387 26.5821 79.2941 26.6133C79.2766 26.6255 79.2601 26.6385 79.2432 26.6512C79.2135 26.6736 79.1843 26.6966 79.1557 26.7207C79.1401 26.7339 79.1246 26.7471 79.1094 26.7609C79.0769 26.7902 79.0455 26.8208 79.015 26.8523C79.0065 26.8611 78.9974 26.8694 78.9892 26.8784C78.9494 26.9211 78.9113 26.9658 78.8753 27.0123C78.8728 27.0156 78.8706 27.0191 78.8681 27.0223C78.836 27.0644 78.8056 27.1083 78.7768 27.1534C78.7692 27.1655 78.7619 27.1778 78.7545 27.1901C78.7322 27.2267 78.7112 27.2641 78.6911 27.3025C78.683 27.3183 78.6747 27.334 78.667 27.3501C78.6496 27.3861 78.6335 27.4229 78.6181 27.4603C78.611 27.4777 78.6033 27.4948 78.5967 27.5123C78.5945 27.5183 78.5916 27.5241 78.5894 27.5302L77.1181 31.5506C76.7516 32.552 77.2664 33.661 78.2678 34.0273Z" fill="url(#paint12_radial_1_160)"/>
</g>
<defs>
<linearGradient id="paint0_linear_1_160" x1="88.6096" y1="24.0595" x2="113.507" y2="24.0595" gradientUnits="userSpaceOnUse">
<stop stop-color="#61DB99"/>
<stop offset="1" stop-color="#009E74"/>
</linearGradient>
<linearGradient id="paint1_linear_1_160" x1="102.184" y1="27.8652" x2="100.878" y2="23.1176" gradientUnits="userSpaceOnUse">
<stop stop-color="#009E74" stop-opacity="0"/>
<stop offset="1" stop-color="#009E74"/>
</linearGradient>
<linearGradient id="paint2_linear_1_160" x1="87.2068" y1="22.6592" x2="112.105" y2="22.6592" gradientUnits="userSpaceOnUse">
<stop stop-color="#61DB99"/>
<stop offset="1" stop-color="#009E74"/>
</linearGradient>
<linearGradient id="paint3_linear_1_160" x1="100.626" y1="27.0378" x2="99.7652" y2="22.9139" gradientUnits="userSpaceOnUse">
<stop stop-color="#009E74" stop-opacity="0"/>
<stop offset="1" stop-color="#009E74"/>
</linearGradient>
<linearGradient id="paint4_linear_1_160" x1="85.8089" y1="21.2588" x2="110.707" y2="21.2588" gradientUnits="userSpaceOnUse">
<stop stop-color="#61DB99"/>
<stop offset="1" stop-color="#009E74"/>
</linearGradient>
<linearGradient id="paint5_linear_1_160" x1="100.131" y1="28.3975" x2="96.1274" y2="12.5432" gradientUnits="userSpaceOnUse">
<stop stop-color="#009E74" stop-opacity="0"/>
<stop offset="1" stop-color="#009E74"/>
</linearGradient>
<linearGradient id="paint6_linear_1_160" x1="84.4925" y1="19.9414" x2="109.39" y2="19.9414" gradientUnits="userSpaceOnUse">
<stop stop-color="#A7F3CE"/>
<stop offset="1" stop-color="#61DB99"/>
</linearGradient>
<linearGradient id="paint7_linear_1_160" x1="90.4361" y1="13.4378" x2="106.279" y2="29.2809" gradientUnits="userSpaceOnUse">
<stop stop-color="#61DB99"/>
<stop offset="1" stop-color="#009E74"/>
</linearGradient>
<linearGradient id="paint8_linear_1_160" x1="95.0157" y1="18.0172" x2="99.7028" y2="22.7044" gradientUnits="userSpaceOnUse">
<stop stop-color="#A7F3CE"/>
<stop offset="1" stop-color="#61DB99"/>
</linearGradient>
<linearGradient id="paint9_linear_1_160" x1="88.6688" y1="15.1618" x2="91.9455" y2="18.4384" gradientUnits="userSpaceOnUse">
<stop stop-color="#A7F3CE"/>
<stop offset="1" stop-color="#61DB99"/>
</linearGradient>
<linearGradient id="paint10_linear_1_160" x1="102.52" y1="22.0312" x2="105.796" y2="25.3078" gradientUnits="userSpaceOnUse">
<stop stop-color="#A7F3CE"/>
<stop offset="1" stop-color="#61DB99"/>
</linearGradient>
<linearGradient id="paint11_linear_1_160" x1="78.3515" y1="9.07718" x2="120.999" y2="9.07718" gradientUnits="userSpaceOnUse">
<stop stop-color="#FFB92D"/>
<stop offset="1" stop-color="#F59500"/>
</linearGradient>
<radialGradient id="paint12_radial_1_160" cx="0" cy="0" r="1" gradientUnits="userSpaceOnUse" gradientTransform="translate(99.2838 22.1382) rotate(180) scale(21.8589 21.8588)">
<stop stop-color="#BE3F45"/>
<stop offset="0.317" stop-color="#C14046"/>
<stop offset="0.538" stop-color="#CA4148"/>
<stop offset="0.729" stop-color="#D9444B"/>
<stop offset="0.902" stop-color="#EF4950"/>
<stop offset="1" stop-color="#FF4C54"/>
</radialGradient>
<clipPath id="clip0_1_160">
<rect width="44" height="44" fill="white" transform="translate(77)"/>
</clipPath>
</defs>
</svg>
