<svg width="198" height="138" viewBox="0 0 198 138" fill="none" xmlns="http://www.w3.org/2000/svg">
<path d="M38.6 78.22C38.6 79.6867 38.3067 80.96 37.72 82.04C37.1333 83.12 36.3067 83.9267 35.24 84.46L39.34 86.84L36.5 87.94L32.54 85.14H32.24C30.3067 85.14 28.76 84.5067 27.6 83.24C26.44 81.9733 25.86 80.3 25.86 78.22C25.86 76.1267 26.4333 74.4467 27.58 73.18C28.74 71.9133 30.2867 71.28 32.22 71.28C34.18 71.28 35.7333 71.9133 36.88 73.18C38.0267 74.4333 38.6 76.1133 38.6 78.22ZM28.56 78.22C28.56 79.6333 28.8933 80.7533 29.56 81.58C30.2267 82.4067 31.12 82.82 32.24 82.82C33.3733 82.82 34.2667 82.4133 34.92 81.6C35.5733 80.7733 35.9 79.6467 35.9 78.22C35.9 76.7933 35.5733 75.6667 34.92 74.84C34.2667 74.0133 33.3667 73.6 32.22 73.6C31.0867 73.6 30.1933 74.0133 29.54 74.84C28.8867 75.6667 28.56 76.7933 28.56 78.22ZM49.5703 85H47.1503V83.34C46.617 84.5133 45.577 85.1 44.0303 85.1C43.0036 85.1 42.2036 84.8067 41.6303 84.22C41.057 83.6333 40.7703 82.8 40.7703 81.72V74.86H43.1703V81.16C43.1703 81.8 43.3236 82.2867 43.6303 82.62C43.9503 82.9533 44.3836 83.12 44.9303 83.12C45.6236 83.12 46.1636 82.8867 46.5503 82.42C46.9503 81.9533 47.1503 81.2467 47.1503 80.3V74.86H49.5703V85ZM54.6789 85H52.2789V74.86H54.6789V85ZM54.9189 71.82C54.9189 72.2333 54.7789 72.58 54.4989 72.86C54.2189 73.14 53.8789 73.28 53.4789 73.28C53.0789 73.28 52.7389 73.14 52.4589 72.86C52.1789 72.58 52.0389 72.2333 52.0389 71.82C52.0389 71.42 52.1789 71.08 52.4589 70.8C52.7389 70.52 53.0789 70.38 53.4789 70.38C53.8789 70.38 54.2189 70.52 54.4989 70.8C54.7789 71.08 54.9189 71.42 54.9189 71.82ZM64.7142 84.56C64.0076 84.9733 63.1276 85.18 62.0742 85.18C60.5142 85.18 59.2476 84.6867 58.2742 83.7C57.3142 82.7133 56.8342 81.4667 56.8342 79.96C56.8476 78.48 57.3276 77.2333 58.2742 76.22C59.2342 75.2067 60.5409 74.7 62.1942 74.7C63.1809 74.7 64.0209 74.8867 64.7142 75.26V77.38C64.0476 76.9533 63.2876 76.74 62.4342 76.74C61.5009 76.74 60.7476 77.0333 60.1742 77.62C59.6009 78.2067 59.3076 78.9867 59.2942 79.96C59.3209 80.92 59.6076 81.6933 60.1542 82.28C60.7142 82.8667 61.4676 83.16 62.4142 83.16C63.2409 83.16 64.0076 82.9333 64.7142 82.48V84.56ZM69.1688 85H66.7688V71.1H69.1688V79.62L72.7488 74.86H75.5488L71.8288 79.7L75.6288 85H72.8088L69.1688 79.76V85ZM86.5589 80.42H84.7989V85H82.2789V71.52H86.4989C88.0189 71.52 89.2322 71.9333 90.1389 72.76C91.0589 73.5867 91.5189 74.6467 91.5189 75.94C91.5189 77.3133 91.0456 78.4067 90.0989 79.22C89.1656 80.02 87.9856 80.42 86.5589 80.42ZM86.2789 73.58H84.7989V78.38H86.2189C87.1389 78.38 87.8256 78.16 88.2789 77.72C88.7322 77.28 88.9589 76.6867 88.9589 75.94C88.9589 75.2067 88.7322 74.6333 88.2789 74.22C87.8256 73.7933 87.1589 73.58 86.2789 73.58ZM96.7722 83.3C97.3055 83.3 97.7189 83.1467 98.0122 82.84C98.3189 82.52 98.4722 82.1067 98.4722 81.6V80.64H97.2322C96.6055 80.64 96.1255 80.7733 95.7922 81.04C95.4589 81.2933 95.2922 81.62 95.2922 82.02C95.2922 82.8733 95.7855 83.3 96.7722 83.3ZM98.5722 83.78C98.1055 84.6467 97.2255 85.08 95.9322 85.08C94.9722 85.08 94.2055 84.8 93.6322 84.24C93.0722 83.68 92.7922 82.9733 92.7922 82.12C92.7922 81.16 93.1522 80.4067 93.8722 79.86C94.5922 79.3133 95.6322 79.04 96.9922 79.04H98.4722V78.42C98.4722 77.86 98.3255 77.4333 98.0322 77.14C97.7389 76.8467 97.2389 76.7 96.5322 76.7C95.4522 76.7 94.4589 77 93.5522 77.6V75.38C94.3122 74.9133 95.4055 74.68 96.8322 74.68C99.5789 74.68 100.952 75.96 100.952 78.52V85H98.5722V83.78ZM110.769 84.56C110.062 84.9733 109.182 85.18 108.129 85.18C106.569 85.18 105.302 84.6867 104.329 83.7C103.369 82.7133 102.889 81.4667 102.889 79.96C102.902 78.48 103.382 77.2333 104.329 76.22C105.289 75.2067 106.596 74.7 108.249 74.7C109.236 74.7 110.076 74.8867 110.769 75.26V77.38C110.102 76.9533 109.342 76.74 108.489 76.74C107.556 76.74 106.802 77.0333 106.229 77.62C105.656 78.2067 105.362 78.9867 105.349 79.96C105.376 80.92 105.662 81.6933 106.209 82.28C106.769 82.8667 107.522 83.16 108.469 83.16C109.296 83.16 110.062 82.9333 110.769 82.48V84.56ZM115.223 85H112.823V71.1H115.223V79.62L118.803 74.86H121.603L117.883 79.7L121.683 85H118.863L115.223 79.76V85ZM126.753 83.3C127.286 83.3 127.699 83.1467 127.993 82.84C128.299 82.52 128.453 82.1067 128.453 81.6V80.64H127.213C126.586 80.64 126.106 80.7733 125.773 81.04C125.439 81.2933 125.273 81.62 125.273 82.02C125.273 82.8733 125.766 83.3 126.753 83.3ZM128.553 83.78C128.086 84.6467 127.206 85.08 125.913 85.08C124.953 85.08 124.186 84.8 123.613 84.24C123.053 83.68 122.773 82.9733 122.773 82.12C122.773 81.16 123.133 80.4067 123.853 79.86C124.573 79.3133 125.613 79.04 126.973 79.04H128.453V78.42C128.453 77.86 128.306 77.4333 128.013 77.14C127.719 76.8467 127.219 76.7 126.513 76.7C125.433 76.7 124.439 77 123.533 77.6V75.38C124.293 74.9133 125.386 74.68 126.813 74.68C129.559 74.68 130.933 75.96 130.933 78.52V85H128.553V83.78ZM142.349 84.08C142.349 85.68 141.883 86.88 140.949 87.68C140.029 88.4933 138.856 88.9 137.429 88.9C136.096 88.9 134.929 88.66 133.929 88.18V85.74C134.836 86.38 135.923 86.7 137.189 86.7C139.029 86.7 139.949 85.82 139.949 84.06V83.18C139.336 84.18 138.376 84.68 137.069 84.68C135.936 84.68 134.963 84.2667 134.149 83.44C133.349 82.6 132.949 81.3867 132.949 79.8C132.949 78.3333 133.329 77.1267 134.089 76.18C134.863 75.22 135.876 74.74 137.129 74.74C138.396 74.74 139.336 75.2667 139.949 76.32V74.86H142.349V84.08ZM135.449 79.8C135.449 80.7467 135.656 81.4733 136.069 81.98C136.483 82.4733 137.009 82.72 137.649 82.72C138.303 82.72 138.849 82.4667 139.289 81.96C139.729 81.44 139.949 80.7667 139.949 79.94C139.949 78.86 139.736 78.0667 139.309 77.56C138.883 77.0533 138.343 76.8 137.689 76.8C136.996 76.8 136.449 77.0733 136.049 77.62C135.649 78.1533 135.449 78.88 135.449 79.8ZM147.335 85H144.935V74.86H147.335V85ZM147.575 71.82C147.575 72.2333 147.435 72.58 147.155 72.86C146.875 73.14 146.535 73.28 146.135 73.28C145.735 73.28 145.395 73.14 145.115 72.86C144.835 72.58 144.695 72.2333 144.695 71.82C144.695 71.42 144.835 71.08 145.115 70.8C145.395 70.52 145.735 70.38 146.135 70.38C146.535 70.38 146.875 70.52 147.155 70.8C147.435 71.08 147.575 71.42 147.575 71.82ZM158.83 85H156.43V78.76C156.43 78.0933 156.27 77.5933 155.95 77.26C155.63 76.9133 155.197 76.74 154.65 76.74C154.024 76.74 153.497 76.9867 153.07 77.48C152.644 77.96 152.43 78.6533 152.43 79.56V85H150.03V74.86H152.43V76.6C153.004 75.36 154.044 74.74 155.55 74.74C156.564 74.74 157.364 75.0467 157.95 75.66C158.537 76.2733 158.83 77.14 158.83 78.26V85ZM170.279 84.08C170.279 85.68 169.812 86.88 168.879 87.68C167.959 88.4933 166.786 88.9 165.359 88.9C164.026 88.9 162.859 88.66 161.859 88.18V85.74C162.766 86.38 163.852 86.7 165.119 86.7C166.959 86.7 167.879 85.82 167.879 84.06V83.18C167.266 84.18 166.306 84.68 164.999 84.68C163.866 84.68 162.892 84.2667 162.079 83.44C161.279 82.6 160.879 81.3867 160.879 79.8C160.879 78.3333 161.259 77.1267 162.019 76.18C162.792 75.22 163.806 74.74 165.059 74.74C166.326 74.74 167.266 75.2667 167.879 76.32V74.86H170.279V84.08ZM163.379 79.8C163.379 80.7467 163.586 81.4733 163.999 81.98C164.412 82.4733 164.939 82.72 165.579 82.72C166.232 82.72 166.779 82.4667 167.219 81.96C167.659 81.44 167.879 80.7667 167.879 79.94C167.879 78.86 167.666 78.0667 167.239 77.56C166.812 77.0533 166.272 76.8 165.619 76.8C164.926 76.8 164.379 77.0733 163.979 77.62C163.579 78.1533 163.379 78.88 163.379 79.8Z" fill="black"/>
<path opacity="0.6" d="M7.56496 116H2.41296V106.564H3.54696V114.978H7.56496V116ZM11.1988 115.146C11.7028 115.146 12.1042 115.006 12.4028 114.726C12.7015 114.437 12.8508 114.073 12.8508 113.634V112.724H11.6188C11.0215 112.724 10.5735 112.841 10.2748 113.074C9.97617 113.307 9.82684 113.601 9.82684 113.956C9.82684 114.311 9.9435 114.6 10.1768 114.824C10.4102 115.039 10.7508 115.146 11.1988 115.146ZM12.8648 115.16C12.5008 115.767 11.8382 116.07 10.8768 116.07C10.2142 116.07 9.6775 115.874 9.26684 115.482C8.8655 115.09 8.66484 114.595 8.66484 113.998C8.66484 113.317 8.9215 112.789 9.43484 112.416C9.9575 112.033 10.6668 111.842 11.5628 111.842H12.8508V111.478C12.8508 110.918 12.7248 110.498 12.4728 110.218C12.2208 109.929 11.7962 109.784 11.1988 109.784C10.4428 109.784 9.77084 109.985 9.18284 110.386V109.28C9.71484 108.953 10.4148 108.79 11.2828 108.79C13.0655 108.79 13.9568 109.695 13.9568 111.506V116H12.8648V115.16ZM20.1895 114.11C20.1895 114.717 19.9748 115.197 19.5455 115.552C19.1255 115.907 18.5468 116.084 17.8095 116.084C16.9508 116.084 16.2555 115.939 15.7235 115.65V114.572C16.3488 114.945 17.0208 115.132 17.7395 115.132C18.1688 115.132 18.4955 115.048 18.7195 114.88C18.9435 114.712 19.0555 114.483 19.0555 114.194C19.0555 113.858 18.9295 113.597 18.6775 113.41C18.4348 113.223 18.0241 113.013 17.4455 112.78C16.9135 112.575 16.4841 112.318 16.1575 112.01C15.8401 111.702 15.6815 111.287 15.6815 110.764C15.6815 110.176 15.9008 109.709 16.3395 109.364C16.7875 109.009 17.3428 108.832 18.0055 108.832C18.7428 108.832 19.3355 108.935 19.7835 109.14V110.19C19.3541 109.929 18.7661 109.798 18.0195 109.798C17.6461 109.798 17.3475 109.887 17.1235 110.064C16.9088 110.232 16.8015 110.451 16.8015 110.722C16.8015 110.89 16.8341 111.039 16.8995 111.17C16.9648 111.291 17.0908 111.413 17.2775 111.534C17.4735 111.655 17.6135 111.739 17.6975 111.786C17.7908 111.823 17.9868 111.907 18.2855 112.038C18.8828 112.281 19.3495 112.556 19.6855 112.864C20.0215 113.172 20.1895 113.587 20.1895 114.11ZM25.245 115.818C24.937 115.986 24.5917 116.07 24.209 116.07C22.809 116.07 22.109 115.356 22.109 113.928V109.798H20.975V108.902H22.109V107.138H23.215V108.902H25.175V109.798H23.215V113.956C23.215 114.712 23.5697 115.09 24.279 115.09C24.643 115.09 24.965 114.983 25.245 114.768V115.818ZM37.0929 115.524C36.5143 115.916 35.7209 116.112 34.7129 116.112C33.2943 116.112 32.1416 115.678 31.2549 114.81C30.3683 113.933 29.9249 112.743 29.9249 111.24C29.9249 109.821 30.3729 108.669 31.2689 107.782C32.1743 106.886 33.3083 106.438 34.6709 106.438C35.6509 106.438 36.4489 106.606 37.0649 106.942V108.104C36.6543 107.889 36.2856 107.735 35.9589 107.642C35.6323 107.549 35.2029 107.502 34.6709 107.502C33.6536 107.502 32.8043 107.847 32.1229 108.538C31.4509 109.229 31.1149 110.129 31.1149 111.24C31.1149 112.397 31.4509 113.321 32.1229 114.012C32.7949 114.703 33.6863 115.048 34.7969 115.048C35.6929 115.048 36.4583 114.81 37.0929 114.334V115.524ZM44.2968 116H43.1908V111.408C43.1908 110.895 43.0555 110.498 42.7848 110.218C42.5235 109.938 42.1781 109.798 41.7488 109.798C41.2261 109.798 40.7688 109.999 40.3768 110.4C39.9848 110.801 39.7888 111.375 39.7888 112.122V116H38.6968V106.102H39.7888V110.134C40.2088 109.247 40.9555 108.804 42.0288 108.804C42.7101 108.804 43.2561 109.014 43.6668 109.434C44.0868 109.854 44.2968 110.423 44.2968 111.142V116ZM48.4274 115.146C48.9314 115.146 49.3327 115.006 49.6314 114.726C49.93 114.437 50.0794 114.073 50.0794 113.634V112.724H48.8474C48.25 112.724 47.802 112.841 47.5034 113.074C47.2047 113.307 47.0554 113.601 47.0554 113.956C47.0554 114.311 47.172 114.6 47.4054 114.824C47.6387 115.039 47.9794 115.146 48.4274 115.146ZM50.0934 115.16C49.7294 115.767 49.0667 116.07 48.1054 116.07C47.4427 116.07 46.906 115.874 46.4954 115.482C46.094 115.09 45.8934 114.595 45.8934 113.998C45.8934 113.317 46.15 112.789 46.6634 112.416C47.186 112.033 47.8954 111.842 48.7914 111.842H50.0794V111.478C50.0794 110.918 49.9534 110.498 49.7014 110.218C49.4494 109.929 49.0247 109.784 48.4274 109.784C47.6714 109.784 46.9994 109.985 46.4114 110.386V109.28C46.9434 108.953 47.6434 108.79 48.5114 108.79C50.294 108.79 51.1854 109.695 51.1854 111.506V116H50.0934V115.16ZM58.748 116H57.642V111.408C57.642 110.885 57.5066 110.489 57.236 110.218C56.9746 109.938 56.6293 109.798 56.2 109.798C55.668 109.798 55.206 110.003 54.814 110.414C54.4313 110.825 54.24 111.394 54.24 112.122V116H53.148V108.902H54.24V110.134C54.66 109.247 55.4066 108.804 56.48 108.804C57.1706 108.804 57.7213 109.014 58.132 109.434C58.5426 109.854 58.748 110.414 58.748 111.114V116ZM65.5945 115.748C65.1465 116.019 64.5959 116.154 63.9425 116.154C62.8225 116.154 61.9312 115.799 61.2685 115.09C60.6152 114.371 60.2885 113.499 60.2885 112.472C60.2885 111.464 60.6152 110.596 61.2685 109.868C61.9312 109.14 62.8319 108.776 63.9705 108.776C64.5772 108.776 65.1185 108.907 65.5945 109.168V110.218C65.1652 109.929 64.6612 109.784 64.0825 109.784C63.2799 109.784 62.6359 110.045 62.1505 110.568C61.6745 111.081 61.4365 111.721 61.4365 112.486C61.4459 113.251 61.6792 113.891 62.1365 114.404C62.5939 114.908 63.2425 115.16 64.0825 115.16C64.6239 115.16 65.1279 115.006 65.5945 114.698V115.748ZM72.4784 115.636C71.9277 115.925 71.2557 116.07 70.4624 116.07C69.389 116.07 68.521 115.743 67.8584 115.09C67.205 114.427 66.8784 113.555 66.8784 112.472C66.8784 111.343 67.1724 110.451 67.7604 109.798C68.3484 109.145 69.1044 108.818 70.0284 108.818C70.915 108.818 71.6197 109.103 72.1424 109.672C72.665 110.241 72.9264 111.049 72.9264 112.094C72.9264 112.393 72.903 112.668 72.8564 112.92H68.0124C68.0964 113.62 68.3624 114.157 68.8104 114.53C69.2584 114.903 69.8464 115.09 70.5744 115.09C71.3677 115.09 72.0024 114.927 72.4784 114.6V115.636ZM70.0284 109.784C69.4964 109.784 69.0437 109.975 68.6704 110.358C68.297 110.741 68.0777 111.287 68.0124 111.996H71.8204V111.716C71.8204 111.128 71.6617 110.661 71.3444 110.316C71.027 109.961 70.5884 109.784 70.0284 109.784ZM75.8868 113.144H74.8088V106.564H75.8868V113.144ZM76.1668 115.286C76.1668 115.519 76.0875 115.715 75.9288 115.874C75.7702 116.033 75.5695 116.112 75.3268 116.112C75.0842 116.112 74.8835 116.033 74.7248 115.874C74.5755 115.715 74.5008 115.519 74.5008 115.286C74.5008 115.062 74.5802 114.871 74.7388 114.712C74.8975 114.544 75.0935 114.46 75.3268 114.46C75.5602 114.46 75.7562 114.544 75.9148 114.712C76.0828 114.871 76.1668 115.062 76.1668 115.286ZM86.2905 111.898H82.7345V116H81.6005V106.564H86.7805V107.558H82.7345V110.904H86.2905V111.898ZM89.4861 116H88.3801L88.3941 108.902H89.4861V110.148C89.8594 109.271 90.5034 108.832 91.4181 108.832C91.5861 108.832 91.7167 108.841 91.8101 108.86V109.952C91.6141 109.887 91.4134 109.854 91.2081 109.854C90.7134 109.854 90.3027 110.083 89.9761 110.54C89.6494 110.997 89.4861 111.525 89.4861 112.122V116ZM98.1405 115.636C97.5898 115.925 96.9178 116.07 96.1245 116.07C95.0511 116.07 94.1831 115.743 93.5205 115.09C92.8671 114.427 92.5405 113.555 92.5405 112.472C92.5405 111.343 92.8345 110.451 93.4225 109.798C94.0105 109.145 94.7665 108.818 95.6905 108.818C96.5771 108.818 97.2818 109.103 97.8045 109.672C98.3271 110.241 98.5885 111.049 98.5885 112.094C98.5885 112.393 98.5651 112.668 98.5185 112.92H93.6745C93.7585 113.62 94.0245 114.157 94.4725 114.53C94.9205 114.903 95.5085 115.09 96.2365 115.09C97.0298 115.09 97.6645 114.927 98.1405 114.6V115.636ZM95.6905 109.784C95.1585 109.784 94.7058 109.975 94.3325 110.358C93.9591 110.741 93.7398 111.287 93.6745 111.996H97.4825V111.716C97.4825 111.128 97.3238 110.661 97.0065 110.316C96.6891 109.961 96.2505 109.784 95.6905 109.784ZM105.455 115.636C104.904 115.925 104.232 116.07 103.439 116.07C102.366 116.07 101.498 115.743 100.835 115.09C100.182 114.427 99.8549 113.555 99.8549 112.472C99.8549 111.343 100.149 110.451 100.737 109.798C101.325 109.145 102.081 108.818 103.005 108.818C103.892 108.818 104.596 109.103 105.119 109.672C105.642 110.241 105.903 111.049 105.903 112.094C105.903 112.393 105.88 112.668 105.833 112.92H100.989C101.073 113.62 101.339 114.157 101.787 114.53C102.235 114.903 102.823 115.09 103.551 115.09C104.344 115.09 104.979 114.927 105.455 114.6V115.636ZM103.005 109.784C102.473 109.784 102.02 109.975 101.647 110.358C101.274 110.741 101.054 111.287 100.989 111.996H104.797V111.716C104.797 111.128 104.638 110.661 104.321 110.316C104.004 109.961 103.565 109.784 103.005 109.784ZM115.277 114.11C115.277 114.717 115.063 115.197 114.633 115.552C114.213 115.907 113.635 116.084 112.897 116.084C112.039 116.084 111.343 115.939 110.811 115.65V114.572C111.437 114.945 112.109 115.132 112.827 115.132C113.257 115.132 113.583 115.048 113.807 114.88C114.031 114.712 114.143 114.483 114.143 114.194C114.143 113.858 114.017 113.597 113.765 113.41C113.523 113.223 113.112 113.013 112.533 112.78C112.001 112.575 111.572 112.318 111.245 112.01C110.928 111.702 110.769 111.287 110.769 110.764C110.769 110.176 110.989 109.709 111.427 109.364C111.875 109.009 112.431 108.832 113.093 108.832C113.831 108.832 114.423 108.935 114.871 109.14V110.19C114.442 109.929 113.854 109.798 113.107 109.798C112.734 109.798 112.435 109.887 112.211 110.064C111.997 110.232 111.889 110.451 111.889 110.722C111.889 110.89 111.922 111.039 111.987 111.17C112.053 111.291 112.179 111.413 112.365 111.534C112.561 111.655 112.701 111.739 112.785 111.786C112.879 111.823 113.075 111.907 113.373 112.038C113.971 112.281 114.437 112.556 114.773 112.864C115.109 113.172 115.277 113.587 115.277 114.11ZM122.377 116H121.271V111.408C121.271 110.895 121.136 110.498 120.865 110.218C120.604 109.938 120.258 109.798 119.829 109.798C119.306 109.798 118.849 109.999 118.457 110.4C118.065 110.801 117.869 111.375 117.869 112.122V116H116.777V106.102H117.869V110.134C118.289 109.247 119.036 108.804 120.109 108.804C120.79 108.804 121.336 109.014 121.747 109.434C122.167 109.854 122.377 110.423 122.377 111.142V116ZM125.499 116H124.393V108.902H125.499V116ZM125.457 106.158C125.597 106.298 125.667 106.471 125.667 106.676C125.667 106.881 125.597 107.054 125.457 107.194C125.317 107.325 125.145 107.39 124.939 107.39C124.734 107.39 124.561 107.325 124.421 107.194C124.291 107.054 124.225 106.881 124.225 106.676C124.225 106.471 124.291 106.298 124.421 106.158C124.561 106.018 124.734 105.948 124.939 105.948C125.145 105.948 125.317 106.018 125.457 106.158ZM128.697 118.758H127.605V108.902H128.697V109.98C129.192 109.187 129.924 108.79 130.895 108.79C131.838 108.79 132.575 109.135 133.107 109.826C133.648 110.507 133.919 111.361 133.919 112.388C133.919 113.48 133.634 114.376 133.065 115.076C132.505 115.767 131.772 116.112 130.867 116.112C129.934 116.112 129.21 115.715 128.697 114.922V118.758ZM128.697 112.458C128.697 113.363 128.907 114.031 129.327 114.46C129.747 114.889 130.214 115.104 130.727 115.104C131.324 115.104 131.814 114.871 132.197 114.404C132.58 113.928 132.771 113.256 132.771 112.388C132.771 111.613 132.584 110.988 132.211 110.512C131.838 110.036 131.366 109.798 130.797 109.798C130.228 109.798 129.733 110.008 129.313 110.428C128.902 110.839 128.697 111.515 128.697 112.458ZM136.64 118.758H135.548V108.902H136.64V109.98C137.135 109.187 137.868 108.79 138.838 108.79C139.781 108.79 140.518 109.135 141.05 109.826C141.592 110.507 141.862 111.361 141.862 112.388C141.862 113.48 141.578 114.376 141.008 115.076C140.448 115.767 139.716 116.112 138.81 116.112C137.877 116.112 137.154 115.715 136.64 114.922V118.758ZM136.64 112.458C136.64 113.363 136.85 114.031 137.27 114.46C137.69 114.889 138.157 115.104 138.67 115.104C139.268 115.104 139.758 114.871 140.14 114.404C140.523 113.928 140.714 113.256 140.714 112.388C140.714 111.613 140.528 110.988 140.154 110.512C139.781 110.036 139.31 109.798 138.74 109.798C138.171 109.798 137.676 110.008 137.256 110.428C136.846 110.839 136.64 111.515 136.64 112.458ZM144.654 116H143.548V108.902H144.654V116ZM144.612 106.158C144.752 106.298 144.822 106.471 144.822 106.676C144.822 106.881 144.752 107.054 144.612 107.194C144.472 107.325 144.299 107.39 144.094 107.39C143.888 107.39 143.716 107.325 143.576 107.194C143.445 107.054 143.38 106.881 143.38 106.676C143.38 106.471 143.445 106.298 143.576 106.158C143.716 106.018 143.888 105.948 144.094 105.948C144.299 105.948 144.472 106.018 144.612 106.158ZM152.359 116H151.253V111.408C151.253 110.885 151.118 110.489 150.847 110.218C150.586 109.938 150.241 109.798 149.811 109.798C149.279 109.798 148.817 110.003 148.425 110.414C148.043 110.825 147.851 111.394 147.851 112.122V116H146.759V108.902H147.851V110.134C148.271 109.247 149.018 108.804 150.091 108.804C150.782 108.804 151.333 109.014 151.743 109.434C152.154 109.854 152.359 110.414 152.359 111.114V116ZM160.046 115.426C160.046 116.509 159.747 117.321 159.15 117.862C158.553 118.413 157.783 118.688 156.84 118.688C155.981 118.688 155.249 118.543 154.642 118.254V117.148C155.239 117.493 155.939 117.666 156.742 117.666C157.423 117.666 157.96 117.484 158.352 117.12C158.744 116.756 158.94 116.187 158.94 115.412V114.614C158.473 115.417 157.778 115.818 156.854 115.818C156.042 115.818 155.347 115.519 154.768 114.922C154.199 114.325 153.914 113.494 153.914 112.43C153.914 111.375 154.18 110.507 154.712 109.826C155.244 109.145 155.939 108.804 156.798 108.804C157.769 108.804 158.483 109.229 158.94 110.078V108.902H160.046V115.426ZM155.062 112.402C155.062 113.195 155.258 113.802 155.65 114.222C156.042 114.633 156.485 114.838 156.98 114.838C157.493 114.838 157.946 114.642 158.338 114.25C158.739 113.849 158.94 113.256 158.94 112.472C158.94 111.567 158.749 110.895 158.366 110.456C157.983 110.017 157.54 109.798 157.036 109.798C156.429 109.798 155.949 110.041 155.594 110.526C155.239 111.002 155.062 111.627 155.062 112.402ZM171.665 112.472C171.665 113.527 171.367 114.399 170.769 115.09C170.172 115.781 169.351 116.126 168.305 116.126C167.288 116.126 166.481 115.785 165.883 115.104C165.295 114.413 165.001 113.545 165.001 112.5C165.001 111.445 165.305 110.568 165.911 109.868C166.527 109.159 167.325 108.804 168.305 108.804C169.379 108.804 170.205 109.149 170.783 109.84C171.371 110.531 171.665 111.408 171.665 112.472ZM166.149 112.486C166.149 113.223 166.345 113.853 166.737 114.376C167.129 114.889 167.652 115.146 168.305 115.146C169.015 115.146 169.561 114.894 169.943 114.39C170.326 113.877 170.517 113.242 170.517 112.486C170.517 111.702 170.335 111.058 169.971 110.554C169.607 110.041 169.052 109.784 168.305 109.784C167.633 109.784 167.106 110.045 166.723 110.568C166.341 111.091 166.149 111.73 166.149 112.486ZM178.883 116H177.777V111.408C177.777 110.885 177.641 110.489 177.371 110.218C177.109 109.938 176.764 109.798 176.335 109.798C175.803 109.798 175.341 110.003 174.949 110.414C174.566 110.825 174.375 111.394 174.375 112.122V116H173.283V108.902H174.375V110.134C174.795 109.247 175.541 108.804 176.615 108.804C177.305 108.804 177.856 109.014 178.267 109.434C178.677 109.854 178.883 110.414 178.883 111.114V116ZM186.431 115.146C186.935 115.146 187.337 115.006 187.635 114.726C187.934 114.437 188.083 114.073 188.083 113.634V112.724H186.851C186.254 112.724 185.806 112.841 185.507 113.074C185.209 113.307 185.059 113.601 185.059 113.956C185.059 114.311 185.176 114.6 185.409 114.824C185.643 115.039 185.983 115.146 186.431 115.146ZM188.097 115.16C187.733 115.767 187.071 116.07 186.109 116.07C185.447 116.07 184.91 115.874 184.499 115.482C184.098 115.09 183.897 114.595 183.897 113.998C183.897 113.317 184.154 112.789 184.667 112.416C185.19 112.033 185.899 111.842 186.795 111.842H188.083V111.478C188.083 110.918 187.957 110.498 187.705 110.218C187.453 109.929 187.029 109.784 186.431 109.784C185.675 109.784 185.003 109.985 184.415 110.386V109.28C184.947 108.953 185.647 108.79 186.515 108.79C188.298 108.79 189.189 109.695 189.189 111.506V116H188.097V115.16ZM192.314 116H191.208V106.102H192.314V116ZM195.581 116H194.475V106.102H195.581V116ZM50.9974 131.472C50.9974 132.527 50.6988 133.399 50.1014 134.09C49.5041 134.781 48.6828 135.126 47.6374 135.126C46.6201 135.126 45.8128 134.785 45.2154 134.104C44.6274 133.413 44.3334 132.545 44.3334 131.5C44.3334 130.445 44.6368 129.568 45.2434 128.868C45.8594 128.159 46.6574 127.804 47.6374 127.804C48.7108 127.804 49.5368 128.149 50.1154 128.84C50.7034 129.531 50.9974 130.408 50.9974 131.472ZM45.4814 131.486C45.4814 132.223 45.6774 132.853 46.0694 133.376C46.4614 133.889 46.9841 134.146 47.6374 134.146C48.3468 134.146 48.8928 133.894 49.2754 133.39C49.6581 132.877 49.8494 132.242 49.8494 131.486C49.8494 130.702 49.6674 130.058 49.3034 129.554C48.9394 129.041 48.3841 128.784 47.6374 128.784C46.9654 128.784 46.4381 129.045 46.0554 129.568C45.6728 130.091 45.4814 130.73 45.4814 131.486ZM53.7068 135H52.6008L52.6148 127.902H53.7068V129.148C54.0801 128.271 54.7241 127.832 55.6388 127.832C55.8068 127.832 55.9374 127.841 56.0308 127.86V128.952C55.8348 128.887 55.6341 128.854 55.4288 128.854C54.9341 128.854 54.5234 129.083 54.1968 129.54C53.8701 129.997 53.7068 130.525 53.7068 131.122V135ZM57.9092 131.528C57.9092 132.293 58.0958 132.914 58.4692 133.39C58.8425 133.866 59.3138 134.104 59.8832 134.104C60.4618 134.104 60.9518 133.889 61.3532 133.46C61.7638 133.031 61.9692 132.345 61.9692 131.402C61.9692 130.506 61.7592 129.848 61.3392 129.428C60.9192 129.008 60.4572 128.798 59.9532 128.798C59.3652 128.798 58.8752 129.036 58.4832 129.512C58.1005 129.979 57.9092 130.651 57.9092 131.528ZM63.0752 135H61.9692V133.95C61.4652 134.725 60.7372 135.112 59.7852 135.112C58.8425 135.112 58.1005 134.762 57.5592 134.062C57.0272 133.362 56.7612 132.513 56.7612 131.514C56.7612 130.403 57.0458 129.507 57.6152 128.826C58.1845 128.135 58.9172 127.79 59.8132 127.79C60.7372 127.79 61.4558 128.187 61.9692 128.98V125.102H63.0752V135ZM70.3045 134.636C69.7539 134.925 69.0819 135.07 68.2885 135.07C67.2152 135.07 66.3472 134.743 65.6845 134.09C65.0312 133.427 64.7045 132.555 64.7045 131.472C64.7045 130.343 64.9985 129.451 65.5865 128.798C66.1745 128.145 66.9305 127.818 67.8545 127.818C68.7412 127.818 69.4459 128.103 69.9685 128.672C70.4912 129.241 70.7525 130.049 70.7525 131.094C70.7525 131.393 70.7292 131.668 70.6825 131.92H65.8385C65.9225 132.62 66.1885 133.157 66.6365 133.53C67.0845 133.903 67.6725 134.09 68.4005 134.09C69.1939 134.09 69.8285 133.927 70.3045 133.6V134.636ZM67.8545 128.784C67.3225 128.784 66.8699 128.975 66.4965 129.358C66.1232 129.741 65.9039 130.287 65.8385 130.996H69.6465V130.716C69.6465 130.128 69.4879 129.661 69.1705 129.316C68.8532 128.961 68.4145 128.784 67.8545 128.784ZM73.531 135H72.425L72.439 127.902H73.531V129.148C73.9043 128.271 74.5483 127.832 75.463 127.832C75.631 127.832 75.7617 127.841 75.855 127.86V128.952C75.659 128.887 75.4583 128.854 75.253 128.854C74.7583 128.854 74.3477 129.083 74.021 129.54C73.6943 129.997 73.531 130.525 73.531 131.122V135ZM81.2754 133.11C81.2754 133.717 81.0607 134.197 80.6314 134.552C80.2114 134.907 79.6327 135.084 78.8954 135.084C78.0367 135.084 77.3414 134.939 76.8094 134.65V133.572C77.4347 133.945 78.1067 134.132 78.8254 134.132C79.2547 134.132 79.5814 134.048 79.8054 133.88C80.0294 133.712 80.1414 133.483 80.1414 133.194C80.1414 132.858 80.0154 132.597 79.7634 132.41C79.5207 132.223 79.1101 132.013 78.5314 131.78C77.9994 131.575 77.5701 131.318 77.2434 131.01C76.9261 130.702 76.7674 130.287 76.7674 129.764C76.7674 129.176 76.9867 128.709 77.4254 128.364C77.8734 128.009 78.4287 127.832 79.0914 127.832C79.8287 127.832 80.4214 127.935 80.8694 128.14V129.19C80.4401 128.929 79.8521 128.798 79.1054 128.798C78.7321 128.798 78.4334 128.887 78.2094 129.064C77.9947 129.232 77.8874 129.451 77.8874 129.722C77.8874 129.89 77.9201 130.039 77.9854 130.17C78.0507 130.291 78.1767 130.413 78.3634 130.534C78.5594 130.655 78.6994 130.739 78.7834 130.786C78.8767 130.823 79.0727 130.907 79.3714 131.038C79.9687 131.281 80.4354 131.556 80.7714 131.864C81.1074 132.172 81.2754 132.587 81.2754 133.11ZM91.3729 134.636C90.8222 134.925 90.1502 135.07 89.3569 135.07C88.2836 135.07 87.4156 134.743 86.7529 134.09C86.0996 133.427 85.7729 132.555 85.7729 131.472C85.7729 130.343 86.0669 129.451 86.6549 128.798C87.2429 128.145 87.9989 127.818 88.9229 127.818C89.8096 127.818 90.5142 128.103 91.0369 128.672C91.5596 129.241 91.8209 130.049 91.8209 131.094C91.8209 131.393 91.7976 131.668 91.7509 131.92H86.9069C86.9909 132.62 87.2569 133.157 87.7049 133.53C88.1529 133.903 88.7409 134.09 89.4689 134.09C90.2622 134.09 90.8969 133.927 91.3729 133.6V134.636ZM88.9229 128.784C88.3909 128.784 87.9382 128.975 87.5649 129.358C87.1916 129.741 86.9722 130.287 86.9069 130.996H90.7149V130.716C90.7149 130.128 90.5562 129.661 90.2389 129.316C89.9216 128.961 89.4829 128.784 88.9229 128.784ZM99.1074 135H98.0014V130.408C98.0014 129.885 97.866 129.489 97.5954 129.218C97.334 128.938 96.9887 128.798 96.5594 128.798C96.0274 128.798 95.5654 129.003 95.1734 129.414C94.7907 129.825 94.5994 130.394 94.5994 131.122V135H93.5074V127.902H94.5994V129.134C95.0194 128.247 95.766 127.804 96.8394 127.804C97.53 127.804 98.0807 128.014 98.4914 128.434C98.902 128.854 99.1074 129.414 99.1074 130.114V135ZM101.796 131.528C101.796 132.293 101.983 132.914 102.356 133.39C102.729 133.866 103.201 134.104 103.77 134.104C104.349 134.104 104.839 133.889 105.24 133.46C105.651 133.031 105.856 132.345 105.856 131.402C105.856 130.506 105.646 129.848 105.226 129.428C104.806 129.008 104.344 128.798 103.84 128.798C103.252 128.798 102.762 129.036 102.37 129.512C101.987 129.979 101.796 130.651 101.796 131.528ZM106.962 135H105.856V133.95C105.352 134.725 104.624 135.112 103.672 135.112C102.729 135.112 101.987 134.762 101.446 134.062C100.914 133.362 100.648 132.513 100.648 131.514C100.648 130.403 100.933 129.507 101.502 128.826C102.071 128.135 102.804 127.79 103.7 127.79C104.624 127.79 105.343 128.187 105.856 128.98V125.102H106.962V135ZM113.281 133.11C113.281 133.717 113.067 134.197 112.637 134.552C112.217 134.907 111.639 135.084 110.901 135.084C110.043 135.084 109.347 134.939 108.815 134.65V133.572C109.441 133.945 110.113 134.132 110.831 134.132C111.261 134.132 111.587 134.048 111.811 133.88C112.035 133.712 112.147 133.483 112.147 133.194C112.147 132.858 112.021 132.597 111.769 132.41C111.527 132.223 111.116 132.013 110.537 131.78C110.005 131.575 109.576 131.318 109.249 131.01C108.932 130.702 108.773 130.287 108.773 129.764C108.773 129.176 108.993 128.709 109.431 128.364C109.879 128.009 110.435 127.832 111.097 127.832C111.835 127.832 112.427 127.935 112.875 128.14V129.19C112.446 128.929 111.858 128.798 111.111 128.798C110.738 128.798 110.439 128.887 110.215 129.064C110.001 129.232 109.893 129.451 109.893 129.722C109.893 129.89 109.926 130.039 109.991 130.17C110.057 130.291 110.183 130.413 110.369 130.534C110.565 130.655 110.705 130.739 110.789 130.786C110.883 130.823 111.079 130.907 111.377 131.038C111.975 131.281 112.441 131.556 112.777 131.864C113.113 132.172 113.281 132.587 113.281 133.11ZM121.755 134.818C121.447 134.986 121.101 135.07 120.719 135.07C119.319 135.07 118.619 134.356 118.619 132.928V128.798H117.485V127.902H118.619V126.138H119.725V127.902H121.685V128.798H119.725V132.956C119.725 133.712 120.079 134.09 120.789 134.09C121.153 134.09 121.475 133.983 121.755 133.768V134.818ZM129.611 131.472C129.611 132.527 129.312 133.399 128.715 134.09C128.117 134.781 127.296 135.126 126.251 135.126C125.233 135.126 124.426 134.785 123.829 134.104C123.241 133.413 122.947 132.545 122.947 131.5C122.947 130.445 123.25 129.568 123.857 128.868C124.473 128.159 125.271 127.804 126.251 127.804C127.324 127.804 128.15 128.149 128.729 128.84C129.317 129.531 129.611 130.408 129.611 131.472ZM124.095 131.486C124.095 132.223 124.291 132.853 124.683 133.376C125.075 133.889 125.597 134.146 126.251 134.146C126.96 134.146 127.506 133.894 127.889 133.39C128.271 132.877 128.463 132.242 128.463 131.486C128.463 130.702 128.281 130.058 127.917 129.554C127.553 129.041 126.997 128.784 126.251 128.784C125.579 128.784 125.051 129.045 124.669 129.568C124.286 130.091 124.095 130.73 124.095 131.486ZM131.956 131.528C131.956 132.293 132.143 132.914 132.516 133.39C132.889 133.866 133.361 134.104 133.93 134.104C134.509 134.104 134.999 133.889 135.4 133.46C135.811 133.031 136.016 132.345 136.016 131.402C136.016 130.506 135.806 129.848 135.386 129.428C134.966 129.008 134.504 128.798 134 128.798C133.412 128.798 132.922 129.036 132.53 129.512C132.147 129.979 131.956 130.651 131.956 131.528ZM137.122 135H136.016V133.95C135.512 134.725 134.784 135.112 133.832 135.112C132.889 135.112 132.147 134.762 131.606 134.062C131.074 133.362 130.808 132.513 130.808 131.514C130.808 130.403 131.093 129.507 131.662 128.826C132.231 128.135 132.964 127.79 133.86 127.79C134.784 127.79 135.503 128.187 136.016 128.98V125.102H137.122V135ZM141.341 134.146C141.845 134.146 142.247 134.006 142.545 133.726C142.844 133.437 142.993 133.073 142.993 132.634V131.724H141.761C141.164 131.724 140.716 131.841 140.417 132.074C140.119 132.307 139.969 132.601 139.969 132.956C139.969 133.311 140.086 133.6 140.319 133.824C140.553 134.039 140.893 134.146 141.341 134.146ZM143.007 134.16C142.643 134.767 141.981 135.07 141.019 135.07C140.357 135.07 139.82 134.874 139.409 134.482C139.008 134.09 138.807 133.595 138.807 132.998C138.807 132.317 139.064 131.789 139.577 131.416C140.1 131.033 140.809 130.842 141.705 130.842H142.993V130.478C142.993 129.918 142.867 129.498 142.615 129.218C142.363 128.929 141.939 128.784 141.341 128.784C140.585 128.784 139.913 128.985 139.325 129.386V128.28C139.857 127.953 140.557 127.79 141.425 127.79C143.208 127.79 144.099 128.695 144.099 130.506V135H143.007V134.16ZM149.142 134.818C148.778 135.779 148.344 136.456 147.84 136.848C147.345 137.24 146.776 137.436 146.132 137.436C145.889 137.436 145.693 137.413 145.544 137.366V136.372C145.684 136.409 145.843 136.428 146.02 136.428C146.963 136.428 147.63 135.891 148.022 134.818L145.152 127.902H146.398L147.322 130.24L148.568 133.46C148.643 133.217 149.016 132.144 149.688 130.24L150.514 127.902H151.704L149.142 134.818ZM153.694 133.698C153.853 133.857 153.932 134.053 153.932 134.286C153.932 134.519 153.853 134.715 153.694 134.874C153.536 135.033 153.34 135.112 153.106 135.112C152.873 135.112 152.677 135.033 152.518 134.874C152.36 134.715 152.28 134.519 152.28 134.286C152.28 134.053 152.36 133.857 152.518 133.698C152.677 133.539 152.873 133.46 153.106 133.46C153.34 133.46 153.536 133.539 153.694 133.698Z" fill="black"/>
<path d="M98.8877 18.6239L85.3125 21.0852L90.4074 41.071C90.5551 41.6124 91.0473 42.0063 91.6134 42.0063H106.381C106.947 42.0063 107.44 41.6124 107.587 41.071L112.682 21.0852L98.8877 18.6239ZM96.5361 14.9319C97.2163 14.9319 97.7667 14.3815 97.7667 13.7013V1.23065C97.7667 0.55043 97.2163 0 96.5361 0C95.8558 0 95.3054 0.55043 95.3054 1.23065V13.7013C95.3054 14.3815 95.8558 14.9319 96.5361 14.9319ZM101.459 14.9319C102.139 14.9319 102.689 14.3815 102.689 13.7013V1.23065C102.689 0.55043 102.139 0 101.459 0C100.778 0 100.228 0.55043 100.228 1.23065V13.7013C100.228 14.3815 100.778 14.9319 101.459 14.9319Z" fill="url(#paint0_linear_1_148)"/>
<path d="M114.309 15.055C113.719 14.7597 112.98 15.0057 112.66 15.621L111.159 18.6239L107.418 13.012C107.172 12.6675 106.802 12.4706 106.384 12.4706H91.6161C91.1976 12.4706 90.8284 12.6675 90.5823 13.012L86.8411 18.6239L85.3397 15.621C85.0198 15.0057 84.2814 14.7597 83.6907 15.055C83.0754 15.375 82.8292 16.1134 83.1246 16.704L85.3151 21.0852H112.685L114.875 16.704C115.171 16.1133 114.925 15.375 114.309 15.055ZM99 27.2385C96.9642 27.2385 95.308 28.8946 95.308 30.9304C95.308 32.9663 96.9642 34.6224 99 34.6224C101.036 34.6224 102.692 32.9663 102.692 30.9304C102.692 28.8946 101.036 27.2385 99 27.2385Z" fill="url(#paint1_linear_1_148)"/>
<defs>
<linearGradient id="paint0_linear_1_148" x1="98.9974" y1="42.0063" x2="98.9974" y2="0" gradientUnits="userSpaceOnUse">
<stop stop-color="#FD3A84"/>
<stop offset="1" stop-color="#FFA68D"/>
</linearGradient>
<linearGradient id="paint1_linear_1_148" x1="99" y1="34.6224" x2="99" y2="12.4706" gradientUnits="userSpaceOnUse">
<stop stop-color="#FFC2CC"/>
<stop offset="1" stop-color="#FFF2F4"/>
</linearGradient>
</defs>
</svg>
